<?xml version="1.0" standalone="no"?>
<!DOCTYPE svg PUBLIC "-//W3C//DTD SVG 1.1//EN" "http://www.w3.org/Graphics/SVG/1.1/DTD/svg11.dtd" >
<svg xmlns="http://www.w3.org/2000/svg">
<metadata></metadata>
<defs>
<font id="vw_headbold_italic" horiz-adv-x="1208" >
<font-face units-per-em="2048" ascent="1612" descent="-436" />
<missing-glyph horiz-adv-x="477" />
<glyph horiz-adv-x="0" />
<glyph horiz-adv-x="0" />
<glyph horiz-adv-x="682" />
<glyph unicode="&#xd;" horiz-adv-x="460" />
<glyph unicode=" "  horiz-adv-x="477" />
<glyph unicode="&#x09;" horiz-adv-x="477" />
<glyph unicode="&#xa0;" horiz-adv-x="477" />
<glyph unicode="!" horiz-adv-x="569" d="M14 109q0 91 61 152t154 61q67 0 104.5 -38t37.5 -102q0 -91 -62 -152t-155 -61q-66 0 -103 38t-37 102zM176 492l68 591l65 310h297l-65 -310l-185 -591h-180z" />
<glyph unicode="&#x22;" horiz-adv-x="907" d="M223 829l21 371l41 193h284l-41 -193l-135 -371h-170zM616 829l21 371l41 193h285l-41 -193l-136 -371h-170z" />
<glyph unicode="#" horiz-adv-x="1474" d="M31 326l30 190h240l154 348h-174l30 191h226l151 338h225l-4 -21l-141 -317h293l151 338h228l-6 -21l-142 -317h197l-31 -191h-248l-153 -348h182l-31 -190h-237l-142 -326h-225l4 20l131 306h-293l-143 -326h-225l4 20l133 306h-184zM532 516h293l154 348h-293z" />
<glyph unicode="$" d="M33 98l112 224q50 -37 134 -68.5t165 -40.5l82 391l-59 29q-126 60 -188 141.5t-62 196.5q0 181 125.5 303t357.5 145l35 158h180l-34 -160q165 -21 297 -94l-113 -227q-116 64 -236 82l-81 -385l12 -5q157 -76 231 -156t74 -200q0 -189 -133.5 -310.5t-358.5 -146.5 l-41 -196h-180l41 194q-203 19 -360 125zM516 1006q0 -82 70 -129l61 288q-63 -22 -97 -63.5t-34 -95.5zM627 223q135 40 135 166q0 68 -74 127z" />
<glyph unicode="%" horiz-adv-x="1644" d="M129 0l4 20l1208 1373h222l-4 -21l-1209 -1372h-221zM156 946q0 200 110.5 331.5t278.5 131.5q123 0 189.5 -80t66.5 -211q0 -201 -110 -332t-285 -131q-117 0 -183.5 81t-66.5 210zM352 944q0 -123 78 -123q49 0 85 27t55 72t27.5 94t8.5 102q0 127 -86 127 q-55 0 -94 -45t-56.5 -111t-17.5 -143zM893 274q0 200 110.5 331.5t278.5 131.5q123 0 189.5 -80t66.5 -211q0 -201 -110 -331.5t-285 -130.5q-117 0 -183.5 80.5t-66.5 209.5zM1090 272q0 -122 77 -122q49 0 85 27t55 72t27.5 93.5t8.5 101.5q0 127 -86 127q-55 0 -94 -45 t-56 -111t-17 -143z" />
<glyph unicode="&#x26;" horiz-adv-x="1499" d="M47 291q0 297 402 457l20 8l-12 16q-99 131 -99 254q0 160 136.5 278.5t339.5 118.5q155 0 252.5 -93t97.5 -222q0 -72 -24 -133t-70 -108.5t-95.5 -82t-117.5 -69.5l-52 -27l158 -203q162 150 281 287l180 -149q-158 -178 -318 -322l228 -281l-4 -20h-320l-106 131 q-240 -162 -482 -162q-183 0 -289 90t-106 232zM348 338q0 -57 36.5 -91t98.5 -34q82 0 146.5 25t150.5 81l-184 259l-29 -13q-40 -17 -69.5 -33.5t-68 -45t-60 -66.5t-21.5 -82zM629 1024q0 -59 47 -121l26 -37l62 31q77 38 116.5 80t39.5 98q0 46 -32 78.5t-85 32.5 q-77 0 -125.5 -47.5t-48.5 -114.5z" />
<glyph unicode="'" horiz-adv-x="514" d="M223 829l21 371l41 193h284l-41 -193l-135 -371h-170z" />
<glyph unicode="(" horiz-adv-x="612" d="M47 195q0 157 29.5 312.5t78 286t117 257t139 225.5t150.5 190l144 -96q-418 -630 -418 -1266q0 -280 43 -477l-174 -65q-48 108 -78.5 280.5t-30.5 352.5z" />
<glyph unicode=")" horiz-adv-x="612" d="M-121 -342q418 630 418 1266q0 280 -43 477l174 65q48 -108 78.5 -280t30.5 -352q0 -194 -43.5 -383.5t-120 -350.5t-162.5 -291.5t-188 -246.5z" />
<glyph unicode="*" horiz-adv-x="897" d="M176 989l230 92v4l-189 93l131 163l152 -137l4 2l24 228h197l-74 -228l2 -2l211 137l62 -180l-230 -90v-4l189 -94l-133 -164l-152 139l-4 -2l-23 -231h-198l76 229l-5 2l-208 -137z" />
<glyph unicode="+" d="M63 451l46 211h403l92 436h219l-94 -436h406l-43 -211h-406l-94 -439h-217l92 439h-404z" />
<glyph unicode="," horiz-adv-x="563" d="M-154 -330l4 21l263 600h276l-6 -21l-330 -600h-207z" />
<glyph unicode="-" horiz-adv-x="837" d="M98 451l45 211h584l-43 -211h-586z" />
<glyph unicode="." horiz-adv-x="548" d="M8 109q0 91 61 152t154 61q66 0 102.5 -38t36.5 -102q0 -91 -61 -152t-154 -61q-66 0 -102.5 38t-36.5 102z" />
<glyph unicode="/" horiz-adv-x="921" d="M-70 0l4 20l861 1373h245l-4 -21l-862 -1372h-244z" />
<glyph unicode="0" d="M66 469q0 199 35 359t97.5 270t151 184t191.5 107.5t223 33.5q215 0 321.5 -132.5t106.5 -364.5q0 -200 -35.5 -361t-98.5 -271t-151 -184t-190.5 -107.5t-220.5 -33.5q-216 0 -323 133.5t-107 366.5zM360 475q0 -262 168 -262q55 0 105 20t99 71t85 129t58 203t22 284 q0 130 -39.5 195t-124.5 65q-55 0 -105.5 -20t-100.5 -71t-86 -129t-58.5 -202.5t-22.5 -282.5z" />
<glyph unicode="1" d="M76 0l51 238h285l186 866h-4l-254 -76h-25l54 250l362 115h211l-246 -1155h285l-51 -238h-854z" />
<glyph unicode="2" d="M0 0l43 205l625 504q96 77 144 146t48 149q0 78 -45.5 127t-122.5 49q-86 0 -160 -38.5t-163 -111.5l-133 189q84 77 217 140.5t270 63.5q197 0 318.5 -102.5t121.5 -284.5q0 -65 -24 -130.5t-54.5 -112t-80 -98.5t-77.5 -76t-71 -58l-414 -319v-4h566l-52 -238h-956z " />
<glyph unicode="3" d="M0 74l102 225q156 -86 349 -86q128 0 212.5 59.5t84.5 167.5q0 73 -52 108.5t-166 35.5h-233l51 237h232q137 0 198.5 62t61.5 157q0 65 -46.5 102.5t-138.5 37.5q-161 0 -342 -70l-55 221q94 41 211.5 66.5t218.5 25.5q223 0 341 -87.5t118 -239.5q0 -77 -27 -146.5 t-69.5 -118.5t-90.5 -82.5t-96 -48.5v-4q82 -32 130 -100t48 -168q0 -213 -162 -336t-460 -123q-236 0 -420 105z" />
<glyph unicode="4" d="M4 295l43 205l574 893h290l-538 -861h332l86 408h284l-88 -408h154l-51 -237h-152l-64 -295h-284l63 295h-649z" />
<glyph unicode="5" d="M0 45l96 240q77 -36 170.5 -54t165.5 -18q157 0 239.5 72t82.5 194q0 160 -242 160q-100 0 -276 -12l-29 35l231 731h754l-49 -238h-508l-86 -276q28 4 61 4q208 0 328.5 -88t120.5 -267q0 -258 -178.5 -408.5t-487.5 -150.5q-82 0 -196.5 20t-196.5 56z" />
<glyph unicode="6" d="M53 371q0 124 48 227.5t153 228.5l475 566h328l-6 -21l-414 -471l2 -4q70 27 131 27q162 0 261 -108t99 -273q0 -116 -43.5 -220t-122 -183t-196 -125t-256.5 -46q-220 0 -339.5 115t-119.5 287zM354 395q0 -87 49.5 -134.5t139.5 -47.5q130 0 208 80.5t78 216.5 q0 85 -48.5 127.5t-137.5 42.5q-133 0 -211 -74t-78 -211z" />
<glyph unicode="7" d="M135 0l4 20l754 1131v4h-637l51 238h946l-43 -205l-776 -1188h-299z" />
<glyph unicode="8" d="M29 311q0 153 86.5 265t230.5 165v4q-55 31 -89 89t-34 137q0 95 33.5 176t98 143.5t169.5 97.5t240 35q205 0 311.5 -89.5t106.5 -231.5q0 -99 -38 -178t-91.5 -124.5t-122.5 -74.5v-4q76 -35 121 -107.5t45 -169.5q0 -215 -157 -345t-443 -130q-226 0 -346.5 93.5 t-120.5 248.5zM336 365q0 -71 47.5 -111.5t144.5 -40.5q137 0 205 67t68 171q0 71 -47 111t-144 40q-144 0 -209 -66.5t-65 -170.5zM518 965q0 -125 144 -125q115 0 165 59t50 156q0 125 -144 125q-115 0 -165 -59t-50 -156z" />
<glyph unicode="9" d="M129 850q0 116 43.5 220t122.5 182.5t196.5 124.5t256.5 46q220 0 339 -114.5t119 -286.5q0 -125 -48 -229t-152 -228l-476 -565h-327l6 20l414 472l-2 4q-70 -27 -132 -27q-162 0 -261 108t-99 273zM430 883q0 -85 48.5 -127.5t137.5 -42.5q133 0 211 73.5t78 210.5 q0 88 -49.5 135.5t-138.5 47.5q-130 0 -208.5 -80.5t-78.5 -216.5z" />
<glyph unicode=":" horiz-adv-x="598" d="M31 109q0 91 61 152t154 61q66 0 102.5 -38t36.5 -102q0 -91 -61 -152t-154 -61q-66 0 -102.5 38t-36.5 102zM178 805q0 91 61 152t154 61q66 0 102.5 -37.5t36.5 -101.5q0 -91 -61 -152t-154 -61q-66 0 -102.5 37.5t-36.5 101.5z" />
<glyph unicode=";" horiz-adv-x="606" d="M-147 -330l4 21l262 600h276l-6 -21l-330 -600h-206zM197 805q0 91 61 152t154 61q66 0 102.5 -37.5t36.5 -101.5q0 -91 -61 -152t-154 -61q-66 0 -102.5 37.5t-36.5 101.5z" />
<glyph unicode="&#x3c;" d="M33 453l43 202l1106 461h18l-47 -231l-856 -336v-6l713 -336l-47 -215h-21z" />
<glyph unicode="=" d="M53 219l45 211h946l-45 -211h-946zM152 682l45 211h946l-45 -211h-946z" />
<glyph unicode="&#x3e;" d="M0 -8l47 233l856 336v6l-710 336l47 213h20l907 -461l-43 -202l-1104 -461h-20z" />
<glyph unicode="?" horiz-adv-x="1052" d="M188 1225q81 76 210 137t268 61q193 0 302 -87.5t109 -235.5q0 -79 -30 -150.5t-74 -122t-106.5 -95.5t-115 -72.5t-112.5 -51.5l-49 -116h-223l45 264q163 47 260.5 122.5t97.5 172.5q0 55 -37 92t-106 37q-83 0 -156.5 -38t-155.5 -108zM227 109q0 91 61 152t154 61 q67 0 104.5 -38t37.5 -102q0 -91 -62 -152t-155 -61q-66 0 -103 38t-37 102z" />
<glyph unicode="@" horiz-adv-x="1871" d="M72 379q0 212 82 409.5t223 346.5t344.5 239t433.5 90q156 0 282 -49.5t206 -135.5t122.5 -198t42.5 -241q0 -135 -33 -255t-89 -207.5t-127.5 -151.5t-150 -96t-155.5 -32q-181 0 -225 131h-4q-152 -106 -285 -106q-122 0 -196 81t-74 206q0 101 41 211t109.5 202.5 t169 152.5t208.5 60q134 0 226 -96h2l61 72h160l-213 -545q-39 -92 -28 -146.5t81 -54.5q56 0 116 38.5t111 108t84 179.5t33 239q0 98 -28 181t-85.5 148.5t-154 102.5t-223.5 37q-156 0 -296 -49.5t-245 -136t-182 -200t-116.5 -246t-39.5 -269.5q0 -248 134.5 -386 t393.5 -138q174 0 330 59l33 -157q-179 -64 -377 -64q-331 0 -516.5 175t-185.5 491zM700 444q0 -127 115 -127q40 0 90.5 18t87.5 46l156 416q-53 47 -137 47t-157.5 -63.5t-114 -155.5t-40.5 -181z" />
<glyph unicode="A" horiz-adv-x="1343" d="M-119 0l797 1393h334l205 -1393h-304l-28 287h-531l-151 -287h-322zM481 516h373l-59 586h-7z" />
<glyph unicode="B" horiz-adv-x="1323" d="M37 0l297 1393h481q224 0 342.5 -78.5t118.5 -231.5q0 -141 -69.5 -235.5t-180.5 -134.5v-4q174 -74 174 -254q0 -107 -29.5 -188t-95.5 -142.5t-180 -93t-274 -31.5h-584zM371 238h256q157 0 217.5 56.5t60.5 170.5q0 70 -50 103.5t-163 33.5h-243zM498 827h204 q151 0 209 47.5t58 159.5q0 67 -47 94t-154 27h-201z" />
<glyph unicode="C" horiz-adv-x="1232" d="M109 532q0 185 55.5 347t158.5 283t260 191t349 70q196 0 368 -90l-102 -225q-77 39 -145 55.5t-152 16.5q-147 0 -260.5 -85t-172 -225t-58.5 -309q0 -160 72.5 -254t211.5 -94q85 0 160 16.5t170 55.5l47 -226q-212 -90 -407 -90q-264 0 -409.5 151.5t-145.5 411.5z " />
<glyph unicode="D" horiz-adv-x="1409" d="M37 0l297 1393h409q598 0 598 -508q0 -201 -41 -354t-113.5 -253t-181 -163t-234.5 -89t-284 -26h-450zM371 238h121q109 0 192 18.5t152 62.5t113.5 115t68.5 177.5t24 248.5q0 153 -81 224t-275 71h-119z" />
<glyph unicode="E" horiz-adv-x="1191" d="M37 0l297 1393h917l-51 -238h-633l-71 -334h567l-51 -237h-568l-73 -346h641l-51 -238h-924z" />
<glyph unicode="F" horiz-adv-x="1161" d="M37 0l297 1393h917l-51 -238h-633l-82 -383h568l-52 -237h-567l-112 -535h-285z" />
<glyph unicode="G" horiz-adv-x="1394" d="M106 524q0 137 33 266.5t103 244.5t169 201.5t240 136.5t307 50q128 0 244.5 -29t198.5 -71l-107 -221q-171 78 -368 78q-110 0 -199 -35.5t-147.5 -95.5t-98 -142.5t-56.5 -172t-17 -187.5q0 -157 70 -245.5t214 -88.5q138 0 234 37l55 260l-233 35l43 203h526 l-143 -666q-252 -113 -527 -113q-259 0 -400 149.5t-141 405.5z" />
<glyph unicode="H" horiz-adv-x="1458" d="M37 0l297 1393h282l-120 -572h569l121 572h284l-296 -1393h-285l125 584h-570l-122 -584h-285z" />
<glyph unicode="I" horiz-adv-x="604" d="M37 0l297 1393h282l-294 -1393h-285z" />
<glyph unicode="J" horiz-adv-x="964" d="M-76 115l152 204q45 -52 89.5 -79t115.5 -27q89 0 143 63.5t76 165.5l202 951h283l-211 -994q-43 -204 -177 -317t-335 -113q-208 0 -338 146z" />
<glyph unicode="K" horiz-adv-x="1294" d="M37 0l297 1393h282l-143 -674h4l623 674h330l-5 -21l-673 -710l411 -642l-4 -20h-313l-389 623h-4l-131 -623h-285z" />
<glyph unicode="L" horiz-adv-x="1071" d="M37 0l297 1393h282l-245 -1155h587l-51 -238h-870z" />
<glyph unicode="M" horiz-adv-x="1697" d="M37 0l297 1393h260l254 -746h4l571 746h287l-297 -1393h-283l193 905h-4l-401 -555h-228l-172 555h-4l-192 -905h-285z" />
<glyph unicode="N" horiz-adv-x="1486" d="M37 0l297 1393h299l368 -971h7l206 971h285l-297 -1393h-301l-369 971h-6l-204 -971h-285z" />
<glyph unicode="O" horiz-adv-x="1536" d="M109 528q0 137 30.5 265.5t96.5 243.5t160.5 200.5t231.5 135.5t300 50q135 0 241 -42t172.5 -118t101 -177.5t34.5 -223.5q0 -137 -31 -265.5t-97.5 -243t-161 -199.5t-230.5 -135t-298 -50q-137 0 -243 42t-172.5 118t-100.5 177t-34 222zM408 547q0 -152 69 -243 t215 -91q107 0 192.5 40t139 103.5t89.5 148.5t50.5 169.5t14.5 171.5q0 73 -15.5 132.5t-48.5 105.5t-88 71t-129 25q-108 0 -194.5 -40t-140 -104t-89.5 -149t-50.5 -169t-14.5 -171z" />
<glyph unicode="P" horiz-adv-x="1216" d="M37 0l297 1393h500q198 0 298.5 -96.5t100.5 -260.5q0 -90 -17.5 -169.5t-59 -153.5t-104 -127.5t-158.5 -85t-216 -31.5h-258l-98 -469h-285zM471 707h217q65 0 113.5 25.5t75.5 68.5t40 92.5t13 103.5q0 73 -35.5 115.5t-110.5 42.5h-217z" />
<glyph unicode="Q" horiz-adv-x="1533" d="M109 528q0 137 30.5 265.5t96.5 243.5t160.5 200.5t231.5 135.5t300 50q135 0 241 -42t172.5 -118t101 -177.5t34.5 -223.5q0 -243 -99.5 -452.5t-287.5 -325.5l276 -152l-164 -223l-438 266q-52 -6 -105 -6q-137 0 -243 42t-172.5 118t-100.5 177t-34 222zM408 547 q0 -152 69 -243t215 -91q107 0 192.5 40t139 103.5t89.5 148.5t50.5 169.5t14.5 171.5q0 73 -15.5 132.5t-48.5 105.5t-88 71t-129 25q-108 0 -194.5 -40t-140 -104t-89.5 -149t-50.5 -169t-14.5 -171z" />
<glyph unicode="R" horiz-adv-x="1345" d="M37 0l297 1393h557q210 0 316 -90t106 -259q0 -179 -101.5 -307t-296.5 -168l256 -536l-6 -33h-297l-245 551h-185l-116 -551h-285zM489 788h281q109 0 173.5 63t64.5 163q0 66 -41.5 103.5t-118.5 37.5h-281z" />
<glyph unicode="S" horiz-adv-x="1142" d="M2 98l113 224q60 -43 162.5 -78t189.5 -35q264 0 264 180q0 102 -158 178l-137 66q-126 60 -188 141.5t-62 196.5q0 200 151 326t427 126q87 0 194 -26.5t189 -73.5l-113 -227q-158 88 -301 88q-114 0 -181 -50.5t-67 -127.5q0 -99 109 -152l135 -66q157 -76 231 -156 t74 -200q0 -140 -76 -245.5t-211.5 -161.5t-310.5 -56q-242 0 -434 129z" />
<glyph unicode="T" horiz-adv-x="1144" d="M170 1155l51 238h1051l-51 -238h-383l-246 -1155h-285l246 1155h-383z" />
<glyph unicode="U" horiz-adv-x="1427" d="M150 594l167 799h285l-174 -822q-16 -75 -15 -134q0 -224 224 -224q147 0 235 96.5t123 261.5l174 822h285l-184 -865q-28 -131 -78 -230.5t-129 -175t-194.5 -114.5t-264.5 -39q-294 0 -406 163q-71 104 -71 263q0 90 23 199z" />
<glyph unicode="V" horiz-adv-x="1331" d="M180 1372l4 21h299l113 -1094h6l572 1094h319l-4 -21l-772 -1372h-348z" />
<glyph unicode="W" horiz-adv-x="2027" d="M201 1372l4 21h297l-4 -1086h4l512 1086h332l49 -1086h4l454 1086h316l-4 -21l-662 -1372h-338l-43 1079h-2l-499 -1079h-342z" />
<glyph unicode="X" horiz-adv-x="1261" d="M-78 0l4 20l527 678l-240 674l6 21h297l166 -525h4l389 525h318l-4 -21l-529 -674l240 -678l-4 -20h-301l-162 526h-4l-385 -526h-322z" />
<glyph unicode="Y" horiz-adv-x="1216" d="M162 1372l4 21h301l178 -574h4l424 574h320l-4 -21l-644 -811l-118 -561h-285l121 561z" />
<glyph unicode="Z" horiz-adv-x="1189" d="M-45 0l43 205l848 946v4h-602l49 238h975l-43 -205l-850 -946v-4h647l-51 -238h-1016z" />
<glyph unicode="[" horiz-adv-x="671" d="M-72 -406l391 1840h467l-30 -150l-246 -47l-307 -1446l225 -47l-33 -150h-467z" />
<glyph unicode="\" horiz-adv-x="894" d="M217 1372l4 21h230l276 -1373l-4 -20h-229z" />
<glyph unicode="]" horiz-adv-x="671" d="M-143 -406l32 150l244 47l307 1446l-225 47l33 150h467l-391 -1840h-467z" />
<glyph unicode="^" horiz-adv-x="1011" d="M154 762l4 20l508 652h260l231 -652l-4 -20h-264l-135 416h-9l-311 -416h-280z" />
<glyph unicode="_" horiz-adv-x="1007" d="M-51 -231l41 190h770l-41 -190h-770z" />
<glyph unicode="`" horiz-adv-x="1183" d="M676 1442l4 18h281l102 -278l-4 -21h-234z" />
<glyph unicode="a" horiz-adv-x="1206" d="M55 373q0 99 22 193.5t66.5 176t105.5 143t145.5 97t180.5 35.5q51 0 97 -10.5t83.5 -31.5t60.5 -37t52 -40h4l58 88h203l-166 -772q-5 -23 -2 -30t24 -7h72l-39 -188q-84 -15 -148 -15q-77 0 -118 27.5t-56 85.5h-4q-141 -119 -301 -119q-86 0 -152.5 32t-106.5 88 t-60.5 128t-20.5 156zM342 406q0 -209 168 -209q94 0 197 67l100 475q-74 52 -170 52q-76 0 -134 -32t-92.5 -87t-51.5 -122.5t-17 -143.5z" />
<glyph unicode="b" horiz-adv-x="1198" d="M8 0l305 1434h277l-111 -519h4q134 103 275 103q114 0 194.5 -56t118 -146t37.5 -204q0 -124 -37.5 -239.5t-104.5 -205.5t-169 -144t-222 -54q-158 0 -301 119h-4l-57 -88h-205zM338 248q73 -51 178 -51q76 0 136 32.5t96 87.5t54.5 122.5t18.5 142.5q0 96 -44.5 152.5 t-133.5 56.5q-105 0 -203 -68z" />
<glyph unicode="c" horiz-adv-x="978" d="M53 383q0 185 74.5 328.5t217 225t333.5 81.5q150 0 287 -60l-78 -210q-2 1 -16 5.5t-18 6t-17 5.5l-19.5 6t-19.5 5.5t-21.5 5t-21 3.5t-23.5 3t-23.5 2t-25.5 1q-67 0 -126.5 -22.5t-108 -66.5t-77 -117.5t-28.5 -168.5q0 -112 58.5 -165.5t156.5 -53.5q80 0 221 43 l31 -211q-168 -60 -313 -60h-4q-208 0 -323 112q-116 113 -116 302z" />
<glyph unicode="d" horiz-adv-x="1198" d="M53 375q0 124 38 239.5t105 205.5t169 144t221 54q155 0 272 -103h4l111 519h276l-305 -1434h-205l-20 88h-4q-70 -54 -143.5 -86.5t-168.5 -32.5q-114 0 -194.5 56t-118 146t-37.5 204zM340 406q0 -96 44.5 -152.5t133.5 -56.5q104 0 207 67l100 475q-74 52 -180 52 q-76 0 -135.5 -32t-96 -87t-55 -122.5t-18.5 -143.5z" />
<glyph unicode="e" horiz-adv-x="1099" d="M51 387q0 123 42 237t117.5 201.5t188 140t244.5 52.5q99 0 176 -28t124 -76.5t71 -110.5t24 -133q0 -123 -65 -256h-643q-2 -10 -2 -37q0 -90 49.5 -138.5t144.5 -48.5q142 0 320 68l43 -205q-189 -84 -410 -84q-105 0 -187.5 33t-133.5 90.5t-77 132.5t-26 162z M367 586h405q14 40 14 82q0 149 -163 149q-96 0 -163.5 -67t-92.5 -164z" />
<glyph unicode="f" horiz-adv-x="772" d="M82 776l33 150l182 61l29 131q70 326 379 326q107 0 192 -19l-49 -223q-69 15 -127 15q-56 0 -83 -23t-40 -88l-25 -119h240l-45 -211h-240l-166 -776h-274l164 776h-170z" />
<glyph unicode="g" horiz-adv-x="1196" d="M8 -330l103 203q137 -82 284 -82q120 0 183 49.5t90 171.5l16 74h-4q-121 -98 -274 -98q-114 0 -195 53.5t-118.5 141t-37.5 198.5q0 124 37 238t103 203t167.5 142.5t221.5 53.5q168 0 293 -121h4l55 90h215l-203 -958q-99 -465 -581 -465q-197 0 -359 106zM342 414 q0 -95 44 -147t134 -52q97 0 205 64l98 458q-77 54 -180 54q-77 0 -136.5 -32t-94.5 -86t-52.5 -119.5t-17.5 -139.5z" />
<glyph unicode="h" horiz-adv-x="1179" d="M8 0l305 1434h277l-113 -529h4q135 113 291 113q174 0 254 -112q53 -75 53 -184q0 -55 -14 -118l-129 -604h-277l127 594q9 39 9 71q0 126 -138 126q-109 0 -227 -103l-145 -688h-277z" />
<glyph unicode="i" horiz-adv-x="536" d="M8 0l209 987h277l-211 -987h-275zM262 1282q0 75 56 127.5t139 52.5q62 0 97.5 -34t35.5 -89q0 -76 -56.5 -128t-140.5 -52q-61 0 -96 34t-35 89z" />
<glyph unicode="j" horiz-adv-x="534" d="M-299 -420l47 223q50 -12 105 -12q58 0 90.5 30.5t46.5 98.5l227 1067h275l-232 -1083q-36 -172 -132 -256t-273 -84q-72 0 -154 16zM260 1282q0 75 57 127.5t140 52.5q62 0 96.5 -34t34.5 -89q0 -76 -56.5 -128t-140.5 -52q-61 0 -96 34t-35 89z" />
<glyph unicode="k" horiz-adv-x="1075" d="M8 0l305 1434h277l-191 -891h4l414 444h318l-7 -20l-471 -482l289 -465l-4 -20h-295l-262 457h-4l-96 -457h-277z" />
<glyph unicode="l" horiz-adv-x="589" d="M59 283l244 1151h277l-258 -1213q-5 -23 -2 -30t24 -7h109l-41 -188q-79 -14 -150 -14q-139 0 -188 72q-29 43 -29 115q0 50 14 114z" />
<glyph unicode="m" horiz-adv-x="1828" d="M8 0l209 987h221l15 -96h6q145 127 315 127q107 0 181.5 -40t103.5 -112h4q26 24 42.5 38.5t53.5 39t71.5 38.5t87 25t109.5 11q174 0 252 -108q52 -72 52 -175q0 -52 -13 -112l-133 -623h-276l127 594q9 45 9 79q-1 43 -15 70q-26 48 -117 48q-109 0 -236 -99 q0 -19 -8 -69l-133 -623h-277l127 594q9 42 9 75q0 45 -16 73q-28 50 -120 49q-101 0 -227 -93l-147 -698h-277z" />
<glyph unicode="n" horiz-adv-x="1177" d="M8 0l209 987h223l17 -96h4q42 35 76 58t100 46t137 23q172 0 251 -112q52 -74 52 -182q0 -56 -14 -122l-129 -602h-275l127 594q8 38 8 69q0 128 -137 128q-102 0 -225 -93l-147 -698h-277z" />
<glyph unicode="o" horiz-adv-x="1193" d="M51 395q0 123 44 235.5t122.5 199t196 137.5t254.5 51q107 0 191.5 -34t137.5 -92.5t81 -134.5t28 -163q0 -123 -43 -236t-120.5 -199.5t-196 -138t-259.5 -51.5q-105 0 -189.5 34t-137.5 92.5t-81 135t-28 164.5zM336 410q0 -104 47.5 -158.5t130.5 -54.5q135 0 221 103 t86 278q0 104 -47.5 158.5t-132.5 54.5q-132 0 -218.5 -103t-86.5 -278z" />
<glyph unicode="p" horiz-adv-x="1191" d="M-80 -406l297 1393h203l18 -88h4q47 35 84 57t100 42t130 20q114 0 194 -56t117 -145.5t37 -202.5q0 -124 -37 -240t-104 -206t-168.5 -144.5t-221.5 -54.5q-145 0 -272 103h-4l-100 -478h-277zM336 248q73 -51 178 -51q76 0 136 32.5t96 87.5t54.5 122.5t18.5 142.5 q0 96 -44.5 152.5t-133.5 56.5q-105 0 -203 -68z" />
<glyph unicode="q" horiz-adv-x="1196" d="M53 373q0 124 37 240t104 206t168.5 144.5t221.5 54.5q160 0 303 -119h4l57 88h203l-295 -1393h-276l102 478h-4q-127 -103 -275 -103q-169 0 -259.5 115t-90.5 289zM340 406q0 -96 44.5 -152.5t133.5 -56.5q104 0 207 67l100 475q-74 52 -180 52q-76 0 -135.5 -32 t-96 -87t-55 -122.5t-18.5 -143.5z" />
<glyph unicode="r" horiz-adv-x="749" d="M8 0l209 987h225l13 -119h4q50 69 109 109.5t147 40.5q46 0 92 -12l-51 -232q-39 8 -94 8q-134 0 -234 -104l-143 -678h-277z" />
<glyph unicode="s" horiz-adv-x="952" d="M-18 63l98 199q147 -84 295 -84q172 0 172 107q0 34 -27 56t-84 42l-121 41q-92 31 -150.5 93t-58.5 159q0 165 120.5 253.5t338.5 88.5q187 0 342 -70l-90 -198q-143 59 -268 59q-166 0 -166 -100q0 -32 25.5 -53.5t78.5 -39.5l117 -41q221 -76 221 -258 q0 -170 -124.5 -259t-342.5 -89q-213 0 -376 94z" />
<glyph unicode="t" horiz-adv-x="831" d="M76 776l33 150l188 61l49 230h277l-50 -230h267l-45 -211h-267l-98 -467q-4 -20 -5 -36q0 -76 95 -76q78 0 170 30l-49 -225q-107 -33 -225 -33q-166 0 -234 76q-44 50 -45 137q0 47 13 105l104 489h-178z" />
<glyph unicode="u" horiz-adv-x="1165" d="M78 381l129 606h274l-127 -594q-9 -42 -9 -76q0 -43 16 -71q28 -48 114 -49q110 0 221 92l150 698h274l-209 -987h-223l-16 96h-4q-43 -36 -75.5 -58.5t-97.5 -45.5t-135 -23q-173 1 -248 111q-48 71 -48 176q0 57 14 125z" />
<glyph unicode="v" horiz-adv-x="1089" d="M102 967l4 20h271l90 -706h4l391 706h287l-4 -20l-578 -967h-299z" />
<glyph unicode="w" horiz-adv-x="1691" d="M117 967l4 20h266l29 -684h4l350 684h299l59 -684h5l319 684h287l-4 -20l-492 -967h-303l-68 711h-4l-368 -711h-301z" />
<glyph unicode="x" horiz-adv-x="1091" d="M-80 0l4 20l408 474l-207 473l4 20h287l131 -346h4l276 346h308l-5 -20l-407 -473l207 -474l-6 -20h-285l-131 344h-4l-277 -344h-307z" />
<glyph unicode="y" horiz-adv-x="1073" d="M-129 -418l41 219q56 -10 121 -10t108 25t78 84l64 110l-185 957l4 20h279l86 -672h6l361 672h294l-4 -20l-669 -1127q-165 -276 -422 -276q-81 0 -162 18z" />
<glyph unicode="z" horiz-adv-x="958" d="M-51 0l31 145l581 627v4h-418l45 211h770l-30 -145l-582 -627v-4h449l-45 -211h-801z" />
<glyph unicode="{" horiz-adv-x="743" d="M14 416l41 196q79 0 138.5 42.5t76.5 119.5l62 295q19 89 46 150.5t75 113t125 76.5t186 25h94l-31 -150q-114 0 -176.5 -56.5t-85.5 -164.5l-61 -293q-26 -122 -80.5 -184.5t-149.5 -79.5l-2 -4q89 -17 116 -79.5t1 -184.5l-57 -273q-23 -108 15.5 -164.5t152.5 -56.5 l-33 -150h-53q-145 0 -224 47.5t-94.5 137t10.5 219.5l54 256q17 77 -24.5 119.5t-121.5 42.5z" />
<glyph unicode="|" horiz-adv-x="456" d="M-72 -406l391 1840h181l-391 -1840h-181z" />
<glyph unicode="}" horiz-adv-x="745" d="M-141 -406l30 150q114 0 177 56.5t86 164.5l61 293q26 122 80 184.5t149 79.5l2 4q-89 17 -115.5 80t-0.5 185l57 272q23 108 -15.5 164.5t-152.5 56.5l33 150h53q145 0 223.5 -47.5t94 -137t-10.5 -219.5l-53 -256q-17 -77 24.5 -119.5t120.5 -42.5l-40 -196 q-80 0 -139.5 -42.5t-76.5 -119.5l-61 -295q-19 -89 -46 -150.5t-75 -113t-125 -76.5t-186 -25h-94z" />
<glyph unicode="~" horiz-adv-x="1144" d="M102 584q63 69 128.5 101t152.5 32q58 0 117 -17.5t100.5 -39t96 -39t104.5 -17.5q52 0 83.5 10t67.5 39l82 -129q-65 -69 -128.5 -100t-149.5 -31q-53 0 -111.5 17.5t-102 39t-100.5 39t-108 17.5q-92 0 -152 -51z" />
<glyph unicode="&#xa1;" horiz-adv-x="548" d="M-84 -406l66 310l184 592h180l-67 -592l-66 -310h-297zM154 805q0 91 61 152t154 61q66 0 102.5 -37.5t36.5 -101.5q0 -91 -61 -152t-154 -61q-66 0 -102.5 37.5t-36.5 101.5z" />
<glyph unicode="&#xa2;" d="M168 383q0 266 150 438.5t409 192.5l37 170h180l-39 -176q86 -14 174 -50l-78 -210q-8 2 -39 12t-54.5 16t-49.5 10l-125 -585q60 8 160 39l31 -211q-118 -43 -238 -56l-37 -170h-180l37 174q-163 26 -250.5 134t-87.5 272zM457 416q0 -144 100 -195l119 549 q-98 -33 -158.5 -122.5t-60.5 -231.5z" />
<glyph unicode="&#xa3;" d="M33 0l41 197q85 42 127 95t57 122q14 63 21 166h-144l45 211h115q7 67 31 190q48 225 181 333.5t370 108.5q94 0 192 -25t176 -67l-102 -225q-151 74 -299 74q-178 0 -221 -199q-17 -80 -27 -190h360l-45 -211h-329q-2 -43 -17 -115q-24 -122 -149 -223v-4h585l-49 -238 h-919z" />
<glyph unicode="&#xa4;" horiz-adv-x="1183" d="M-6 188l229 187q-18 56 -18 102q0 146 96 281l-135 186l168 131l139 -180q84 37 184 37q95 0 166 -47l232 188l123 -151l-230 -193q15 -51 15 -98q0 -148 -95 -273l138 -188l-164 -133l-146 182q-95 -45 -192 -45q-79 0 -160 45l-225 -184zM434 498q0 -64 28 -100t75 -36 q83 0 139.5 69.5t56.5 178.5q0 63 -28 98t-78 35q-77 0 -135 -69.5t-58 -175.5z" />
<glyph unicode="&#xa5;" d="M14 254l45 211h375l31 135h-377l45 211h256l-192 561l4 21h303l145 -533h4l373 533h320l-5 -21l-430 -561h252l-45 -211h-370l-29 -135h371l-46 -211h-370l-53 -254h-285l55 254h-377z" />
<glyph unicode="&#xa6;" horiz-adv-x="487" d="M-55 -406l145 680h180l-145 -680h-180zM190 754l146 680h180l-145 -680h-181z" />
<glyph unicode="&#xa7;" horiz-adv-x="1175" d="M-51 -242l108 228q216 -119 365 -119q237 0 237 129q0 73 -129 127l-215 92q-221 94 -221 277q0 197 228 301v4q-113 85 -113 221q0 194 145 299.5t412 105.5q223 0 385 -92l-107 -221q-166 78 -311 78q-114 0 -169.5 -37t-55.5 -98q0 -75 113 -121l180 -74 q142 -58 207 -132.5t65 -168.5q0 -189 -229 -303v-4q60 -36 88.5 -93t28.5 -122q0 -132 -72.5 -224t-197 -136t-292.5 -44q-129 0 -247.5 36t-202.5 91zM393 549q0 -80 80 -115l213 -90q86 51 86 145q0 42 -20 74t-56 47l-215 90q-40 -23 -64 -65t-24 -86z" />
<glyph unicode="&#xa8;" horiz-adv-x="1183" d="M483 1282q0 75 56 127.5t139 52.5q62 0 97.5 -34t35.5 -89q0 -76 -56.5 -128t-140.5 -52q-61 0 -96 34t-35 89zM928 1282q0 76 55.5 128t138.5 52q62 0 97.5 -34t35.5 -89q0 -76 -56 -128t-140 -52q-62 0 -96.5 34t-34.5 89z" />
<glyph unicode="&#xa9;" horiz-adv-x="1630" d="M111 571q0 173 72 332t190.5 272t276.5 180.5t325 67.5q175 0 312 -80t210.5 -216.5t73.5 -305.5q0 -173 -72 -332t-190.5 -272t-276.5 -180.5t-325 -67.5q-175 0 -312 80t-210.5 216.5t-73.5 305.5zM258 590q0 -209 130.5 -345t340.5 -136q138 0 266 56.5t222 150.5 t150 223.5t56 269.5q0 208 -125.5 341.5t-332.5 133.5q-138 0 -268 -55.5t-226.5 -148.5t-154.5 -222t-58 -268zM453 614q0 212 125 347t340 135q119 0 217 -49l-60 -148q-78 41 -170 41q-103 0 -179.5 -88t-76.5 -215q0 -83 41.5 -133.5t110.5 -50.5q91 0 188 41l37 -148 q-119 -49 -238 -49q-160 0 -247.5 87.5t-87.5 229.5z" />
<glyph unicode="&#xaa;" horiz-adv-x="776" d="M70 401l36 179h572l-39 -179h-569zM150 860q0 120 84 181t243 61h113l4 18q9 40 -9.5 58t-76.5 18q-102 0 -223 -41l-17 154q149 49 275 49q139 0 204 -71t39 -193l-79 -377h-148l-20 55h-2q-96 -74 -197 -74q-91 0 -140.5 46t-49.5 116zM356 897q0 -47 56 -47 q57 0 133 39l18 90h-92q-53 0 -84 -21.5t-31 -60.5z" />
<glyph unicode="&#xab;" horiz-adv-x="1097" d="M63 541l7 24l417 449l150 -115l-291 -362l129 -361l-182 -84zM510 541l6 24l418 449l149 -115l-290 -362l129 -361l-183 -84z" />
<glyph unicode="&#xac;" d="M57 451l45 211h1026l-96 -459h-188l51 248h-838z" />
<glyph unicode="&#xad;" horiz-adv-x="837" d="M98 451l45 211h584l-43 -211h-586z" />
<glyph unicode="&#xae;" horiz-adv-x="1087" d="M195 1075q0 111 46.5 213t123 173.5t178 114t207.5 42.5q170 0 276.5 -113.5t106.5 -279.5q0 -111 -47 -213t-123.5 -173.5t-178.5 -114t-209 -42.5q-170 0 -275 113t-105 280zM307 1083q0 -128 80 -211.5t209 -83.5q172 0 297 128.5t125 302.5q0 127 -76 208.5 t-203 81.5q-172 0 -302 -127.5t-130 -298.5zM436 932l94 446h199q69 0 104 -31.5t35 -84.5q0 -59 -34.5 -100t-96.5 -58l84 -162l-2 -10h-114l-76 164h-47l-35 -164h-111zM600 1186h84q32 0 51 17t19 42q0 39 -49 39h-82z" />
<glyph unicode="&#xaf;" horiz-adv-x="1181" d="M551 1186l45 211h584l-43 -211h-586z" />
<glyph unicode="&#xb0;" horiz-adv-x="897" d="M186 1018q0 182 123 293.5t307 111.5q140 0 222 -75.5t82 -202.5q0 -184 -123 -298t-308 -114q-140 0 -221.5 78t-81.5 207zM387 1047q0 -61 35.5 -93t97.5 -32q90 0 144.5 51.5t54.5 140.5q0 58 -34.5 91.5t-96.5 33.5q-86 0 -143.5 -53.5t-57.5 -138.5z" />
<glyph unicode="&#xb1;" d="M-29 0l45 211h1026l-43 -211h-1028zM115 676l45 211h403l84 395h219l-84 -395h406l-45 -211h-406l-63 -295h-217l61 295h-403z" />
<glyph unicode="&#xb2;" horiz-adv-x="667" d="M127 918l31 143l346 239q47 31 61.5 60t14.5 61q0 31 -18 51.5t-52 20.5q-45 0 -83.5 -21.5t-88.5 -64.5l-92 123q51 49 128.5 87t170.5 38q103 0 171 -54t68 -145q0 -88 -46 -149.5t-136 -122.5l-162 -107v-4h275l-33 -155h-555z" />
<glyph unicode="&#xb3;" horiz-adv-x="657" d="M127 958l68 152q77 -45 186 -45q145 0 145 90q0 25 -22.5 34t-75.5 9h-141l35 158h139q55 0 79.5 20.5t24.5 61.5q0 55 -86 55q-104 0 -188 -35l-33 150q128 47 250 47t192 -50t70 -135q0 -80 -45.5 -127t-106.5 -63v-2q47 -15 74 -50.5t27 -84.5q0 -242 -361 -242 q-138 0 -231 57z" />
<glyph unicode="&#xb4;" horiz-adv-x="1183" d="M608 1161l4 21l219 278h299l-4 -18l-268 -281h-250z" />
<glyph unicode="&#xb5;" horiz-adv-x="1183" d="M-76 -406l297 1393h277l-127 -594q-21 -100 6 -148t112 -48q41 0 88.5 18.5t71.5 33.5t60 40l151 698h277l-211 -987h-224l-16 96h-4q-87 -67 -132 -90q-74 -37 -149 -37q-58 0 -114 33l-86 -408h-277z" />
<glyph unicode="&#xb6;" horiz-adv-x="1222" d="M147 958q0 129 66 230t171 153t226 52h719l-37 -174h-190l-346 -1625h-178l346 1625h-170l-344 -1625h-181l228 1078q-137 0 -223.5 75.5t-86.5 210.5z" />
<glyph unicode="&#xb7;" horiz-adv-x="565" d="M109 559q0 91 61 152t154 61q66 0 102.5 -37.5t36.5 -101.5q0 -91 -61 -152t-154 -61q-66 0 -102.5 37.5t-36.5 101.5z" />
<glyph unicode="&#xb8;" horiz-adv-x="1183" d="M319 -412l46 129q46 -16 81 -16q80 0 80 59q0 47 -104 47l-6 13l116 194h162l-67 -106q52 -9 81 -44t29 -85q0 -100 -71 -157.5t-201 -57.5q-86 0 -146 24z" />
<glyph unicode="&#xb9;" horiz-adv-x="514" d="M195 1339l36 181l287 118h144l-154 -720h-189l111 512h-4l-213 -91h-18z" />
<glyph unicode="&#xba;" horiz-adv-x="790" d="M66 401l36 179h572l-39 -179h-569zM135 973q0 158 116.5 271.5t293.5 113.5q138 0 213.5 -79t75.5 -196q0 -158 -115 -271.5t-293 -113.5q-137 0 -214 79.5t-77 195.5zM342 983q0 -115 109 -115q80 0 129 49t49 158q0 113 -111 113q-76 0 -126 -49.5t-50 -155.5z" />
<glyph unicode="&#xbb;" horiz-adv-x="1097" d="M4 207l291 362l-129 361l182 84l230 -449l-7 -24l-417 -449zM451 207l290 362l-129 361l183 84l229 -449l-6 -24l-418 -449z" />
<glyph unicode="&#xbc;" horiz-adv-x="1527" d="M41 0l4 20l1208 1373h222l-5 -21l-1208 -1372h-221zM176 1094l37 180l287 119h143l-154 -721h-188l111 512h-4l-213 -90h-19zM762 154l29 139l272 428h194l-247 -410v-2h131l39 191h186l-41 -191h84l-33 -155h-84l-32 -154h-185l33 154h-346z" />
<glyph unicode="&#xbd;" horiz-adv-x="1560" d="M39 0l4 20l1208 1373h222l-5 -21l-1208 -1372h-221zM174 1094l37 180l287 119h143l-154 -721h-188l111 512h-4l-213 -90h-19zM807 0l31 143l346 240q47 31 61.5 60t14.5 61q0 31 -18 51t-52 20q-45 0 -83.5 -21.5t-88.5 -64.5l-92 123q51 49 128.5 87t170.5 38 q103 0 171 -53.5t68 -144.5q0 -88 -46 -150t-136 -123l-162 -106v-4h275l-33 -156h-555z" />
<glyph unicode="&#xbe;" horiz-adv-x="1603" d="M106 707l68 151q77 -45 186 -45q146 0 146 90q0 25 -22.5 34t-75.5 9h-142l35 158h139q105 0 105 82q0 55 -86 55q-105 0 -189 -35l-32 150q128 47 249 47q123 0 193 -49.5t70 -134.5q0 -80 -45.5 -127.5t-106.5 -63.5v-2q46 -15 73 -50.5t27 -84.5q0 -242 -360 -242 q-138 0 -232 58zM119 0l4 20l1208 1373h221l-4 -21l-1208 -1372h-221zM838 154l28 139l273 428h194l-248 -410v-2h132l38 191h187l-41 -191h84l-33 -155h-84l-33 -154h-184l33 154h-346z" />
<glyph unicode="&#xbf;" horiz-adv-x="1044" d="M-68 -113q0 79 30 150.5t74 122t107 95.5t115.5 72.5t112.5 51.5l49 117h223l-45 -265q-163 -47 -260.5 -122t-97.5 -172q0 -55 37.5 -92.5t105.5 -37.5q83 0 155.5 38t155.5 108l127 -191q-82 -76 -210 -137t-267 -61q-193 0 -302.5 87.5t-109.5 235.5zM426 805 q0 91 62 152t155 61q66 0 102.5 -37.5t36.5 -101.5q0 -91 -61 -152t-154 -61q-67 0 -104 37.5t-37 101.5z" />
<glyph unicode="&#xc0;" horiz-adv-x="1343" d="M-119 0l797 1393h334l205 -1393h-304l-28 287h-531l-151 -287h-322zM481 516h373l-59 586h-7zM664 1817l4 18h303l59 -279l-4 -20h-254z" />
<glyph unicode="&#xc1;" horiz-adv-x="1343" d="M-119 0l797 1393h334l205 -1393h-304l-28 287h-531l-151 -287h-322zM481 516h373l-59 586h-7zM717 1536l4 20l178 279h320l-5 -18l-227 -281h-270z" />
<glyph unicode="&#xc2;" horiz-adv-x="1343" d="M-119 0l797 1393h334l205 -1393h-304l-28 287h-531l-151 -287h-322zM481 516h373l-59 586h-7zM516 1536l4 20l285 279h258l164 -279l-4 -20h-219l-93 162l-159 -162h-236z" />
<glyph unicode="&#xc3;" horiz-adv-x="1343" d="M-119 0l797 1393h334l205 -1393h-304l-28 287h-531l-151 -287h-322zM481 516h373l-59 586h-7zM551 1702q46 60 109 97.5t126 37.5q50 0 98 -23t93.5 -46t89.5 -23q41 0 85 19.5t75 50.5l33 -140q-49 -65 -109.5 -101t-118.5 -36q-50 0 -103 23t-100.5 46t-85.5 23 q-88 0 -159 -71z" />
<glyph unicode="&#xc4;" horiz-adv-x="1343" d="M-119 0l797 1393h334l205 -1393h-304l-28 287h-531l-151 -287h-322zM477 1649q0 75 56 127.5t139 52.5q62 0 97.5 -34t35.5 -89q0 -76 -56.5 -128t-140.5 -52q-61 0 -96 34t-35 89zM481 516h373l-59 586h-7zM1006 1649q0 76 55.5 128t138.5 52q62 0 97.5 -34t35.5 -89 q0 -76 -56 -128t-140 -52q-61 0 -96 34t-35 89z" />
<glyph unicode="&#xc5;" horiz-adv-x="1339" d="M-121 0l799 1360q-57 54 -57 141q0 121 83 194.5t207 73.5q99 0 156 -52.5t57 -139.5q0 -76 -34.5 -135t-94.5 -94l219 -1348h-303l-28 287h-531l-151 -287h-322zM479 516h373l-59 586h-7zM786 1524q0 -30 18.5 -47t51.5 -17q45 0 73.5 26t28.5 70q0 29 -18 46.5 t-49 17.5q-45 0 -75 -27t-30 -69z" />
<glyph unicode="&#xc6;" horiz-adv-x="1929" d="M-164 0l4 20l1100 1373h1049l-52 -238h-632l-72 -334h567l-49 -237h-567l-74 -346h639l-49 -238h-926l62 287h-469l-226 -287h-305zM545 516h340l127 598h-6z" />
<glyph unicode="&#xc7;" horiz-adv-x="1232" d="M109 532q0 185 55.5 347t158.5 283t260 191t349 70q196 0 368 -90l-102 -225q-77 39 -145 55.5t-152 16.5q-147 0 -260.5 -85t-172 -225t-58.5 -309q0 -160 72.5 -254t211.5 -94q85 0 160 16.5t170 55.5l47 -226q-202 -87 -399 -90l-39 -61q52 -9 81 -44t29 -85 q0 -100 -71 -157.5t-201 -57.5q-85 0 -145 24l45 129q46 -16 82 -16q79 0 79 59q0 47 -104 47l-6 13l96 164q-196 38 -302.5 182t-106.5 366z" />
<glyph unicode="&#xc8;" horiz-adv-x="1191" d="M37 0l297 1393h917l-51 -238h-633l-71 -334h567l-51 -237h-568l-73 -346h641l-51 -238h-924zM604 1817l4 18h303l60 -279l-4 -20h-254z" />
<glyph unicode="&#xc9;" horiz-adv-x="1191" d="M37 0l297 1393h917l-51 -238h-633l-71 -334h567l-51 -237h-568l-73 -346h641l-51 -238h-924zM692 1536l4 20l178 279h320l-4 -18l-227 -281h-271z" />
<glyph unicode="&#xca;" horiz-adv-x="1191" d="M37 0l297 1393h917l-51 -238h-633l-71 -334h567l-51 -237h-568l-73 -346h641l-51 -238h-924zM467 1536l4 20l285 279h258l164 -279l-4 -20h-220l-92 162l-160 -162h-235z" />
<glyph unicode="&#xcb;" horiz-adv-x="1191" d="M37 0l297 1393h917l-51 -238h-633l-71 -334h567l-51 -237h-568l-73 -346h641l-51 -238h-924zM420 1649q0 76 55.5 128t138.5 52q62 0 98 -34t36 -89q0 -76 -56.5 -128t-140.5 -52q-61 0 -96 34t-35 89zM948 1649q0 75 56 127.5t139 52.5q62 0 97.5 -34t35.5 -89 q0 -76 -56.5 -128t-140.5 -52q-61 0 -96 34t-35 89z" />
<glyph unicode="&#xcc;" horiz-adv-x="604" d="M37 0l297 1393h282l-294 -1393h-285zM279 1817l4 18h303l59 -279l-4 -20h-254z" />
<glyph unicode="&#xcd;" horiz-adv-x="604" d="M37 0l297 1393h282l-294 -1393h-285zM369 1536l4 20l178 279h319l-4 -18l-227 -281h-270z" />
<glyph unicode="&#xce;" horiz-adv-x="604" d="M37 0l297 1393h282l-294 -1393h-285zM152 1536l4 20l284 279h258l164 -279l-4 -20h-219l-92 162l-160 -162h-235z" />
<glyph unicode="&#xcf;" horiz-adv-x="604" d="M37 0l297 1393h282l-294 -1393h-285zM104 1649q0 75 56 127.5t139 52.5q62 0 97.5 -34t35.5 -89q0 -76 -56 -128t-140 -52q-61 0 -96.5 34t-35.5 89zM633 1649q0 76 55.5 128t138.5 52q62 0 98 -34t36 -89q0 -76 -56.5 -128t-140.5 -52q-61 0 -96 34t-35 89z" />
<glyph unicode="&#xd0;" horiz-adv-x="1409" d="M37 0l121 567h-99l52 238h98l125 588h409q598 0 598 -508q0 -201 -41 -354t-113.5 -253t-181 -163t-234.5 -89t-284 -26h-450zM371 238h121q109 0 192 18.5t152 62.5t113.5 115t68.5 177.5t24 248.5q0 153 -81 224t-275 71h-119l-75 -350h225l-49 -238h-228z" />
<glyph unicode="&#xd1;" horiz-adv-x="1486" d="M37 0l297 1393h299l368 -971h7l206 971h285l-297 -1393h-301l-369 971h-6l-204 -971h-285zM610 1702q46 60 109 97.5t127 37.5q50 0 98 -23t93 -46t89 -23q41 0 85 19.5t75 50.5l33 -140q-49 -65 -109 -101t-118 -36q-50 0 -103 23t-100.5 46t-85.5 23q-89 0 -160 -71z " />
<glyph unicode="&#xd2;" horiz-adv-x="1536" d="M109 528q0 137 30.5 265.5t96.5 243.5t160.5 200.5t231.5 135.5t300 50q135 0 241 -42t172.5 -118t101 -177.5t34.5 -223.5q0 -137 -31 -265.5t-97.5 -243t-161 -199.5t-230.5 -135t-298 -50q-137 0 -243 42t-172.5 118t-100.5 177t-34 222zM408 547q0 -152 69 -243 t215 -91q107 0 192.5 40t139 103.5t89.5 148.5t50.5 169.5t14.5 171.5q0 73 -15.5 132.5t-48.5 105.5t-88 71t-129 25q-108 0 -194.5 -40t-140 -104t-89.5 -149t-50.5 -169t-14.5 -171zM778 1817l4 18h303l60 -279l-4 -20h-254z" />
<glyph unicode="&#xd3;" horiz-adv-x="1536" d="M109 528q0 137 30.5 265.5t96.5 243.5t160.5 200.5t231.5 135.5t300 50q135 0 241 -42t172.5 -118t101 -177.5t34.5 -223.5q0 -137 -31 -265.5t-97.5 -243t-161 -199.5t-230.5 -135t-298 -50q-137 0 -243 42t-172.5 118t-100.5 177t-34 222zM408 547q0 -152 69 -243 t215 -91q107 0 192.5 40t139 103.5t89.5 148.5t50.5 169.5t14.5 171.5q0 73 -15.5 132.5t-48.5 105.5t-88 71t-129 25q-108 0 -194.5 -40t-140 -104t-89.5 -149t-50.5 -169t-14.5 -171zM831 1536l5 20l178 279h319l-4 -18l-227 -281h-271z" />
<glyph unicode="&#xd4;" horiz-adv-x="1536" d="M109 528q0 137 30.5 265.5t96.5 243.5t160.5 200.5t231.5 135.5t300 50q135 0 241 -42t172.5 -118t101 -177.5t34.5 -223.5q0 -137 -31 -265.5t-97.5 -243t-161 -199.5t-230.5 -135t-298 -50q-137 0 -243 42t-172.5 118t-100.5 177t-34 222zM408 547q0 -152 69 -243 t215 -91q107 0 192.5 40t139 103.5t89.5 148.5t50.5 169.5t14.5 171.5q0 73 -15.5 132.5t-48.5 105.5t-88 71t-129 25q-108 0 -194.5 -40t-140 -104t-89.5 -149t-50.5 -169t-14.5 -171zM625 1536l4 20l284 279h258l164 -279l-4 -20h-219l-92 162l-160 -162h-235z" />
<glyph unicode="&#xd5;" horiz-adv-x="1536" d="M109 528q0 137 30.5 265.5t96.5 243.5t160.5 200.5t231.5 135.5t300 50q135 0 241 -42t172.5 -118t101 -177.5t34.5 -223.5q0 -137 -31 -265.5t-97.5 -243t-161 -199.5t-230.5 -135t-298 -50q-137 0 -243 42t-172.5 118t-100.5 177t-34 222zM408 547q0 -152 69 -243 t215 -91q107 0 192.5 40t139 103.5t89.5 148.5t50.5 169.5t14.5 171.5q0 73 -15.5 132.5t-48.5 105.5t-88 71t-129 25q-108 0 -194.5 -40t-140 -104t-89.5 -149t-50.5 -169t-14.5 -171zM651 1702q46 60 109 97.5t127 37.5q50 0 98 -23t93 -46t89 -23q41 0 85 19.5t75 50.5 l33 -140q-49 -65 -109 -101t-118 -36q-50 0 -103 23t-100.5 46t-85.5 23q-89 0 -160 -71z" />
<glyph unicode="&#xd6;" horiz-adv-x="1536" d="M109 528q0 137 30.5 265.5t96.5 243.5t160.5 200.5t231.5 135.5t300 50q135 0 241 -42t172.5 -118t101 -177.5t34.5 -223.5q0 -137 -31 -265.5t-97.5 -243t-161 -199.5t-230.5 -135t-298 -50q-137 0 -243 42t-172.5 118t-100.5 177t-34 222zM408 547q0 -152 69 -243 t215 -91q107 0 192.5 40t139 103.5t89.5 148.5t50.5 169.5t14.5 171.5q0 73 -15.5 132.5t-48.5 105.5t-88 71t-129 25q-108 0 -194.5 -40t-140 -104t-89.5 -149t-50.5 -169t-14.5 -171zM578 1649q0 76 55.5 128t138.5 52q62 0 97.5 -34t35.5 -89q0 -76 -56 -128t-140 -52 q-61 0 -96 34t-35 89zM1106 1649q0 76 55.5 128t138.5 52q62 0 98 -34t36 -89q0 -76 -56.5 -128t-140.5 -52q-61 0 -96 34t-35 89z" />
<glyph unicode="&#xd7;" d="M45 219l410 342l-258 336l168 141l258 -338l409 344l123 -155l-412 -344l254 -332l-166 -141l-256 331l-407 -340z" />
<glyph unicode="&#xd8;" horiz-adv-x="1536" d="M86 43l119 135q-96 137 -96 350q0 137 30.5 265.5t96.5 243.5t160.5 200.5t231.5 135.5t300 50q181 0 307 -75l104 120l138 -118l-109 -123q109 -145 109 -365q0 -137 -31 -265.5t-97.5 -243t-161 -199.5t-230.5 -135t-298 -50q-188 0 -323 82l-109 -125zM408 547 q0 -67 12 -123l631 717q-61 39 -154 39q-108 0 -194.5 -40t-140 -104t-89.5 -149t-50.5 -169t-14.5 -171zM520 260q65 -47 172 -47t192.5 40t139 103.5t89.5 148.5t50.5 169.5t14.5 171.5q0 73 -19 141z" />
<glyph unicode="&#xd9;" horiz-adv-x="1427" d="M150 594l167 799h285l-174 -822q-75 -358 209 -358q147 0 235 96.5t123 261.5l174 822h285l-184 -865q-28 -131 -78 -230.5t-129 -175t-194.5 -114.5t-264.5 -39q-294 0 -406 163t-48 462zM700 1817l5 18h303l59 -279l-4 -20h-254z" />
<glyph unicode="&#xda;" horiz-adv-x="1427" d="M150 594l167 799h285l-174 -822q-75 -358 209 -358q147 0 235 96.5t123 261.5l174 822h285l-184 -865q-28 -131 -78 -230.5t-129 -175t-194.5 -114.5t-264.5 -39q-294 0 -406 163t-48 462zM778 1536l4 20l179 279h319l-4 -18l-227 -281h-271z" />
<glyph unicode="&#xdb;" horiz-adv-x="1427" d="M150 594l167 799h285l-174 -822q-75 -358 209 -358q147 0 235 96.5t123 261.5l174 822h285l-184 -865q-28 -131 -78 -230.5t-129 -175t-194.5 -114.5t-264.5 -39q-294 0 -406 163t-48 462zM557 1536l4 20l285 279h258l164 -279l-4 -20h-220l-92 162l-159 -162h-236z" />
<glyph unicode="&#xdc;" horiz-adv-x="1427" d="M150 594l167 799h285l-174 -822q-75 -358 209 -358q147 0 235 96.5t123 261.5l174 822h285l-184 -865q-28 -131 -78 -230.5t-129 -175t-194.5 -114.5t-264.5 -39q-294 0 -406 163t-48 462zM516 1649q0 75 56 127.5t139 52.5q62 0 97.5 -34t35.5 -89q0 -76 -56.5 -128 t-140.5 -52q-61 0 -96 34t-35 89zM1044 1649q0 75 56 127.5t139 52.5q62 0 97.5 -34t35.5 -89q0 -76 -56 -128t-140 -52q-61 0 -96.5 34t-35.5 89z" />
<glyph unicode="&#xdd;" horiz-adv-x="1216" d="M162 1372l4 21h301l178 -574h4l424 574h320l-4 -21l-644 -811l-118 -561h-285l121 561zM662 1536l4 20l178 279h319l-4 -18l-227 -281h-270z" />
<glyph unicode="&#xde;" horiz-adv-x="1226" d="M37 0l297 1393h282l-45 -217h217q202 0 301 -98t99 -259q0 -92 -18.5 -173.5t-61 -154.5t-105.5 -125.5t-158 -83t-212 -30.5h-258l-53 -252h-285zM426 489h217q65 0 113.5 25.5t75.5 69t40 93t13 103.5q0 73 -36.5 115.5t-111.5 42.5h-217z" />
<glyph unicode="&#xdf;" horiz-adv-x="1284" d="M8 0l199 936q53 250 208.5 379t387.5 129q180 0 290.5 -91.5t110.5 -250.5q0 -130 -65 -217.5t-164 -132.5v-4q83 -33 138.5 -111.5t55.5 -183.5q0 -229 -151 -356.5t-451 -127.5q-83 0 -137 13l47 225q55 -10 111 -10q158 0 228.5 69.5t70.5 200.5q0 164 -225 164h-56 l45 211h51q95 0 153 64t58 167q0 67 -42.5 105.5t-122.5 38.5q-96 0 -165 -66t-100 -209l-200 -942h-275z" />
<glyph unicode="&#xe0;" horiz-adv-x="1206" d="M55 373q0 99 22 193.5t66.5 176t105.5 143t145.5 97t180.5 35.5q51 0 97 -10.5t83.5 -31.5t60.5 -37t52 -40h4l58 88h203l-166 -772q-5 -23 -2 -30t24 -7h72l-39 -188q-84 -15 -148 -15q-77 0 -118 27.5t-56 85.5h-4q-141 -119 -301 -119q-86 0 -152.5 32t-106.5 88 t-60.5 128t-20.5 156zM342 406q0 -209 168 -209q94 0 197 67l100 475q-74 52 -170 52q-76 0 -134 -32t-92.5 -87t-51.5 -122.5t-17 -143.5zM463 1442l4 18h281l102 -278l-4 -21h-234z" />
<glyph unicode="&#xe1;" horiz-adv-x="1206" d="M55 373q0 99 22 193.5t66.5 176t105.5 143t145.5 97t180.5 35.5q51 0 97 -10.5t83.5 -31.5t60.5 -37t52 -40h4l58 88h203l-166 -772q-5 -23 -2 -30t24 -7h72l-39 -188q-84 -15 -148 -15q-77 0 -118 27.5t-56 85.5h-4q-141 -119 -301 -119q-86 0 -152.5 32t-106.5 88 t-60.5 128t-20.5 156zM342 406q0 -209 168 -209q94 0 197 67l100 475q-74 52 -170 52q-76 0 -134 -32t-92.5 -87t-51.5 -122.5t-17 -143.5zM571 1161l4 21l220 278h299l-4 -18l-269 -281h-250z" />
<glyph unicode="&#xe2;" horiz-adv-x="1206" d="M55 373q0 99 22 193.5t66.5 176t105.5 143t145.5 97t180.5 35.5q51 0 97 -10.5t83.5 -31.5t60.5 -37t52 -40h4l58 88h203l-166 -772q-5 -23 -2 -30t24 -7h72l-39 -188q-84 -15 -148 -15q-77 0 -118 27.5t-56 85.5h-4q-141 -119 -301 -119q-86 0 -152.5 32t-106.5 88 t-60.5 128t-20.5 156zM342 406q0 -209 168 -209q94 0 197 67l100 475q-74 52 -170 52q-76 0 -134 -32t-92.5 -87t-51.5 -122.5t-17 -143.5zM375 1161l4 21l242 278h301l122 -278l-4 -21h-221l-76 142l-133 -142h-235z" />
<glyph unicode="&#xe3;" horiz-adv-x="1206" d="M55 373q0 99 22 193.5t66.5 176t105.5 143t145.5 97t180.5 35.5q51 0 97 -10.5t83.5 -31.5t60.5 -37t52 -40h4l58 88h203l-166 -772q-5 -23 -2 -30t24 -7h72l-39 -188q-84 -15 -148 -15q-77 0 -118 27.5t-56 85.5h-4q-141 -119 -301 -119q-86 0 -152.5 32t-106.5 88 t-60.5 128t-20.5 156zM342 406q0 -209 168 -209q94 0 197 67l100 475q-74 52 -170 52q-76 0 -134 -32t-92.5 -87t-51.5 -122.5t-17 -143.5zM387 1325q46 60 109 97.5t127 37.5q50 0 98 -23t93 -46t89 -23q41 0 85 19.5t75 50.5l33 -140q-49 -65 -109.5 -101t-118.5 -36 q-50 0 -103 23t-100 46t-85 23q-89 0 -160 -71z" />
<glyph unicode="&#xe4;" horiz-adv-x="1206" d="M55 373q0 99 22 193.5t66.5 176t105.5 143t145.5 97t180.5 35.5q51 0 97 -10.5t83.5 -31.5t60.5 -37t52 -40h4l58 88h203l-166 -772q-5 -23 -2 -30t24 -7h72l-39 -188q-84 -15 -148 -15q-77 0 -118 27.5t-56 85.5h-4q-141 -119 -301 -119q-86 0 -152.5 32t-106.5 88 t-60.5 128t-20.5 156zM342 406q0 -209 168 -209q94 0 197 67l100 475q-74 52 -170 52q-76 0 -134 -32t-92.5 -87t-51.5 -122.5t-17 -143.5zM360 1282q0 75 56 127.5t139 52.5q62 0 97.5 -34t35.5 -89q0 -76 -56 -128t-140 -52q-61 0 -96.5 34t-35.5 89zM805 1282 q0 76 55.5 128t138.5 52q62 0 98 -34t36 -89q0 -76 -56.5 -128t-140.5 -52q-62 0 -96.5 34t-34.5 89z" />
<glyph unicode="&#xe5;" horiz-adv-x="1206" d="M55 373q0 99 22 193.5t66.5 176t105.5 143t145.5 97t180.5 35.5q51 0 97 -10.5t83.5 -31.5t60.5 -37t52 -40h4l58 88h203l-166 -772q-5 -23 -2 -30t24 -7h72l-39 -188q-84 -15 -148 -15q-77 0 -118 27.5t-56 85.5h-4q-141 -119 -301 -119q-86 0 -152.5 32t-106.5 88 t-60.5 128t-20.5 156zM342 406q0 -209 168 -209q94 0 197 67l100 475q-74 52 -170 52q-76 0 -134 -32t-92.5 -87t-51.5 -122.5t-17 -143.5zM494 1278q0 121 83 194.5t207 73.5q99 0 156 -52.5t57 -139.5q0 -122 -82 -195.5t-208 -73.5q-99 0 -156 53t-57 140zM659 1300 q0 -30 18.5 -46.5t51.5 -16.5q45 0 73.5 26t28.5 70q0 29 -18 46.5t-49 17.5q-45 0 -75 -27.5t-30 -69.5z" />
<glyph unicode="&#xe6;" horiz-adv-x="1683" d="M2 236q0 364 490 364h200l10 49q5 21 5 39t-4 31t-9.5 23.5t-16 18t-19 13t-22.5 8.5t-23 5t-23.5 3t-20.5 1h-18q-152 0 -326 -72l-39 211q212 88 406 88q212 0 299 -133q70 60 159.5 96.5t186.5 36.5q187 0 287 -94t100 -238q0 -75 -19.5 -149.5t-43.5 -122.5h-633 q-11 -108 36 -166t152 -58q124 0 311 68l43 -205q-189 -84 -389 -84q-239 0 -342 176q-92 -83 -190 -129.5t-244 -46.5q-142 0 -222.5 76.5t-80.5 190.5zM268 270q0 -88 103 -88q93 0 178.5 67.5t107.5 172.5h-178q-211 0 -211 -152zM961 586h401q14 40 14 82 q0 149 -162 149q-94 0 -161 -67t-92 -164z" />
<glyph unicode="&#xe7;" horiz-adv-x="978" d="M53 383q0 185 74.5 328.5t217 225t333.5 81.5q150 0 287 -60l-78 -210q-2 1 -16 5.5t-18 6t-17 5.5l-19.5 6t-19.5 5.5t-21.5 5t-21 3.5t-23.5 3t-23.5 2t-25.5 1q-67 0 -126.5 -22.5t-108 -66.5t-77 -117.5t-28.5 -168.5q0 -112 58.5 -165.5t156.5 -53.5q80 0 221 43 l31 -211q-156 -57 -301 -60l-39 -61q52 -9 81.5 -44t29.5 -85q0 -100 -71.5 -157.5t-201.5 -57.5q-85 0 -145 24l45 129q46 -16 82 -16q80 0 80 59q0 47 -105 47l-6 13l98 164q-147 33 -225 138.5t-78 260.5z" />
<glyph unicode="&#xe8;" horiz-adv-x="1099" d="M51 387q0 123 42 237t117.5 201.5t188 140t244.5 52.5q99 0 176 -28t124 -76.5t71 -110.5t24 -133q0 -123 -65 -256h-643q-2 -10 -2 -37q0 -90 49.5 -138.5t144.5 -48.5q142 0 320 68l43 -205q-189 -84 -410 -84q-105 0 -187.5 33t-133.5 90.5t-77 132.5t-26 162z M367 586h405q14 40 14 82q0 149 -163 149q-96 0 -163.5 -67t-92.5 -164zM475 1442l4 18h281l102 -278l-4 -21h-233z" />
<glyph unicode="&#xe9;" horiz-adv-x="1099" d="M51 387q0 123 42 237t117.5 201.5t188 140t244.5 52.5q99 0 176 -28t124 -76.5t71 -110.5t24 -133q0 -123 -65 -256h-643q-2 -10 -2 -37q0 -90 49.5 -138.5t144.5 -48.5q142 0 320 68l43 -205q-189 -84 -410 -84q-105 0 -187.5 33t-133.5 90.5t-77 132.5t-26 162z M367 586h405q14 40 14 82q0 149 -163 149q-96 0 -163.5 -67t-92.5 -164zM575 1161l5 21l219 278h299l-4 -18l-269 -281h-250z" />
<glyph unicode="&#xea;" horiz-adv-x="1099" d="M51 387q0 123 42 237t117.5 201.5t188 140t244.5 52.5q99 0 176 -28t124 -76.5t71 -110.5t24 -133q0 -123 -65 -256h-643q-2 -10 -2 -37q0 -90 49.5 -138.5t144.5 -48.5q142 0 320 68l43 -205q-189 -84 -410 -84q-105 0 -187.5 33t-133.5 90.5t-77 132.5t-26 162z M367 586h405q14 40 14 82q0 149 -163 149q-96 0 -163.5 -67t-92.5 -164zM373 1161l4 21l241 278h302l122 -278l-4 -21h-221l-76 142l-133 -142h-235z" />
<glyph unicode="&#xeb;" horiz-adv-x="1099" d="M51 387q0 123 42 237t117.5 201.5t188 140t244.5 52.5q99 0 176 -28t124 -76.5t71 -110.5t24 -133q0 -123 -65 -256h-643q-2 -10 -2 -37q0 -90 49.5 -138.5t144.5 -48.5q142 0 320 68l43 -205q-189 -84 -410 -84q-105 0 -187.5 33t-133.5 90.5t-77 132.5t-26 162z M350 1282q0 75 56 127.5t139 52.5q62 0 97.5 -34t35.5 -89q0 -76 -56.5 -128t-140.5 -52q-61 0 -96 34t-35 89zM367 586h405q14 40 14 82q0 149 -163 149q-96 0 -163.5 -67t-92.5 -164zM795 1282q0 76 55.5 128t138.5 52q62 0 97.5 -34t35.5 -89q0 -76 -56 -128t-140 -52 q-62 0 -96.5 34t-34.5 89z" />
<glyph unicode="&#xec;" horiz-adv-x="538" d="M8 0l209 987h277l-209 -987h-277zM137 1442l4 18h281l102 -278l-4 -21h-233z" />
<glyph unicode="&#xed;" horiz-adv-x="536" d="M8 0l209 987h277l-209 -987h-277zM258 1161l4 21l219 278h299l-4 -18l-268 -281h-250z" />
<glyph unicode="&#xee;" horiz-adv-x="536" d="M8 0l209 987h277l-209 -987h-277zM53 1161l4 21l242 278h301l123 -278l-4 -21h-221l-76 142l-133 -142h-236z" />
<glyph unicode="&#xef;" horiz-adv-x="536" d="M8 0l209 987h277l-209 -987h-277zM39 1282q0 76 55.5 128t138.5 52q62 0 98 -34t36 -89q0 -76 -56.5 -128t-140.5 -52q-61 0 -96 34t-35 89zM483 1282q0 75 56 127.5t139 52.5q62 0 97.5 -34t35.5 -89q0 -76 -56.5 -128t-140.5 -52q-62 0 -96.5 34t-34.5 89z" />
<glyph unicode="&#xf0;" horiz-adv-x="1210" d="M53 387q0 126 43 237.5t116 190.5t173.5 124.5t212.5 45.5q141 0 238 -74l2 4q-12 44 -40.5 110.5t-58.5 109.5l-247 -66l-13 148l178 47q-7 10 -23.5 36t-27 41.5t-25.5 36.5t-28 35l4 21h270q7 -12 28 -46t30 -51l209 47l6 -147l-131 -35q63 -126 107 -289t44 -303 q0 -131 -40.5 -246t-117 -203.5t-197 -140t-269.5 -51.5q-212 0 -327.5 118.5t-115.5 299.5zM336 403q0 -97 47.5 -150.5t140.5 -53.5q156 0 235 102t79 260q0 94 -48.5 144.5t-146.5 50.5q-150 0 -228.5 -97t-78.5 -256z" />
<glyph unicode="&#xf1;" horiz-adv-x="1177" d="M8 0l209 987h223l17 -96h4q42 35 76 58t100 46t137 23q172 0 251 -112t38 -304l-129 -602h-275l127 594q41 197 -129 197q-102 0 -225 -93l-147 -698h-277zM395 1325q46 60 109 97.5t127 37.5q50 0 98 -23t93 -46t89 -23q41 0 85 19.5t75 50.5l33 -140q-49 -65 -109 -101 t-118 -36q-50 0 -103 23t-100.5 46t-85.5 23q-89 0 -160 -71z" />
<glyph unicode="&#xf2;" horiz-adv-x="1193" d="M51 395q0 123 44 235.5t122.5 199t196 137.5t254.5 51q107 0 191.5 -34t137.5 -92.5t81 -134.5t28 -163q0 -123 -43 -236t-120.5 -199.5t-196 -138t-259.5 -51.5q-105 0 -189.5 34t-137.5 92.5t-81 135t-28 164.5zM336 410q0 -104 47.5 -158.5t130.5 -54.5q135 0 221 103 t86 278q0 104 -47.5 158.5t-132.5 54.5q-132 0 -218.5 -103t-86.5 -278zM461 1442l4 18h280l103 -278l-4 -21h-234z" />
<glyph unicode="&#xf3;" horiz-adv-x="1193" d="M51 395q0 123 44 235.5t122.5 199t196 137.5t254.5 51q107 0 191.5 -34t137.5 -92.5t81 -134.5t28 -163q0 -123 -43 -236t-120.5 -199.5t-196 -138t-259.5 -51.5q-105 0 -189.5 34t-137.5 92.5t-81 135t-28 164.5zM336 410q0 -104 47.5 -158.5t130.5 -54.5q135 0 221 103 t86 278q0 104 -47.5 158.5t-132.5 54.5q-132 0 -218.5 -103t-86.5 -278zM592 1161l4 21l219 278h299l-4 -18l-268 -281h-250z" />
<glyph unicode="&#xf4;" horiz-adv-x="1193" d="M51 395q0 123 44 235.5t122.5 199t196 137.5t254.5 51q107 0 191.5 -34t137.5 -92.5t81 -134.5t28 -163q0 -123 -43 -236t-120.5 -199.5t-196 -138t-259.5 -51.5q-105 0 -189.5 34t-137.5 92.5t-81 135t-28 164.5zM336 410q0 -104 47.5 -158.5t130.5 -54.5q135 0 221 103 t86 278q0 104 -47.5 158.5t-132.5 54.5q-132 0 -218.5 -103t-86.5 -278zM379 1161l4 21l242 278h301l123 -278l-5 -21h-221l-75 142l-134 -142h-235z" />
<glyph unicode="&#xf5;" horiz-adv-x="1193" d="M51 395q0 123 44 235.5t122.5 199t196 137.5t254.5 51q107 0 191.5 -34t137.5 -92.5t81 -134.5t28 -163q0 -123 -43 -236t-120.5 -199.5t-196 -138t-259.5 -51.5q-105 0 -189.5 34t-137.5 92.5t-81 135t-28 164.5zM336 410q0 -104 47.5 -158.5t130.5 -54.5q135 0 221 103 t86 278q0 104 -47.5 158.5t-132.5 54.5q-132 0 -218.5 -103t-86.5 -278zM391 1325q46 60 109 97.5t127 37.5q50 0 98 -23t93 -46t89 -23q41 0 85 19.5t75 50.5l33 -140q-49 -65 -109.5 -101t-118.5 -36q-50 0 -103 23t-100 46t-85 23q-89 0 -160 -71z" />
<glyph unicode="&#xf6;" horiz-adv-x="1193" d="M51 395q0 123 44 235.5t122.5 199t196 137.5t254.5 51q107 0 191.5 -34t137.5 -92.5t81 -134.5t28 -163q0 -123 -43 -236t-120.5 -199.5t-196 -138t-259.5 -51.5q-105 0 -189.5 34t-137.5 92.5t-81 135t-28 164.5zM336 410q0 -104 47.5 -158.5t130.5 -54.5q135 0 221 103 t86 278q0 104 -47.5 158.5t-132.5 54.5q-132 0 -218.5 -103t-86.5 -278zM371 1282q0 76 55.5 128t138.5 52q62 0 97.5 -34t35.5 -89q0 -76 -56 -128t-140 -52q-61 0 -96 34t-35 89zM815 1282q0 75 56 127.5t139 52.5q62 0 97.5 -34t35.5 -89q0 -76 -56.5 -128t-140.5 -52 q-62 0 -96.5 34t-34.5 89z" />
<glyph unicode="&#xf7;" d="M63 451l46 211h1026l-43 -211h-1029zM334 109q0 91 61.5 152t153.5 61q67 0 104 -38t37 -102q0 -91 -61 -152t-154 -61q-67 0 -104 38t-37 102zM512 940q0 91 61 152t154 61q66 0 102.5 -37.5t36.5 -101.5q0 -91 -61 -152t-154 -61q-66 0 -102.5 37.5t-36.5 101.5z" />
<glyph unicode="&#xf8;" horiz-adv-x="1193" d="M8 51l105 105q-62 106 -62 239q0 123 44 235.5t122.5 199t196 137.5t254.5 51q139 0 247 -64l101 101l123 -119l-101 -100q68 -106 68 -242q0 -123 -43 -236t-120.5 -199.5t-196 -138t-259.5 -51.5q-145 0 -254 66l-108 -109zM326 369l413 411q-48 23 -96 23 q-136 0 -226.5 -107.5t-90.5 -289.5v-37zM412 211q41 -27 100 -27q140 0 229.5 108t89.5 290q0 31 -2 45z" />
<glyph unicode="&#xf9;" horiz-adv-x="1165" d="M78 381l129 606h274l-127 -594q-21 -99 7 -147.5t114 -48.5q110 0 221 92l150 698h274l-209 -987h-223l-16 96h-4q-43 -36 -75.5 -58.5t-97.5 -45.5t-135 -23q-173 0 -248 110.5t-34 301.5zM442 1442l4 18h281l102 -278l-4 -21h-233z" />
<glyph unicode="&#xfa;" horiz-adv-x="1165" d="M78 381l129 606h274l-127 -594q-21 -99 7 -147.5t114 -48.5q110 0 221 92l150 698h274l-209 -987h-223l-16 96h-4q-43 -36 -75.5 -58.5t-97.5 -45.5t-135 -23q-173 0 -248 110.5t-34 301.5zM580 1161l4 21l219 278h299l-4 -18l-269 -281h-249z" />
<glyph unicode="&#xfb;" horiz-adv-x="1165" d="M78 381l129 606h274l-127 -594q-21 -99 7 -147.5t114 -48.5q110 0 221 92l150 698h274l-209 -987h-223l-16 96h-4q-43 -36 -75.5 -58.5t-97.5 -45.5t-135 -23q-173 0 -248 110.5t-34 301.5zM362 1161l5 21l241 278h301l123 -278l-4 -21h-221l-76 142l-133 -142h-236z" />
<glyph unicode="&#xfc;" horiz-adv-x="1165" d="M78 381l129 606h274l-127 -594q-21 -99 7 -147.5t114 -48.5q110 0 221 92l150 698h274l-209 -987h-223l-16 96h-4q-43 -36 -75.5 -58.5t-97.5 -45.5t-135 -23q-173 0 -248 110.5t-34 301.5zM356 1282q0 75 56 127.5t139 52.5q62 0 97.5 -34t35.5 -89q0 -76 -56.5 -128 t-140.5 -52q-61 0 -96 34t-35 89zM801 1282q0 76 55.5 128t138.5 52q62 0 97.5 -34t35.5 -89q0 -76 -56 -128t-140 -52q-62 0 -96.5 34t-34.5 89z" />
<glyph unicode="&#xfd;" horiz-adv-x="1073" d="M-129 -418l41 219q56 -10 121 -10t108 25t78 84l64 110l-185 957l4 20h279l86 -672h6l361 672h294l-4 -20l-669 -1127q-165 -276 -422 -276q-81 0 -162 18zM522 1161l4 21l219 278h299l-4 -18l-268 -281h-250z" />
<glyph unicode="&#xfe;" horiz-adv-x="1193" d="M-78 -406l391 1840h277l-111 -519h4q58 47 122 75t153 28q86 0 153.5 -32t109.5 -88t63.5 -127.5t21.5 -154.5q0 -125 -37 -241t-104 -206.5t-168.5 -145t-221.5 -54.5q-145 0 -272 103h-4l-100 -478h-277zM338 248q73 -51 178 -51q76 0 136 32.5t96 87.5t54.5 122.5 t18.5 142.5q0 96 -44.5 152.5t-133.5 56.5q-105 0 -203 -68z" />
<glyph unicode="&#xff;" horiz-adv-x="1073" d="M-129 -418l41 219q56 -10 121 -10t108 25t78 84l64 110l-185 957l4 20h279l86 -672h6l361 672h294l-4 -20l-669 -1127q-165 -276 -422 -276q-81 0 -162 18zM303 1282q0 75 56 127.5t139 52.5q62 0 97.5 -34t35.5 -89q0 -76 -56.5 -128t-140.5 -52q-61 0 -96 34t-35 89z M748 1282q0 76 55.5 128t138.5 52q62 0 97.5 -34t35.5 -89q0 -76 -56 -128t-140 -52q-62 0 -96.5 34t-34.5 89z" />
<glyph unicode="&#x152;" horiz-adv-x="2021" d="M109 528q0 140 31.5 269.5t98.5 243.5t162 199t230.5 134t296.5 49q129 0 239 -30h912l-49 -238h-635l-70 -334h567l-51 -237h-567l-74 -346h639l-49 -238h-920q-124 -31 -211 -31q-139 0 -246 43.5t-172.5 120.5t-98.5 177t-33 218zM408 547q0 -152 69 -243t215 -91 q138 0 230 47l184 873q-74 47 -209 47q-108 0 -194.5 -40t-140 -104t-89.5 -149t-50.5 -169t-14.5 -171z" />
<glyph unicode="&#x153;" horiz-adv-x="1843" d="M51 395q0 123 44 235.5t122.5 199t196 137.5t254.5 51q225 0 338 -150q153 150 380 150q99 0 176 -28t124.5 -76.5t71.5 -110.5t24 -133q0 -121 -66 -256h-643q-2 -10 -2 -37q0 -90 50 -138.5t145 -48.5q141 0 319 68l43 -205q-189 -84 -409 -84q-225 0 -330 146 q-159 -146 -402 -146q-105 0 -189.5 34t-137.5 92.5t-81 135t-28 164.5zM336 410q0 -104 47.5 -158.5t130.5 -54.5q135 0 221 103t86 278q0 104 -47.5 158.5t-132.5 54.5q-132 0 -218.5 -103t-86.5 -278zM1110 586h406q14 40 14 82q0 149 -164 149q-96 0 -163.5 -67 t-92.5 -164z" />
<glyph unicode="&#x178;" horiz-adv-x="1216" d="M162 1372l4 21h301l178 -574h4l424 574h320l-4 -21l-644 -811l-118 -561h-285l121 561zM414 1649q0 76 55.5 128t138.5 52q62 0 97.5 -34t35.5 -89q0 -76 -56 -128t-140 -52q-61 0 -96 34t-35 89zM942 1649q0 75 56 127.5t139 52.5q62 0 97.5 -34t35.5 -89 q0 -76 -56.5 -128t-140.5 -52q-61 0 -96 34t-35 89z" />
<glyph unicode="&#x2c6;" horiz-adv-x="1185" d="M506 1161l4 21l242 278h301l123 -278l-5 -21h-221l-76 142l-133 -142h-235z" />
<glyph unicode="&#x2dc;" horiz-adv-x="1185" d="M512 1325q46 60 109 97.5t127 37.5q50 0 98 -23t93 -46t89 -23q41 0 85 19.5t75 50.5l33 -140q-49 -65 -109.5 -101t-118.5 -36q-50 0 -103 23t-100 46t-85 23q-89 0 -160 -71z" />
<glyph unicode="&#x2000;" horiz-adv-x="918" />
<glyph unicode="&#x2001;" horiz-adv-x="1837" />
<glyph unicode="&#x2002;" horiz-adv-x="918" />
<glyph unicode="&#x2003;" horiz-adv-x="1837" />
<glyph unicode="&#x2004;" horiz-adv-x="612" />
<glyph unicode="&#x2005;" horiz-adv-x="459" />
<glyph unicode="&#x2006;" horiz-adv-x="306" />
<glyph unicode="&#x2007;" horiz-adv-x="306" />
<glyph unicode="&#x2008;" horiz-adv-x="229" />
<glyph unicode="&#x2009;" horiz-adv-x="367" />
<glyph unicode="&#x200a;" horiz-adv-x="102" />
<glyph unicode="&#x2010;" horiz-adv-x="837" d="M98 451l45 211h584l-43 -211h-586z" />
<glyph unicode="&#x2011;" horiz-adv-x="837" d="M98 451l45 211h584l-43 -211h-586z" />
<glyph unicode="&#x2012;" horiz-adv-x="837" d="M98 451l45 211h584l-43 -211h-586z" />
<glyph unicode="&#x2013;" horiz-adv-x="1179" d="M98 451l45 211h928l-45 -211h-928z" />
<glyph unicode="&#x2014;" horiz-adv-x="1853" d="M98 451l45 211h1602l-45 -211h-1602z" />
<glyph unicode="&#x2018;" horiz-adv-x="579" d="M127 772l4 21l332 600h207l-6 -21l-263 -600h-274z" />
<glyph unicode="&#x2019;" horiz-adv-x="573" d="M137 772l4 21l262 600h277l-6 -21l-330 -600h-207z" />
<glyph unicode="&#x201a;" horiz-adv-x="563" d="M-154 -330l4 21l263 600h276l-6 -21l-330 -600h-207z" />
<glyph unicode="&#x201c;" horiz-adv-x="1001" d="M127 772l4 21l332 600h207l-6 -21l-263 -600h-274zM549 772l4 21l332 600h207l-7 -21l-262 -600h-274z" />
<glyph unicode="&#x201d;" horiz-adv-x="999" d="M137 772l4 21l262 600h277l-6 -21l-330 -600h-207zM563 772l4 21l262 600h277l-6 -21l-330 -600h-207z" />
<glyph unicode="&#x201e;" horiz-adv-x="989" d="M-154 -330l4 21l263 600h276l-6 -21l-330 -600h-207zM272 -330l4 21l263 600h276l-6 -21l-330 -600h-207z" />
<glyph unicode="&#x2022;" horiz-adv-x="759" d="M145 547q0 120 81 201t204 81q89 0 138.5 -50.5t49.5 -133.5q0 -120 -81.5 -201.5t-204.5 -81.5q-88 0 -137.5 51t-49.5 134z" />
<glyph unicode="&#x2026;" horiz-adv-x="1564" d="M8 109q0 91 61 152t154 61q66 0 102.5 -38t36.5 -102q0 -91 -61 -152t-154 -61q-66 0 -102.5 38t-36.5 102zM518 109q0 91 61 152t154 61q66 0 102.5 -38t36.5 -102q0 -91 -61 -152t-154 -61q-66 0 -102.5 38t-36.5 102zM1024 109q0 91 61 152t154 61q66 0 102.5 -38 t36.5 -102q0 -91 -61 -152t-154 -61q-66 0 -102.5 38t-36.5 102z" />
<glyph unicode="&#x202f;" horiz-adv-x="367" />
<glyph unicode="&#x2039;" horiz-adv-x="651" d="M63 541l7 24l417 449l150 -115l-291 -362l129 -361l-182 -84z" />
<glyph unicode="&#x203a;" horiz-adv-x="651" d="M4 207l291 362l-129 361l182 84l230 -449l-7 -24l-417 -449z" />
<glyph unicode="&#x205f;" horiz-adv-x="459" />
<glyph unicode="&#x20ac;" d="M8 418l107 207h67q13 85 31 143h-131l106 207h103q214 448 655 448q186 0 348 -90l-104 -225q-72 40 -134.5 56t-142.5 16q-93 0 -180.5 -54t-148.5 -151h526l-102 -207h-519q-19 -61 -30 -143h489l-102 -207h-379q23 -100 85.5 -152.5t156.5 -52.5q78 0 147.5 16 t159.5 56l47 -226q-200 -90 -385 -90q-232 0 -363.5 119t-142.5 330h-164z" />
<glyph unicode="&#x2122;" horiz-adv-x="1488" d="M266 1303l29 131h491l-26 -131h-166l-92 -443h-164l94 443h-166zM766 860l121 574h172l78 -293h2l184 293h205l-121 -574h-164l74 352h-2l-137 -235h-136l-41 235h-2l-73 -352h-160z" />
<glyph unicode="&#x25fc;" horiz-adv-x="983" d="M0 0v983h983v-983h-983z" />
<glyph unicode="&#xfb01;" horiz-adv-x="1300" d="M82 776l33 150l182 61l29 131q70 326 379 326q107 0 192 -19l-49 -223q-69 15 -127 15q-56 0 -83 -23t-40 -88l-25 -119h684l-210 -987h-275l164 776h-408l-166 -776h-274l164 776h-170zM1022 1262q0 75 56 127.5t139 52.5q62 0 97.5 -34t35.5 -89q0 -76 -56.5 -128 t-140.5 -52q-61 0 -96 34t-35 89z" />
<glyph unicode="&#xfb02;" horiz-adv-x="1355" d="M82 776l33 150l182 61l29 131q70 326 379 326q107 0 192 -19l-49 -223q-69 15 -127 15q-56 0 -83 -23t-40 -88l-25 -119h240l-45 -211h-240l-166 -776h-274l164 776h-170zM827 283l244 1151h277l-258 -1213q-5 -23 -2 -30t24 -7h109l-41 -188q-79 -14 -150 -14 q-139 0 -188 72t-15 229z" />
</font>
</defs>
</svg>
