<?xml version="1.0" standalone="no"?>
<!DOCTYPE svg PUBLIC "-//W3C//DTD SVG 1.1//EN" "http://www.w3.org/Graphics/SVG/1.1/DTD/svg11.dtd" >
<svg xmlns="http://www.w3.org/2000/svg">
<metadata></metadata>
<defs>
<font id="vw_headregular_italic" horiz-adv-x="1208" >
<font-face units-per-em="2048" ascent="1612" descent="-436" />
<missing-glyph horiz-adv-x="514" />
<glyph horiz-adv-x="0" />
<glyph horiz-adv-x="0" />
<glyph horiz-adv-x="682" />
<glyph unicode="&#xd;" horiz-adv-x="501" />
<glyph unicode=" "  horiz-adv-x="514" />
<glyph unicode="&#x09;" horiz-adv-x="514" />
<glyph unicode="&#xa0;" horiz-adv-x="514" />
<glyph unicode="!" horiz-adv-x="518" d="M27 74q0 69 45.5 115.5t115.5 46.5q49 0 77 -28.5t28 -76.5q0 -69 -46 -115.5t-116 -46.5q-50 0 -77 28.5t-27 76.5zM168 430l96 612l74 351h188l-73 -351l-166 -612h-119z" />
<glyph unicode="&#x22;" horiz-adv-x="772" d="M223 827l41 361l45 205h187l-43 -205l-111 -361h-119zM530 827l41 361l45 205h187l-43 -205l-111 -361h-119z" />
<glyph unicode="#" horiz-adv-x="1388" d="M51 354l25 152h227l168 387h-188l26 151h230l151 349h178l-4 -21l-141 -328h289l151 349h178l-6 -21l-141 -328h192l-26 -151h-234l-168 -387h195l-25 -152h-237l-152 -354h-178l4 20l144 334h-289l-154 -354h-178l4 20l144 334h-185zM487 506h289l168 387h-289z" />
<glyph unicode="$" d="M80 102l90 152q131 -99 279 -109l104 494l-39 18q-116 52 -181 137.5t-65 192.5q0 180 120.5 297.5t332.5 134.5l33 158h141l-35 -158q151 -19 281 -104l-84 -152q-139 71 -234 82l-100 -477l8 -4q277 -126 277 -344q0 -186 -125 -308t-330 -139l-41 -194h-141l41 194 q-179 20 -332 129zM467 1012q0 -64 29 -109t98 -78l88 416q-104 -19 -159.5 -79t-55.5 -150zM590 150q219 38 219 243q0 113 -127 185z" />
<glyph unicode="%" horiz-adv-x="1568" d="M129 0l4 20l1190 1373h164l-4 -21l-1190 -1372h-164zM174 954q0 185 102 318t265 133q113 0 172 -76t59 -199q0 -185 -101.5 -317.5t-264.5 -132.5q-113 0 -172.5 76t-59.5 198zM322 952q0 -147 100 -147q67 0 114.5 47t68 118.5t20.5 159.5q0 150 -101 150 q-93 0 -147.5 -94.5t-54.5 -233.5zM846 258q0 120 43.5 222t128.5 165.5t194 63.5q113 0 172.5 -76.5t59.5 -198.5q0 -185 -102 -317.5t-265 -132.5q-113 0 -172 76t-59 198zM993 256q0 -147 101 -147q67 0 114 47t67.5 118.5t20.5 159.5q0 150 -100 150q-94 0 -148.5 -94.5 t-54.5 -233.5z" />
<glyph unicode="&#x26;" horiz-adv-x="1398" d="M55 276q0 66 23.5 126.5t57 104t86 86t95 68.5t99.5 56l49 26l-14 21q-97 136 -97 268q0 71 32 141t87 125.5t137.5 90t175.5 34.5q144 0 233 -92t89 -213q0 -228 -285 -377l-106 -55l207 -268q144 148 254 289l135 -103q-115 -145 -285 -319l209 -265l-4 -20h-207 l-125 160q-120 -99 -234.5 -145t-240.5 -46q-177 0 -274 87t-97 220zM254 299q0 -70 50.5 -113t144.5 -43q87 0 169 36.5t177 113.5l-236 317l-55 -30q-65 -36 -106 -63t-76.5 -61t-51.5 -72.5t-16 -84.5zM547 1032q0 -113 63 -198l13 -17l122 60q80 39 124 97t44 128 q0 59 -36.5 103t-106.5 44q-110 0 -166.5 -64.5t-56.5 -152.5z" />
<glyph unicode="'" horiz-adv-x="464" d="M223 827l41 361l45 205h187l-43 -205l-111 -361h-119z" />
<glyph unicode="(" horiz-adv-x="598" d="M66 176q0 159 27.5 312t71.5 280.5t111 255.5t135 230t154 212l113 -86q-222 -324 -324 -627.5t-102 -623.5q0 -132 13 -276.5t38 -239.5l-143 -55q-43 119 -68.5 283.5t-25.5 334.5z" />
<glyph unicode=")" horiz-adv-x="598" d="M-109 -356q222 324 324 627.5t102 623.5q0 132 -13 276.5t-38 239.5l144 55q43 -119 68.5 -283.5t25.5 -334.5q0 -159 -27.5 -312.5t-72 -280.5t-111.5 -255t-135 -230t-154 -212z" />
<glyph unicode="*" horiz-adv-x="872" d="M207 1001l215 103v4l-170 102l96 119l154 -125l4 2l37 228h143l-63 -228l4 -2l209 125l45 -133l-215 -102v-4l170 -103l-97 -119l-159 127l-2 -2l-33 -229h-144l62 227l-2 2l-209 -125z" />
<glyph unicode="+" d="M102 477l33 152h400l92 438h157l-94 -438h404l-31 -152h-404l-94 -440h-157l94 440h-400z" />
<glyph unicode="," horiz-adv-x="520" d="M-104 -330l4 21l194 518h209l-4 -21l-258 -518h-145z" />
<glyph unicode="-" horiz-adv-x="827" d="M125 477l33 152h532l-31 -152h-534z" />
<glyph unicode="." horiz-adv-x="505" d="M23 74q0 69 45.5 115.5t115.5 46.5q50 0 77.5 -28.5t27.5 -76.5q0 -69 -46 -115.5t-116 -46.5q-50 0 -77 28.5t-27 76.5z" />
<glyph unicode="/" horiz-adv-x="825" d="M-59 0l4 20l813 1373h176l-4 -21l-813 -1372h-176z" />
<glyph unicode="0" d="M78 467q0 448 186.5 702t499.5 254q208 0 314 -133t106 -362q0 -299 -86.5 -517t-240.5 -330t-357 -112q-211 0 -316.5 133t-105.5 365zM272 475q0 -162 57.5 -247t184.5 -85q76 0 145 29.5t129.5 92.5t105 153.5t70 219.5t25.5 284q0 159 -56.5 243t-182.5 84 q-95 0 -179.5 -48t-152 -140.5t-107 -243.5t-39.5 -342z" />
<glyph unicode="1" d="M117 0l37 170h297l219 1018h-4l-281 -86h-27l35 172l352 119h154l-260 -1223h297l-37 -170h-782z" />
<glyph unicode="2" d="M35 0l33 150l618 514q50 42 76.5 66t64.5 64t57 72t33.5 75.5t14.5 88.5q0 99 -57 159t-162 60q-108 0 -187.5 -34.5t-167.5 -100.5l-84 139q222 170 455 170q174 0 287.5 -104.5t113.5 -271.5q0 -77 -20 -142t-64 -125t-96 -110.5t-133 -116.5l-463 -379v-4h607 l-37 -170h-889z" />
<glyph unicode="3" d="M35 74l76 153q151 -84 344 -84q148 0 253 78.5t105 216.5q0 85 -60 136t-194 51h-231l37 170h241q77 0 137.5 23t96.5 62t54.5 86.5t18.5 100.5q0 80 -53 131t-155 51q-174 0 -363 -71l-45 153q83 39 202 65.5t224 26.5q186 0 288.5 -88t102.5 -233q0 -143 -80 -246.5 t-188 -153.5v-4q75 -32 118.5 -100t43.5 -164q0 -138 -76.5 -245t-205 -163.5t-286.5 -56.5q-217 0 -405 105z" />
<glyph unicode="4" d="M18 295l31 143l619 955h196l-596 -928h461l109 518h188l-111 -518h197l-37 -170h-194l-64 -295h-188l63 295h-674z" />
<glyph unicode="5" d="M39 51l63 164q147 -72 314 -72q189 0 297 84.5t108 255.5q0 199 -276 199q-150 0 -287 -10l-14 22l233 699h686l-37 -170h-528l-125 -371q78 4 113 4q202 0 319 -87t117 -257t-80 -293.5t-220 -186.5t-323 -63q-85 0 -189 24.5t-171 57.5z" />
<glyph unicode="6" d="M86 360q0 240 186 465l471 568h220l-5 -21l-446 -514l4 -4q83 57 201 57q171 0 273 -104t102 -270q0 -116 -42 -220t-117 -181t-185 -122t-238 -45q-202 0 -313 110.5t-111 280.5zM285 381q0 -109 63 -173.5t178 -64.5q156 0 261.5 105t105.5 264q0 108 -63.5 166.5 t-178.5 58.5q-165 0 -265.5 -96.5t-100.5 -259.5z" />
<glyph unicode="7" d="M229 0l4 20l736 1199v4h-672l37 170h878l-30 -144l-752 -1249h-201z" />
<glyph unicode="8" d="M55 313q0 150 89 260.5t227 167.5v4q-53 33 -88 92t-35 142q0 90 31.5 168.5t92.5 141t162 98.5t230 36q192 0 291.5 -89t99.5 -230q0 -258 -252 -379v-4q74 -38 119 -112.5t45 -168.5q0 -98 -37 -183t-107 -149.5t-180 -101.5t-247 -37q-213 0 -327 95.5t-114 248.5z M256 342q0 -92 64.5 -145.5t191.5 -53.5q176 0 268 84.5t92 216.5q0 92 -63.5 145.5t-190.5 53.5q-184 0 -273 -84.5t-89 -216.5zM442 981q0 -81 53.5 -124.5t157.5 -43.5q148 0 224.5 71t76.5 195q0 81 -52 125.5t-154 44.5q-149 0 -227.5 -72.5t-78.5 -195.5z" />
<glyph unicode="9" d="M166 856q0 155 71.5 284t205.5 206t305 77q202 0 312.5 -110.5t110.5 -280.5q0 -240 -186 -465l-471 -567h-219l4 20l446 515l-4 4q-84 -58 -200 -58q-171 0 -273 104.5t-102 270.5zM365 881q0 -108 63.5 -167t177.5 -59q165 0 266 97t101 260q0 109 -63.5 173t-178.5 64 q-156 0 -261 -104.5t-105 -263.5z" />
<glyph unicode=":" horiz-adv-x="552" d="M43 74q0 69 46 115.5t116 46.5q50 0 77 -28.5t27 -76.5q0 -69 -46 -115.5t-116 -46.5q-50 0 -77 28.5t-27 76.5zM209 856q0 69 46 115.5t116 46.5q50 0 77 -28.5t27 -76.5q0 -69 -46 -115t-116 -46q-50 0 -77 28t-27 76z" />
<glyph unicode=";" horiz-adv-x="583" d="M-88 -330l4 21l195 518h208l-4 -21l-258 -518h-145zM242 856q0 69 45.5 115.5t115.5 46.5q50 0 77.5 -28.5t27.5 -76.5q0 -69 -46 -115t-116 -46q-50 0 -77 28t-27 76z" />
<glyph unicode="&#x3c;" d="M78 483l31 142l1032 432h18l-37 -180l-835 -328v-6l696 -328l-37 -164h-18z" />
<glyph unicode="=" d="M96 258l33 152h879l-33 -152h-879zM190 702l33 152h879l-31 -152h-881z" />
<glyph unicode="&#x3e;" d="M37 51l37 182l835 328v6l-694 328l35 162h18l850 -432l-31 -142l-1032 -432h-18z" />
<glyph unicode="?" horiz-adv-x="962" d="M205 1274q83 62 190 105.5t215 43.5q163 0 264 -90t101 -235q0 -79 -25.5 -149t-66 -120.5t-99 -95.5t-114.5 -75t-123 -58l-62 -170h-145l57 283q77 28 129 51t102.5 54.5t80 65.5t47.5 81t18 104q0 78 -46.5 129t-133.5 51q-143 0 -315 -110zM207 74q0 69 46 115.5 t116 46.5q49 0 76.5 -28.5t27.5 -76.5q0 -69 -46 -115.5t-116 -46.5q-49 0 -76.5 28.5t-27.5 76.5z" />
<glyph unicode="@" horiz-adv-x="1839" d="M90 365q0 166 48.5 327t142 300t220 245t293.5 166.5t351 60.5q147 0 264.5 -48.5t192 -133t114 -194.5t39.5 -236q0 -142 -33 -266t-88.5 -211.5t-126.5 -151t-147.5 -94.5t-151.5 -31q-78 0 -122 37.5t-58 93.5h-2q-149 -106 -297 -106q-109 0 -177.5 73.5t-68.5 200.5 q0 107 40 220t107 206t164 153t201 60q133 0 244 -98h2l53 74h113l-221 -580q-13 -35 -19.5 -68t-4.5 -62.5t19 -47.5t48 -18q60 0 124.5 40.5t121 114.5t93 194t36.5 263q0 101 -28 186t-83.5 151.5t-147 104t-210.5 37.5q-185 0 -351.5 -81.5t-281 -214t-181.5 -302.5 t-67 -346q0 -238 125.5 -385.5t351.5 -147.5q70 0 142.5 13.5t110 26t95.5 34.5l37 -129q-192 -82 -399 -82q-289 0 -458 178.5t-169 473.5zM657 418q0 -70 33 -109t98 -39q104 0 205 70l181 487q-28 27 -72.5 43.5t-89.5 16.5q-72 0 -139 -44t-113.5 -112.5t-74.5 -152 t-28 -160.5z" />
<glyph unicode="A" horiz-adv-x="1267" d="M-100 0l811 1393h192l219 -1393h-188l-47 348h-588l-197 -348h-202zM395 508h463l-90 663h-4z" />
<glyph unicode="B" horiz-adv-x="1265" d="M61 0l297 1393h428q205 0 310.5 -74.5t105.5 -220.5q0 -142 -74.5 -247.5t-179.5 -143.5l-2 -5q176 -62 176 -256q0 -207 -137.5 -326.5t-380.5 -119.5h-543zM285 170h315q162 0 245 64.5t83 211.5q0 90 -60 129t-176 39h-311zM416 784h248q182 0 258.5 60.5t76.5 220.5 q0 90 -57.5 124t-185.5 34h-246z" />
<glyph unicode="C" horiz-adv-x="1214" d="M129 522q0 189 55 353.5t155 286t250 191.5t331 70q177 0 344 -90l-62 -149q-130 65 -299 65q-120 0 -218 -39.5t-163.5 -107t-110.5 -160t-65 -195.5t-20 -217q0 -183 84.5 -285t257.5 -102q165 0 327 66l39 -150q-210 -90 -383 -90q-251 0 -386.5 151t-135.5 402z" />
<glyph unicode="D" horiz-adv-x="1400" d="M61 0l297 1393h359q598 0 598 -512q0 -881 -854 -881h-400zM285 170h166q131 0 232 20.5t185 70t138.5 129.5t84 200.5t29.5 281.5q0 182 -102.5 266.5t-343.5 84.5h-164z" />
<glyph unicode="E" horiz-adv-x="1181" d="M61 0l297 1393h871l-37 -170h-682l-92 -428h618l-35 -170h-618l-98 -455h690l-37 -170h-877z" />
<glyph unicode="F" horiz-adv-x="1153" d="M61 0l297 1393h871l-37 -170h-682l-98 -459h618l-37 -170h-618l-125 -594h-189z" />
<glyph unicode="G" horiz-adv-x="1347" d="M131 508q0 143 27.5 274t89.5 249t152.5 204t225 137t298.5 51q214 0 411 -129l-78 -149q-76 46 -168.5 75t-181.5 29q-129 0 -231 -42.5t-166 -112t-106 -165.5t-59 -196.5t-17 -212.5q0 -175 78 -276t247 -101q180 0 291 62l68 319l-262 41l28 129h457l-121 -596 q-211 -129 -477 -129q-128 0 -226 40.5t-158.5 114t-91 170.5t-30.5 214z" />
<glyph unicode="H" horiz-adv-x="1417" d="M61 0l297 1393h187l-127 -598h674l127 598h188l-297 -1393h-188l133 625h-672l-133 -625h-189z" />
<glyph unicode="I" horiz-adv-x="557" d="M61 0l297 1393h187l-295 -1393h-189z" />
<glyph unicode="J" horiz-adv-x="919" d="M-55 119l100 131q43 -50 89.5 -78.5t121.5 -28.5q207 0 274 314l199 936h189l-209 -977q-44 -215 -165.5 -331t-303.5 -116q-95 0 -171 43t-124 107z" />
<glyph unicode="K" d="M61 0l297 1393h187l-146 -684h4l691 684h231l-4 -21l-725 -710l465 -642l-4 -20h-215l-453 635h-4l-135 -635h-189z" />
<glyph unicode="L" horiz-adv-x="1046" d="M61 0l297 1393h187l-260 -1223h624l-37 -170h-811z" />
<glyph unicode="M" horiz-adv-x="1665" d="M61 0l297 1393h166l297 -811h4l639 811h191l-297 -1393h-187l222 1047h-4l-535 -697h-137l-242 697h-4l-221 -1047h-189z" />
<glyph unicode="N" horiz-adv-x="1435" d="M61 0l297 1393h191l448 -1106h4l236 1106h188l-297 -1393h-194l-445 1106h-4l-235 -1106h-189z" />
<glyph unicode="O" horiz-adv-x="1478" d="M129 508q0 137 26 264.5t85 247t146 208t219 142t294 53.5q247 0 373.5 -146t126.5 -390q0 -136 -25.5 -264t-84 -248t-145 -209t-218.5 -143t-295 -54q-125 0 -222 40t-157.5 112.5t-91.5 170t-31 216.5zM326 518q0 -83 17.5 -149t54 -118t100 -80t149.5 -28 q111 0 200.5 34t146 84.5t98.5 124t63 138.5t33 143t14 121t2 89q0 83 -17.5 148.5t-54 117t-100 79t-149.5 27.5q-100 0 -183 -28.5t-139.5 -74.5t-100 -110.5t-68.5 -129.5t-40.5 -139.5t-20.5 -133t-5 -115.5z" />
<glyph unicode="P" horiz-adv-x="1210" d="M61 0l297 1393h463q192 0 289.5 -89t97.5 -243q0 -240 -133 -382t-395 -142h-318l-112 -537h-189zM399 707h281q87 0 152 26t102.5 71.5t55.5 102t18 123.5q0 193 -217 193h-281z" />
<glyph unicode="Q" horiz-adv-x="1478" d="M129 508q0 137 26 264.5t85 247t146 208t219 142t294 53.5q247 0 373.5 -146t126.5 -390q0 -138 -27.5 -267.5t-83.5 -248.5t-151.5 -212t-221.5 -141l295 -165l-110 -158l-438 276q-5 0 -15.5 -1t-15.5 -1q-125 0 -222 40t-157.5 112.5t-91.5 170t-31 216.5zM326 518 q0 -83 17.5 -149t54 -118t100 -80t149.5 -28q111 0 200.5 34t146 84.5t98.5 124t63 138.5t33 143t14 121t2 89q0 83 -17.5 148.5t-54 117t-100 79t-149.5 27.5q-100 0 -183 -28.5t-139.5 -74.5t-100 -110.5t-68.5 -129.5t-40.5 -139.5t-20.5 -133t-5 -115.5z" />
<glyph unicode="R" horiz-adv-x="1292" d="M61 0l297 1393h494q189 0 294 -85t105 -237q0 -192 -112 -311t-308 -152l285 -575l-6 -33h-192l-287 598h-254l-127 -598h-189zM414 768h317q154 0 238 74t84 205q0 86 -58 131t-168 45h-317z" />
<glyph unicode="S" horiz-adv-x="1081" d="M18 102l91 152q73 -55 150 -83t179 -28q143 0 226.5 61.5t83.5 188.5q0 132 -181 213l-114 51q-116 52 -181 137.5t-65 192.5q0 194 139 315t379 121q98 0 190.5 -30.5t163.5 -77.5l-84 -152q-75 40 -141.5 63t-142.5 23q-147 0 -226 -64t-79 -173q0 -66 31 -111.5 t106 -79.5l127 -57q276 -125 276 -344q0 -201 -144 -326t-376 -125q-224 0 -408 133z" />
<glyph unicode="T" horiz-adv-x="1110" d="M199 1223l37 170h983l-37 -170h-396l-260 -1223h-188l260 1223h-399z" />
<glyph unicode="U" horiz-adv-x="1400" d="M162 549l180 844h186l-182 -863q-15 -71 -15 -129q1 -93 39 -156q64 -102 236.5 -102t277 101.5t144.5 285.5l182 863h189l-191 -895q-26 -124 -73 -218t-120.5 -165.5t-180 -108.5t-244.5 -37q-265 1 -376 151q-72 98 -72 251q0 81 20 178z" />
<glyph unicode="V" horiz-adv-x="1263" d="M197 1372l4 21h188l158 -1166h4l651 1166h207l-4 -21l-801 -1372h-192z" />
<glyph unicode="W" horiz-adv-x="1955" d="M215 1372l4 21h189l57 -1131h4l573 1131h201l92 -1131h4l537 1131h205l-4 -21l-684 -1372h-193l-96 1163h-4l-588 -1163h-195z" />
<glyph unicode="X" horiz-adv-x="1183" d="M-66 0l5 20l559 676l-273 676l6 21h191l209 -568h4l452 568h213l-4 -21l-561 -676l273 -676l-4 -20h-193l-211 565h-4l-449 -565h-213z" />
<glyph unicode="Y" horiz-adv-x="1124" d="M184 1372l4 21h193l209 -627h4l481 627h209l-4 -21l-623 -784l-125 -588h-188l125 588z" />
<glyph unicode="Z" horiz-adv-x="1114" d="M-37 0l33 152l903 1067v4h-639l35 170h891l-33 -152l-907 -1067v-4h680l-37 -170h-926z" />
<glyph unicode="[" horiz-adv-x="659" d="M-51 -406l391 1840h426l-23 -111l-251 -47l-324 -1524l231 -47l-24 -111h-426z" />
<glyph unicode="\" horiz-adv-x="811" d="M233 1372l5 21h161l228 -1373l-4 -20h-162z" />
<glyph unicode="]" horiz-adv-x="661" d="M-133 -406l22 111l254 47l324 1524l-234 47l25 111h428l-391 -1840h-428z" />
<glyph unicode="^" horiz-adv-x="1015" d="M242 762l4 20l499 652h140l223 -652l-4 -20h-162l-154 487h-8l-360 -487h-178z" />
<glyph unicode="_" horiz-adv-x="966" d="M-29 -193l33 152h703l-33 -152h-703z" />
<glyph unicode="`" horiz-adv-x="1183" d="M735 1434l4 20h193l76 -248l-4 -20h-150z" />
<glyph unicode="a" horiz-adv-x="1177" d="M76 358q0 98 18.5 191.5t59 179t99 149.5t144 102t187.5 38q175 0 321 -121h4l41 90h129l-168 -797q-7 -29 1 -41t44 -12h54l-31 -145q-70 -17 -102 -17q-126 0 -140 115h-4q-77 -56 -155.5 -88.5t-176.5 -32.5q-68 0 -123 20.5t-92 55.5t-62.5 85t-36.5 106.5t-11 121.5 zM268 381q0 -250 199 -250q67 0 138.5 29.5t131.5 75.5l113 532q-102 88 -229 88q-83 0 -147.5 -32.5t-102 -81.5t-62 -115t-33 -125.5t-8.5 -120.5z" />
<glyph unicode="b" horiz-adv-x="1165" d="M31 0l305 1434h184l-110 -516h4q51 32 85 50t93.5 34t126.5 16q85 0 150.5 -31t105.5 -85t60 -123.5t20 -151.5q0 -98 -20.5 -192t-63 -178.5t-102.5 -148.5t-145.5 -101.5t-186.5 -37.5q-99 0 -186 36.5t-144 84.5h-4l-41 -90h-131zM262 217q92 -86 240 -86 q68 0 124.5 21.5t94.5 58.5t67 84t45 101.5t23.5 106t7.5 103.5q0 113 -50.5 181.5t-158.5 68.5q-68 0 -142.5 -30t-135.5 -76z" />
<glyph unicode="c" horiz-adv-x="978" d="M74 381q0 134 42 250.5t116.5 202t185 135t241.5 49.5q73 0 150.5 -20.5t136.5 -51.5l-55 -143q-45 21 -112 37t-132 16q-87 0 -161 -41t-121 -106.5t-73 -144.5t-26 -158q0 -117 57 -196t171 -79q130 0 264 53l37 -143q-72 -31 -158.5 -51.5t-159.5 -20.5 q-191 0 -297 114t-106 298z" />
<glyph unicode="d" horiz-adv-x="1167" d="M74 358q0 98 19.5 191.5t61.5 178.5t102 149.5t146.5 102.5t188.5 38q183 0 303 -100h4l111 516h184l-305 -1434h-131l-2 90h-4q-170 -121 -340 -121q-168 0 -253 109t-85 280zM266 381q0 -113 50 -181.5t159 -68.5q68 0 145.5 30t135.5 75l112 532q-43 39 -107 63.5 t-132 24.5q-83 0 -148.5 -32t-104.5 -81.5t-65 -115t-35.5 -126t-9.5 -120.5z" />
<glyph unicode="e" horiz-adv-x="1091" d="M72 381q0 120 39 233.5t109.5 203.5t178.5 145t236 55q96 0 169.5 -28.5t117.5 -77.5t66 -109.5t22 -130.5q0 -102 -58 -238h-692q-6 -24 -6 -57q0 -119 63.5 -184.5t184.5 -65.5q90 0 160.5 24.5t144.5 67.5l63 -143q-184 -107 -399 -107q-101 0 -179.5 33t-125.5 90.5 t-70.5 130.5t-23.5 158zM293 582h524q17 53 17 92q0 85 -54 135.5t-157 50.5q-119 0 -207.5 -76.5t-122.5 -201.5z" />
<glyph unicode="f" horiz-adv-x="729" d="M102 0l179 836h-175l25 110l180 41l29 135q36 169 124.5 245.5t240.5 76.5q75 0 149 -17l-35 -159q-68 14 -117 14q-75 0 -115.5 -31.5t-58.5 -113.5l-32 -150h264l-33 -151h-264l-176 -836h-185z" />
<glyph unicode="g" horiz-adv-x="1167" d="M43 -342l59 147q134 -79 285 -79q124 0 205 61t108 186l23 105h-4q-137 -101 -303 -101q-85 0 -151 30.5t-106.5 84.5t-61.5 124t-21 151q0 98 20.5 192t63.5 177.5t103.5 146t146 99t186.5 36.5q99 0 184.5 -37t139.5 -84h4l45 90h131l-215 -1010 q-40 -188 -171.5 -300.5t-340.5 -112.5q-173 0 -330 94zM266 383q0 -111 50 -177.5t159 -66.5q68 0 145.5 30t137.5 75l110 524q-110 88 -241 88q-85 0 -151.5 -33.5t-105 -83.5t-63 -116.5t-33 -124.5t-8.5 -115z" />
<glyph unicode="h" horiz-adv-x="1148" d="M31 0l305 1434h184l-110 -516h4q158 100 311 100q169 0 249 -102q53 -68 54 -176q0 -55 -14 -122l-133 -618h-185l129 604q12 53 12 95q0 58 -23 95q-39 62 -148 62q-70 0 -153.5 -33t-137.5 -71l-160 -752h-184z" />
<glyph unicode="i" horiz-adv-x="493" d="M33 0l209 987h184l-211 -987h-182zM281 1272q0 63 40 102t103 39q46 0 72 -23.5t26 -66.5q0 -62 -41.5 -101.5t-105.5 -39.5q-44 0 -69 24t-25 66z" />
<glyph unicode="j" horiz-adv-x="493" d="M-301 -418l33 158q58 -14 118 -14q66 0 102.5 34t53.5 115l236 1112h184l-240 -1128q-64 -295 -338 -295q-79 0 -149 18zM281 1272q0 63 40 102t103 39q47 0 72.5 -23.5t25.5 -66.5q0 -62 -41.5 -101.5t-105.5 -39.5q-44 0 -69 24t-25 66z" />
<glyph unicode="k" horiz-adv-x="1003" d="M31 0l305 1434h184l-192 -906h4l475 459h233l-4 -14l-526 -492l340 -465l-4 -16h-203l-328 457h-4l-96 -457h-184z" />
<glyph unicode="l" horiz-adv-x="536" d="M80 213l260 1221h182l-264 -1244q-8 -26 -0.5 -39.5t39.5 -13.5h92l-31 -145q-70 -17 -108 -17q-180 0 -180 156q0 37 10 82z" />
<glyph unicode="m" horiz-adv-x="1796" d="M33 0l209 987h127l2 -90h4q185 121 348 121q219 0 278 -133h5q53 37 96 61.5t117.5 48t148.5 23.5q178 0 257 -97q53 -65 53 -168q0 -51 -13 -112l-137 -641h-185l130 604q13 60 13 105q0 54 -19 87q-35 60 -156 60q-124 0 -291 -119q0 -38 -10 -96l-138 -641h-184 l129 604q15 69 15 118v23q-4 56 -44 83.5t-122 27.5q-120 0 -289 -104l-160 -752h-184z" />
<glyph unicode="n" horiz-adv-x="1150" d="M33 0l209 987h133l2 -90h4q64 46 158 83.5t188 37.5q169 0 249 -102q53 -68 54 -176q0 -55 -14 -122l-133 -618h-185l129 604q12 53 12 95q0 58 -23 95q-39 62 -148 62q-70 0 -153.5 -33t-137.5 -71l-160 -752h-184z" />
<glyph unicode="o" horiz-adv-x="1177" d="M74 373q0 98 20.5 189t66 174.5t112 145.5t165.5 99t219 37q105 0 185.5 -32.5t128.5 -89t72 -128.5t24 -156q0 -98 -21 -189t-68 -174t-114.5 -145t-167.5 -98.5t-221 -36.5q-103 0 -181.5 32t-125.5 88.5t-70.5 128t-23.5 155.5zM264 385q0 -117 54 -185.5t171 -68.5 q82 0 149 28t111 74t73.5 107.5t42 125.5t12.5 132q0 118 -57 188t-177 70q-84 0 -151.5 -29.5t-109 -77t-69 -110.5t-38.5 -126t-11 -128z" />
<glyph unicode="p" horiz-adv-x="1169" d="M-55 -406l297 1393h129l2 -90h4q166 121 344 121q85 0 150.5 -32.5t105.5 -88.5t60 -127t20 -152q0 -123 -32.5 -236.5t-94 -207t-163 -149.5t-228.5 -56q-175 0 -306 101h-4l-100 -476h-184zM262 217q92 -86 240 -86q68 0 124.5 21.5t94.5 58.5t67 84t45 101.5t23.5 106 t7.5 103.5q0 113 -50.5 181.5t-158.5 68.5q-68 0 -142.5 -30t-135.5 -76z" />
<glyph unicode="q" horiz-adv-x="1165" d="M74 358q0 98 19.5 191.5t61.5 178.5t102 149.5t146.5 102.5t188.5 38q101 0 188.5 -37t143.5 -84h4l41 90h129l-295 -1393h-185l101 476h-2q-135 -101 -307 -101q-85 0 -150.5 31t-105.5 85t-60 123t-20 150zM266 381q0 -113 50 -181.5t159 -68.5q68 0 145.5 30t135.5 75 l112 532q-45 39 -108.5 63.5t-130.5 24.5q-83 0 -148.5 -32t-104.5 -81.5t-65 -115t-35.5 -126t-9.5 -120.5z" />
<glyph unicode="r" horiz-adv-x="704" d="M33 0l209 987h133v-106h4q124 137 276 137q57 0 101 -14l-41 -166q-48 10 -97 10q-152 0 -253 -152l-148 -696h-184z" />
<glyph unicode="s" horiz-adv-x="913" d="M2 59l74 148q124 -80 268 -80q118 0 173.5 36.5t55.5 112.5q0 82 -116 127l-111 43q-106 41 -161.5 99.5t-55.5 146.5q0 152 109 239t303 87q162 0 317 -74l-67 -149q-137 65 -252 65q-222 0 -222 -147q0 -37 28.5 -65.5t90.5 -53.5l109 -41q105 -39 161 -100t56 -154 q0 -150 -111 -240t-305 -90q-192 0 -344 90z" />
<glyph unicode="t" horiz-adv-x="724" d="M100 836l23 110l182 41l49 230h185l-50 -230h248l-32 -151h-248l-125 -588q-5 -23 -5 -41q0 -76 87 -76q64 0 159 27l-32 -158q-86 -31 -187 -31q-124 1 -180 67q-36 44 -37 115q0 37 10 82l127 603h-174z" />
<glyph unicode="u" horiz-adv-x="1134" d="M96 365l133 622h183l-129 -604q-12 -58 -13 -102q0 -55 20 -89q35 -61 146 -61q67 0 146 32t141 73l158 751h184l-209 -987h-131l-4 90h-4q-65 -46 -156 -83.5t-184 -37.5q-167 0 -245 101q-50 66 -51 170q0 57 15 125z" />
<glyph unicode="v" horiz-adv-x="1019" d="M123 967l4 20h176l117 -768h4l444 768h191l-4 -20l-584 -967h-176z" />
<glyph unicode="w" horiz-adv-x="1640" d="M129 967l4 20h178l78 -747h4l408 747h188l92 -747h4l394 747h194l-4 -20l-532 -967h-181l-98 766h-4l-424 -766h-178z" />
<glyph unicode="x" horiz-adv-x="1003" d="M-61 0l4 20l424 474l-224 473l4 20h181l166 -385h4l327 385h203l-4 -20l-424 -473l223 -474l-6 -20h-180l-166 383h-4l-328 -383h-200z" />
<glyph unicode="y" horiz-adv-x="1017" d="M-133 -416l27 156q91 -14 135 -14q64 0 111.5 36.5t92.5 116.5l74 131l-186 957l4 20h182l123 -756h6l430 756h191l-4 -20l-662 -1137q-77 -133 -165.5 -199.5t-200.5 -66.5q-65 0 -158 20z" />
<glyph unicode="z" horiz-adv-x="911" d="M-39 0l23 106l634 725v5h-452l33 151h702l-22 -106l-635 -725v-4h481l-33 -152h-731z" />
<glyph unicode="{" horiz-adv-x="684" d="M45 436l33 156q80 0 126.5 34.5t63.5 114.5l84 398q12 58 25.5 97.5t40 80t65 64t99.5 38.5t143 15h59l-22 -111q-113 0 -159 -41t-71 -158l-79 -376q-42 -192 -209 -242v-4q148 -51 106 -242l-76 -356q-25 -118 2.5 -158.5t141.5 -40.5l-25 -111h-18q-103 0 -169 22 t-94.5 63.5t-34 100t12.5 130.5l80 377q17 80 -14 114.5t-111 34.5z" />
<glyph unicode="|" horiz-adv-x="460" d="M-51 -406l391 1840h145l-391 -1840h-145z" />
<glyph unicode="}" horiz-adv-x="686" d="M-127 -406l23 111q113 0 158.5 41t70.5 158l80 377q22 102 74.5 159.5t134.5 81.5v4q-149 51 -107 242l76 356q25 118 -2.5 158.5t-140.5 40.5l24 111h19q103 0 168.5 -22t94 -63.5t34 -100t-12.5 -130.5l-80 -377q-17 -80 14 -114.5t111 -34.5l-32 -156 q-81 0 -127.5 -34.5t-63.5 -114.5l-84 -398q-12 -58 -25.5 -97.5t-40 -80t-65 -64t-99.5 -38.5t-143 -15h-59z" />
<glyph unicode="~" horiz-adv-x="1077" d="M125 561q97 123 262 123q54 0 111.5 -26t111.5 -52t101 -26q92 0 172 69l61 -102q-61 -65 -122 -92t-136 -27q-50 0 -108.5 26t-112.5 52t-94 26q-101 0 -185 -71z" />
<glyph unicode="&#xa1;" horiz-adv-x="495" d="M-55 -406l73 351l166 612h119l-96 -612l-74 -351h-188zM180 856q0 70 45 116t115 46q50 0 77 -28.5t27 -76.5q0 -69 -45.5 -115t-115.5 -46q-49 0 -76 28t-27 76z" />
<glyph unicode="&#xa2;" d="M188 381q0 253 141.5 430t375.5 203l36 170h146l-37 -172q121 -19 211 -66l-55 -143q-92 39 -189 49l-153 -719q106 11 208 51l37 -143q-140 -61 -280 -70l-35 -168h-145l36 177q-144 30 -220.5 137t-76.5 264zM381 406q0 -92 34.5 -162.5t104.5 -98.5l148 697 q-131 -38 -209 -166t-78 -270z" />
<glyph unicode="&#xa3;" d="M68 0l30 145q3 2 26.5 17t34 23t33.5 26t37 35t31 40t28.5 50.5t18.5 58.5q13 58 29 211h-160l33 152h141q13 144 39 266q41 194 163 296.5t308 102.5q156 0 324 -94l-64 -151q-79 39 -141.5 55t-136.5 16q-93 0 -163 -55.5t-95 -171.5q-21 -109 -37 -264h383l-33 -152 h-365q-14 -133 -26 -192q-34 -154 -166 -240v-4h612l-34 -170h-850z" />
<glyph unicode="&#xa4;" horiz-adv-x="1183" d="M16 172l224 197q-21 58 -21 106q0 176 109 309l-146 181l119 88l143 -174q97 53 215 53q111 0 199 -68l209 187l92 -117l-221 -199q16 -50 16 -100q0 -161 -104 -299l137 -189l-119 -90l-133 181q-114 -64 -231 -64q-56 0 -107.5 21.5t-79.5 52.5l-206 -187zM385 494 q0 -75 37.5 -123.5t107.5 -48.5q111 0 183.5 87.5t72.5 198.5q0 77 -38.5 126.5t-112.5 49.5q-109 0 -179.5 -89t-70.5 -201z" />
<glyph unicode="&#xa5;" d="M78 289l33 151h362l41 189h-364l32 151h275l-207 592l4 21h195l186 -586h4l442 586h209l-4 -21l-461 -592h275l-33 -151h-365l-40 -189h366l-33 -151h-366l-62 -289h-186l61 289h-364z" />
<glyph unicode="&#xa6;" horiz-adv-x="491" d="M-37 -406l146 680h145l-145 -680h-146zM209 754l145 680h146l-146 -680h-145z" />
<glyph unicode="&#xa7;" horiz-adv-x="1116" d="M-39 -238l94 162q156 -117 332 -117q287 0 287 183q0 41 -35.5 74.5t-112.5 70.5l-196 96q-102 51 -156.5 124.5t-54.5 158.5q0 191 235 311v6q-54 35 -87.5 88.5t-33.5 120.5q0 80 30.5 148t90.5 121.5t159 83.5t226 30q208 0 357 -96l-88 -156q-76 41 -139 59.5 t-146 18.5q-138 0 -213.5 -51.5t-75.5 -132.5q0 -88 154 -160l192 -92q93 -44 150 -118t57 -158q0 -56 -20.5 -106t-58.5 -90t-71.5 -67t-80.5 -57l-2 -4q55 -40 86.5 -94.5t31.5 -110.5q0 -181 -128.5 -278t-372.5 -97q-134 0 -230 33t-180 96zM322 543q0 -41 26 -81.5 t80 -66.5l199 -94q157 79 157 203q0 45 -26.5 83.5t-75.5 61.5l-199 94q-80 -34 -120.5 -86t-40.5 -114z" />
<glyph unicode="&#xa8;" horiz-adv-x="1183" d="M545 1272q0 63 40 102t103 39q46 0 72 -23.5t26 -66.5q0 -62 -40.5 -101.5t-106.5 -39.5q-44 0 -69 24t-25 66zM946 1272q0 63 40.5 102t103.5 39q46 0 71 -23.5t25 -66.5q0 -62 -41 -101.5t-105 -39.5q-44 0 -69 24t-25 66z" />
<glyph unicode="&#xa9;" horiz-adv-x="1669" d="M129 571q0 173 72 332t190.5 272t276.5 180.5t325 67.5q175 0 312 -80t210.5 -216.5t73.5 -305.5q0 -173 -72 -332t-190.5 -272t-276.5 -180.5t-325 -67.5q-175 0 -312 80t-210.5 216.5t-73.5 305.5zM244 578q0 -219 132.5 -359.5t350.5 -140.5q146 0 283.5 58.5t239 157 t162.5 235.5t61 286q0 218 -133 359t-351 141q-146 0 -283 -58.5t-238 -157t-162.5 -235.5t-61.5 -286zM475 610q0 213 120.5 349.5t330.5 136.5q113 0 207 -49l-43 -115q-74 39 -170 39q-133 0 -213 -99.5t-80 -248.5q0 -93 45 -147t131 -54q95 0 186 39l35 -115 q-116 -49 -227 -49q-154 0 -238 86t-84 227z" />
<glyph unicode="&#xaa;" horiz-adv-x="770" d="M88 426l31 141h532l-30 -141h-533zM172 858q0 236 336 236h102l6 26q14 63 -12.5 85t-85.5 22q-109 0 -205 -47l-26 116q124 62 254 62t190 -66t35 -184l-84 -391h-113l-6 55h-2q-112 -74 -207 -74q-83 0 -132.5 44.5t-49.5 115.5zM328 885q0 -62 78 -62q79 0 157 47 l25 117h-82q-101 0 -139.5 -24.5t-38.5 -77.5z" />
<glyph unicode="&#xab;" horiz-adv-x="1017" d="M82 541l6 24l401 428l103 -92l-322 -362l158 -363l-125 -63zM479 541l6 24l402 428l102 -92l-321 -362l157 -363l-125 -63z" />
<glyph unicode="&#xac;" d="M100 477l33 152h959l-86 -412h-152l55 260h-809z" />
<glyph unicode="&#xad;" horiz-adv-x="827" d="M125 477l33 152h532l-31 -152h-534z" />
<glyph unicode="&#xae;" horiz-adv-x="1126" d="M213 1073q0 149 78.5 275.5t206.5 198t272 71.5q169 0 275 -112.5t106 -278.5q0 -148 -79 -275t-207.5 -198.5t-272.5 -71.5q-169 0 -274 112.5t-105 278.5zM309 1077q0 -132 80.5 -217.5t212.5 -85.5q118 0 222 60t166.5 163.5t62.5 223.5q0 133 -80 219t-211 86 q-118 0 -222.5 -60.5t-167.5 -164.5t-63 -224zM463 932l94 446h176q68 0 104.5 -30.5t36.5 -79.5q0 -60 -33 -102t-98 -54l91 -170l-3 -10h-96l-86 174h-55l-37 -174h-94zM612 1188h78q47 0 67.5 15.5t20.5 49.5q0 25 -15.5 34t-49.5 9h-78z" />
<glyph unicode="&#xaf;" horiz-adv-x="1183" d="M584 1223l32 151h533l-31 -151h-534z" />
<glyph unicode="&#xb0;" horiz-adv-x="864" d="M211 1057q0 165 111 265.5t278 100.5q126 0 200 -69.5t74 -184.5q0 -165 -110 -267.5t-277 -102.5q-129 0 -202.5 70.5t-73.5 187.5zM369 1077q0 -62 37.5 -99.5t101.5 -37.5q89 0 150 60t61 149q0 61 -37 97t-102 36q-90 0 -150.5 -58t-60.5 -147z" />
<glyph unicode="&#xb1;" d="M8 0l33 152h958l-30 -152h-961zM162 723l33 151h399l84 398h158l-86 -398h403l-31 -151h-403l-78 -358h-156l76 358h-399z" />
<glyph unicode="&#xb2;" horiz-adv-x="632" d="M145 946l23 105l321 239q101 73 101 156q0 43 -26 63.5t-66 20.5q-44 0 -83 -19.5t-87 -56.5l-66 98q41 30 66 46.5t82.5 36.5t115.5 20q92 0 153.5 -52t61.5 -135t-39 -139t-112 -110l-201 -148v-2h279l-27 -123h-496z" />
<glyph unicode="&#xb3;" horiz-adv-x="632" d="M145 983l54 117q82 -45 178 -45q160 0 160 112q0 66 -119 66h-121l27 123h120q72 0 104 29.5t32 76.5q0 68 -97 68q-96 0 -180 -35l-27 113q96 47 230 47q106 0 168.5 -47.5t62.5 -128.5q0 -69 -45.5 -118t-99.5 -63v-2q90 -33 90 -137q0 -106 -83 -167.5t-237 -61.5 q-130 0 -217 53z" />
<glyph unicode="&#xb4;" horiz-adv-x="1185" d="M676 1186l4 20l182 248h209l-4 -20l-225 -248h-166z" />
<glyph unicode="&#xb5;" horiz-adv-x="1142" d="M-57 -406l297 1393h182l-139 -655q-22 -101 18 -151t148 -50q112 0 282 105l162 751h184l-211 -987h-131l-4 90h-4q-175 -121 -338 -121q-49 0 -96.5 21.5t-71.5 52.5l-94 -449h-184z" />
<glyph unicode="&#xb6;" horiz-adv-x="1095" d="M141 -406l269 1258q-106 0 -171 56.5t-65 158.5q0 147 104 236.5t246 89.5h674l-31 -144h-188l-352 -1655h-146l353 1655h-193l-352 -1655h-148z" />
<glyph unicode="&#xb7;" horiz-adv-x="534" d="M135 565q0 69 46 115.5t116 46.5q50 0 77 -28t27 -76q0 -69 -45.5 -115.5t-115.5 -46.5q-50 0 -77.5 28t-27.5 76z" />
<glyph unicode="&#xb8;" horiz-adv-x="1185" d="M322 -408l40 113q55 -22 103 -22q58 0 85.5 20t27.5 66q0 61 -109 61l-8 20l94 164h137l-69 -112q52 -9 83 -44t31 -85q0 -209 -270 -209q-91 0 -145 28z" />
<glyph unicode="&#xb9;" horiz-adv-x="485" d="M217 1386l27 138l270 114h107l-148 -692h-143l112 527h-2l-204 -87h-19z" />
<glyph unicode="&#xba;" horiz-adv-x="792" d="M90 426l31 141h532l-30 -141h-533zM154 967q0 161 105 276t284 115q137 0 205.5 -75.5t68.5 -190.5q0 -105 -43 -192.5t-134 -144.5t-216 -57q-131 0 -200.5 77t-69.5 192zM311 971q0 -133 131 -133q107 0 162 64.5t55 178.5q0 136 -135 136q-106 0 -159.5 -66 t-53.5 -180z" />
<glyph unicode="&#xbb;" horiz-adv-x="1017" d="M18 205l322 362l-158 363l125 63l221 -428l-6 -24l-401 -428zM416 205l321 362l-157 363l125 63l221 -428l-6 -24l-402 -428z" />
<glyph unicode="&#xbc;" horiz-adv-x="1384" d="M12 0l4 20l1190 1373h164l-4 -21l-1190 -1372h-164zM205 1141l26 137l271 115h106l-147 -693h-144l113 527h-2l-205 -86h-18zM643 147l23 103l274 442h147l-258 -422v-2h185l49 234h145l-51 -234h84l-27 -121h-81l-31 -147h-146l33 147h-346z" />
<glyph unicode="&#xbd;" horiz-adv-x="1423" d="M12 0l4 20l1190 1373h164l-4 -21l-1190 -1372h-164zM205 1141l26 137l271 115h106l-147 -693h-144l113 527h-2l-205 -86h-18zM709 0l22 104l322 240q100 72 100 156q0 43 -26 63.5t-66 20.5q-44 0 -83 -19.5t-87 -56.5l-66 98q40 30 66 46.5t83.5 36.5t115.5 20 q92 0 153.5 -52t61.5 -135t-39.5 -139.5t-112.5 -110.5l-201 -147v-2h279l-27 -123h-495z" />
<glyph unicode="&#xbe;" horiz-adv-x="1478" d="M106 0l5 20l1189 1373h164l-4 -21l-1190 -1372h-164zM127 731l53 117q82 -45 178 -45q160 0 160 112q0 66 -119 66h-120l26 123h121q72 0 103.5 29.5t31.5 76.5q0 68 -96 68t-180 -35l-27 113q96 47 229 47q106 0 169 -47.5t63 -128.5q0 -69 -46 -117.5t-100 -62.5v-3 q42 -15 66.5 -50.5t24.5 -86.5q0 -106 -83 -167.5t-237 -61.5q-130 0 -217 53zM737 147l23 103l274 442h148l-258 -422v-2h184l49 234h146l-52 -234h84l-26 -121h-82l-31 -147h-145l32 147h-346z" />
<glyph unicode="&#xbf;" horiz-adv-x="952" d="M-55 -111q0 79 25.5 149t66 120.5t99 95.5t114.5 75t123 58l61 170h146l-58 -283q-77 -28 -129 -51t-102.5 -54.5t-80 -65.5t-47.5 -81t-18 -104q0 -78 47 -129t134 -51q143 0 315 110l74 -135q-83 -62 -190.5 -105.5t-215.5 -43.5q-163 0 -263.5 90t-100.5 235zM446 856 q0 69 46 115.5t116 46.5q49 0 77 -28.5t28 -76.5q0 -69 -46 -115t-116 -46q-49 0 -77 28t-28 76z" />
<glyph unicode="&#xc0;" horiz-adv-x="1267" d="M-100 0l811 1393h192l219 -1393h-188l-47 348h-588l-197 -348h-202zM395 508h463l-90 663h-4zM678 1788l4 20h192l56 -247l-4 -21h-150z" />
<glyph unicode="&#xc1;" horiz-adv-x="1267" d="M-100 0l811 1393h192l219 -1393h-188l-47 348h-588l-197 -348h-202zM395 508h463l-90 663h-4zM745 1540l5 21l161 247h209l-4 -20l-205 -248h-166z" />
<glyph unicode="&#xc2;" horiz-adv-x="1267" d="M-100 0l811 1393h192l219 -1393h-188l-47 348h-588l-197 -348h-202zM395 508h463l-90 663h-4zM539 1540l4 21l243 247h205l137 -247l-4 -21h-157l-97 146l-157 -146h-174z" />
<glyph unicode="&#xc3;" horiz-adv-x="1267" d="M-100 0l811 1393h192l219 -1393h-188l-47 348h-588l-197 -348h-202zM395 508h463l-90 663h-4zM549 1673q47 53 94 85t105 32q45 0 124.5 -41t118.5 -41q75 0 144 72l41 -103q-53 -57 -100 -86.5t-101 -29.5q-45 0 -124.5 40.5t-123.5 40.5q-31 0 -68.5 -19.5t-68.5 -51.5 z" />
<glyph unicode="&#xc4;" horiz-adv-x="1267" d="M-100 0l811 1393h192l219 -1393h-188l-47 348h-588l-197 -348h-202zM395 508h463l-90 663h-4zM524 1645q0 63 40.5 102t103.5 39q46 0 71 -23.5t25 -66.5q0 -62 -41 -102t-105 -40q-44 0 -69 24.5t-25 66.5zM967 1645q0 63 40 102t103 39q46 0 71 -23.5t25 -66.5 q0 -62 -40.5 -102t-104.5 -40q-44 0 -69 24.5t-25 66.5z" />
<glyph unicode="&#xc5;" horiz-adv-x="1269" d="M-100 0l770 1325q-56 44 -56 125q0 104 69 162.5t173 58.5q84 0 132 -42.5t48 -115.5q0 -139 -121 -198l207 -1315h-188l-47 348h-588l-197 -348h-202zM395 508h463l-90 663h-4zM737 1460q0 -61 72 -61q50 0 78 26.5t28 73.5q0 62 -71 62q-107 0 -107 -101z" />
<glyph unicode="&#xc6;" horiz-adv-x="1849" d="M-145 0l4 20l1112 1373h923l-36 -170h-682l-91 -428h619l-37 -170h-618l-97 -455h688l-34 -170h-879l76 348h-463l-277 -348h-208zM467 508h369l139 649h-4z" />
<glyph unicode="&#xc7;" horiz-adv-x="1214" d="M129 522q0 189 55 353.5t155 286t250 191.5t331 70q177 0 344 -90l-62 -149q-130 65 -299 65q-120 0 -218 -39.5t-163.5 -107t-110.5 -160t-65 -195.5t-20 -217q0 -183 84.5 -285t257.5 -102q165 0 327 66l39 -150q-200 -87 -377 -90l-41 -67q52 -9 83.5 -44t31.5 -85 q0 -209 -270 -209q-92 0 -146 28l41 113q55 -22 103 -22q58 0 85 20t27 66q0 61 -108 61l-8 20l73 130q-194 36 -296.5 180.5t-102.5 361.5z" />
<glyph unicode="&#xc8;" horiz-adv-x="1181" d="M61 0l297 1393h871l-37 -170h-682l-92 -428h618l-35 -170h-618l-98 -455h690l-37 -170h-877zM662 1788l4 20h192l55 -247l-4 -21h-149z" />
<glyph unicode="&#xc9;" horiz-adv-x="1181" d="M61 0l297 1393h871l-37 -170h-682l-92 -428h618l-35 -170h-618l-98 -455h690l-37 -170h-877zM743 1540l5 21l161 247h209l-4 -20l-205 -248h-166z" />
<glyph unicode="&#xca;" horiz-adv-x="1181" d="M61 0l297 1393h871l-37 -170h-682l-92 -428h618l-35 -170h-618l-98 -455h690l-37 -170h-877zM543 1540l4 21l244 247h204l138 -247l-5 -21h-157l-97 146l-157 -146h-174z" />
<glyph unicode="&#xcb;" horiz-adv-x="1181" d="M61 0l297 1393h871l-37 -170h-682l-92 -428h618l-35 -170h-618l-98 -455h690l-37 -170h-877zM510 1645q0 63 40 102t103 39q46 0 71.5 -23.5t25.5 -66.5q0 -62 -41 -102t-105 -40q-44 0 -69 24.5t-25 66.5zM952 1645q0 63 40.5 102t103.5 39q46 0 71 -23.5t25 -66.5 q0 -62 -40.5 -102t-104.5 -40q-44 0 -69.5 24.5t-25.5 66.5z" />
<glyph unicode="&#xcc;" horiz-adv-x="557" d="M61 0l297 1393h187l-295 -1393h-189zM315 1788l4 20h193l55 -247l-4 -21h-149z" />
<glyph unicode="&#xcd;" horiz-adv-x="557" d="M61 0l297 1393h187l-295 -1393h-189zM397 1540l4 21l162 247h209l-4 -20l-205 -248h-166z" />
<glyph unicode="&#xce;" horiz-adv-x="557" d="M61 0l297 1393h187l-295 -1393h-189zM184 1540l4 21l244 247h205l137 -247l-4 -21h-158l-96 146l-158 -146h-174z" />
<glyph unicode="&#xcf;" horiz-adv-x="557" d="M61 0l297 1393h187l-295 -1393h-189zM166 1645q0 63 40 102t103 39q46 0 71.5 -23.5t25.5 -66.5q0 -62 -41 -102t-105 -40q-44 0 -69 24.5t-25 66.5zM608 1645q0 63 40.5 102t103.5 39q46 0 71 -23.5t25 -66.5q0 -62 -41 -102t-105 -40q-44 0 -69 24.5t-25 66.5z" />
<glyph unicode="&#xd0;" horiz-adv-x="1402" d="M63 0l127 602h-104l35 170h106l133 621h359q598 0 598 -512q0 -881 -854 -881h-400zM287 170h166q131 0 232 20.5t185 70t138.5 129.5t84 200.5t29.5 281.5q0 182 -102.5 266.5t-343.5 84.5h-164l-96 -451h323l-37 -170h-323z" />
<glyph unicode="&#xd1;" horiz-adv-x="1435" d="M61 0l297 1393h191l448 -1106h4l236 1106h188l-297 -1393h-194l-445 1106h-4l-235 -1106h-189zM631 1673q48 53 94 85t104 32q45 0 125 -41t119 -41q75 0 144 72l40 -103q-53 -57 -99.5 -86.5t-100.5 -29.5q-45 0 -124.5 40.5t-123.5 40.5q-31 0 -68.5 -19.5t-68.5 -51.5 z" />
<glyph unicode="&#xd2;" horiz-adv-x="1478" d="M129 508q0 137 26 264.5t85 247t146 208t219 142t294 53.5q247 0 373.5 -146t126.5 -390q0 -136 -25.5 -264t-84 -248t-145 -209t-218.5 -143t-295 -54q-125 0 -222 40t-157.5 112.5t-91.5 170t-31 216.5zM326 518q0 -83 17.5 -149t54 -118t100 -80t149.5 -28 q111 0 200.5 34t146 84.5t98.5 124t63 138.5t33 143t14 121t2 89q0 83 -17.5 148.5t-54 117t-100 79t-149.5 27.5q-100 0 -183 -28.5t-139.5 -74.5t-100 -110.5t-68.5 -129.5t-40.5 -139.5t-20.5 -133t-5 -115.5zM795 1788l4 20h192l56 -247l-5 -21h-149z" />
<glyph unicode="&#xd3;" horiz-adv-x="1478" d="M129 508q0 137 26 264.5t85 247t146 208t219 142t294 53.5q247 0 373.5 -146t126.5 -390q0 -136 -25.5 -264t-84 -248t-145 -209t-218.5 -143t-295 -54q-125 0 -222 40t-157.5 112.5t-91.5 170t-31 216.5zM326 518q0 -83 17.5 -149t54 -118t100 -80t149.5 -28 q111 0 200.5 34t146 84.5t98.5 124t63 138.5t33 143t14 121t2 89q0 83 -17.5 148.5t-54 117t-100 79t-149.5 27.5q-100 0 -183 -28.5t-139.5 -74.5t-100 -110.5t-68.5 -129.5t-40.5 -139.5t-20.5 -133t-5 -115.5zM858 1540l4 21l162 247h209l-4 -20l-205 -248h-166z" />
<glyph unicode="&#xd4;" horiz-adv-x="1478" d="M129 508q0 137 26 264.5t85 247t146 208t219 142t294 53.5q247 0 373.5 -146t126.5 -390q0 -136 -25.5 -264t-84 -248t-145 -209t-218.5 -143t-295 -54q-125 0 -222 40t-157.5 112.5t-91.5 170t-31 216.5zM326 518q0 -83 17.5 -149t54 -118t100 -80t149.5 -28 q111 0 200.5 34t146 84.5t98.5 124t63 138.5t33 143t14 121t2 89q0 83 -17.5 148.5t-54 117t-100 79t-149.5 27.5q-100 0 -183 -28.5t-139.5 -74.5t-100 -110.5t-68.5 -129.5t-40.5 -139.5t-20.5 -133t-5 -115.5zM655 1540l4 21l244 247h205l137 -247l-4 -21h-158l-96 146 l-158 -146h-174z" />
<glyph unicode="&#xd5;" horiz-adv-x="1478" d="M129 508q0 137 26 264.5t85 247t146 208t219 142t294 53.5q247 0 373.5 -146t126.5 -390q0 -136 -25.5 -264t-84 -248t-145 -209t-218.5 -143t-295 -54q-125 0 -222 40t-157.5 112.5t-91.5 170t-31 216.5zM326 518q0 -83 17.5 -149t54 -118t100 -80t149.5 -28 q111 0 200.5 34t146 84.5t98.5 124t63 138.5t33 143t14 121t2 89q0 83 -17.5 148.5t-54 117t-100 79t-149.5 27.5q-100 0 -183 -28.5t-139.5 -74.5t-100 -110.5t-68.5 -129.5t-40.5 -139.5t-20.5 -133t-5 -115.5zM664 1673q48 53 94 85t104 32q45 0 125 -41t119 -41 q74 0 143 72l41 -103q-53 -57 -99.5 -86.5t-100.5 -29.5q-45 0 -124.5 40.5t-123.5 40.5q-31 0 -68.5 -19.5t-68.5 -51.5z" />
<glyph unicode="&#xd6;" horiz-adv-x="1478" d="M129 508q0 137 26 264.5t85 247t146 208t219 142t294 53.5q247 0 373.5 -146t126.5 -390q0 -136 -25.5 -264t-84 -248t-145 -209t-218.5 -143t-295 -54q-125 0 -222 40t-157.5 112.5t-91.5 170t-31 216.5zM326 518q0 -83 17.5 -149t54 -118t100 -80t149.5 -28 q111 0 200.5 34t146 84.5t98.5 124t63 138.5t33 143t14 121t2 89q0 83 -17.5 148.5t-54 117t-100 79t-149.5 27.5q-100 0 -183 -28.5t-139.5 -74.5t-100 -110.5t-68.5 -129.5t-40.5 -139.5t-20.5 -133t-5 -115.5zM639 1645q0 63 40 102t103 39q46 0 71.5 -23.5t25.5 -66.5 q0 -62 -41 -102t-105 -40q-44 0 -69 24.5t-25 66.5zM1081 1645q0 63 40.5 102t103.5 39q46 0 71 -23.5t25 -66.5q0 -62 -40.5 -102t-104.5 -40q-44 0 -69.5 24.5t-25.5 66.5z" />
<glyph unicode="&#xd7;" d="M86 225l401 336l-254 330l123 106l254 -333l406 340l96 -119l-407 -342l256 -332l-123 -107l-258 336l-398 -334z" />
<glyph unicode="&#xd8;" horiz-adv-x="1478" d="M92 25l123 143q-86 131 -86 340q0 137 26 264.5t85 247t146 208t219 142t294 53.5q198 0 322 -98l112 131l105 -88l-125 -143q86 -136 86 -338q0 -136 -25.5 -264t-84 -248t-145 -209t-218.5 -143t-295 -54q-197 0 -324 97l-108 -125zM326 518q0 -106 30 -188l740 852 q-79 67 -213 67q-100 0 -183 -28.5t-139.5 -74.5t-100 -110.5t-68.5 -129.5t-40.5 -139.5t-20.5 -133t-5 -115.5zM434 211q77 -68 213 -68q111 0 200.5 34t146 84.5t98.5 124t63 138.5t33 143t14 121t2 89q0 106 -30 188z" />
<glyph unicode="&#xd9;" horiz-adv-x="1400" d="M162 549l180 844h186l-182 -863q-40 -183 23.5 -285t236.5 -102t277.5 101.5t144.5 285.5l182 863h189l-191 -895q-26 -124 -73 -218t-120.5 -165.5t-180 -108.5t-244.5 -37q-265 0 -376 150.5t-52 429.5zM735 1788l4 20h193l55 -247l-4 -21h-149z" />
<glyph unicode="&#xda;" horiz-adv-x="1400" d="M162 549l180 844h186l-182 -863q-40 -183 23.5 -285t236.5 -102t277.5 101.5t144.5 285.5l182 863h189l-191 -895q-26 -124 -73 -218t-120.5 -165.5t-180 -108.5t-244.5 -37q-265 0 -376 150.5t-52 429.5zM803 1540l4 21l162 247h209l-4 -20l-205 -248h-166z" />
<glyph unicode="&#xdb;" horiz-adv-x="1400" d="M162 549l180 844h186l-182 -863q-40 -183 23.5 -285t236.5 -102t277.5 101.5t144.5 285.5l182 863h189l-191 -895q-26 -124 -73 -218t-120.5 -165.5t-180 -108.5t-244.5 -37q-265 0 -376 150.5t-52 429.5zM602 1540l4 21l244 247h205l137 -247l-4 -21h-158l-96 146 l-158 -146h-174z" />
<glyph unicode="&#xdc;" horiz-adv-x="1400" d="M162 549l180 844h186l-182 -863q-40 -183 23.5 -285t236.5 -102t277.5 101.5t144.5 285.5l182 863h189l-191 -895q-26 -124 -73 -218t-120.5 -165.5t-180 -108.5t-244.5 -37q-265 0 -376 150.5t-52 429.5zM586 1645q0 63 40 102t103 39q46 0 71 -23.5t25 -66.5 q0 -62 -40.5 -102t-104.5 -40q-44 0 -69 24.5t-25 66.5zM1028 1645q0 63 40 102t103 39q46 0 71.5 -23.5t25.5 -66.5q0 -62 -41 -102t-105 -40q-44 0 -69 24.5t-25 66.5z" />
<glyph unicode="&#xdd;" horiz-adv-x="1124" d="M184 1372l4 21h193l209 -627h4l481 627h209l-4 -21l-623 -784l-125 -588h-188l125 588zM676 1540l4 21l162 247h209l-4 -20l-205 -248h-166z" />
<glyph unicode="&#xde;" horiz-adv-x="1212" d="M61 0l297 1393h187l-53 -252h276q192 0 289.5 -89t97.5 -243q0 -240 -133 -382t-395 -142h-318l-59 -285h-189zM346 455h281q88 0 153 26t102 71.5t54.5 102t17.5 123.5q0 193 -217 193h-280z" />
<glyph unicode="&#xdf;" horiz-adv-x="1222" d="M33 0l207 973q49 230 180.5 350.5t322.5 120.5q172 0 271.5 -96t99.5 -236q0 -75 -20.5 -135.5t-58.5 -102t-76 -67.5t-87 -49v-4q92 -28 155 -102t63 -191q0 -235 -153 -363.5t-409 -128.5q-57 0 -120 13l34 157q41 -8 101 -8q172 0 265 87t93 249q0 99 -65 156t-199 57 h-33l33 151h41q119 0 181.5 76.5t62.5 190.5q0 83 -48 133.5t-139 50.5q-126 0 -200 -77t-111 -247l-203 -958h-188z" />
<glyph unicode="&#xe0;" horiz-adv-x="1177" d="M76 358q0 98 18.5 191.5t59 179t99 149.5t144 102t187.5 38q175 0 321 -121h4l41 90h129l-168 -797q-7 -29 1 -41t44 -12h54l-31 -145q-70 -17 -102 -17q-126 0 -140 115h-4q-77 -56 -155.5 -88.5t-176.5 -32.5q-68 0 -123 20.5t-92 55.5t-62.5 85t-36.5 106.5t-11 121.5 zM268 381q0 -250 199 -250q67 0 138.5 29.5t131.5 75.5l113 532q-102 88 -229 88q-83 0 -147.5 -32.5t-102 -81.5t-62 -115t-33 -125.5t-8.5 -120.5zM530 1434l5 20h192l76 -248l-4 -20h-150z" />
<glyph unicode="&#xe1;" horiz-adv-x="1177" d="M76 358q0 98 18.5 191.5t59 179t99 149.5t144 102t187.5 38q175 0 321 -121h4l41 90h129l-168 -797q-7 -29 1 -41t44 -12h54l-31 -145q-70 -17 -102 -17q-126 0 -140 115h-4q-77 -56 -155.5 -88.5t-176.5 -32.5q-68 0 -123 20.5t-92 55.5t-62.5 85t-36.5 106.5t-11 121.5 zM268 381q0 -250 199 -250q67 0 138.5 29.5t131.5 75.5l113 532q-102 88 -229 88q-83 0 -147.5 -32.5t-102 -81.5t-62 -115t-33 -125.5t-8.5 -120.5zM625 1186l4 20l182 248h209l-4 -20l-225 -248h-166z" />
<glyph unicode="&#xe2;" horiz-adv-x="1177" d="M76 358q0 98 18.5 191.5t59 179t99 149.5t144 102t187.5 38q175 0 321 -121h4l41 90h129l-168 -797q-7 -29 1 -41t44 -12h54l-31 -145q-70 -17 -102 -17q-126 0 -140 115h-4q-77 -56 -155.5 -88.5t-176.5 -32.5q-68 0 -123 20.5t-92 55.5t-62.5 85t-36.5 106.5t-11 121.5 zM268 381q0 -250 199 -250q67 0 138.5 29.5t131.5 75.5l113 532q-102 88 -229 88q-83 0 -147.5 -32.5t-102 -81.5t-62 -115t-33 -125.5t-8.5 -120.5zM410 1186l4 20l241 248h207l137 -248l-4 -20h-159l-95 151l-157 -151h-174z" />
<glyph unicode="&#xe3;" horiz-adv-x="1177" d="M76 358q0 98 18.5 191.5t59 179t99 149.5t144 102t187.5 38q175 0 321 -121h4l41 90h129l-168 -797q-7 -29 1 -41t44 -12h54l-31 -145q-70 -17 -102 -17q-126 0 -140 115h-4q-77 -56 -155.5 -88.5t-176.5 -32.5q-68 0 -123 20.5t-92 55.5t-62.5 85t-36.5 106.5t-11 121.5 zM268 381q0 -250 199 -250q67 0 138.5 29.5t131.5 75.5l113 532q-102 88 -229 88q-83 0 -147.5 -32.5t-102 -81.5t-62 -115t-33 -125.5t-8.5 -120.5zM418 1298q48 53 94 85t104 32q45 0 125 -41t119 -41q75 0 144 72l40 -102q-54 -58 -100 -87.5t-100 -29.5q-45 0 -124.5 41 t-123.5 41q-31 0 -68.5 -20t-68.5 -52z" />
<glyph unicode="&#xe4;" horiz-adv-x="1177" d="M76 358q0 98 18.5 191.5t59 179t99 149.5t144 102t187.5 38q175 0 321 -121h4l41 90h129l-168 -797q-7 -29 1 -41t44 -12h54l-31 -145q-70 -17 -102 -17q-126 0 -140 115h-4q-77 -56 -155.5 -88.5t-176.5 -32.5q-68 0 -123 20.5t-92 55.5t-62.5 85t-36.5 106.5t-11 121.5 zM268 381q0 -250 199 -250q67 0 138.5 29.5t131.5 75.5l113 532q-102 88 -229 88q-83 0 -147.5 -32.5t-102 -81.5t-62 -115t-33 -125.5t-8.5 -120.5zM414 1272q0 63 40 102t103 39q46 0 72 -23.5t26 -66.5q0 -62 -40.5 -101.5t-106.5 -39.5q-44 0 -69 24t-25 66zM815 1272 q0 63 40 102t103 39q46 0 71.5 -23.5t25.5 -66.5q0 -62 -41 -101.5t-105 -39.5q-44 0 -69 24t-25 66z" />
<glyph unicode="&#xe5;" horiz-adv-x="1177" d="M76 358q0 98 18.5 191.5t59 179t99 149.5t144 102t187.5 38q175 0 321 -121h4l41 90h129l-168 -797q-7 -29 1 -41t44 -12h54l-31 -145q-70 -17 -102 -17q-126 0 -140 115h-4q-77 -56 -155.5 -88.5t-176.5 -32.5q-68 0 -123 20.5t-92 55.5t-62.5 85t-36.5 106.5t-11 121.5 zM268 381q0 -250 199 -250q67 0 138.5 29.5t131.5 75.5l113 532q-102 88 -229 88q-83 0 -147.5 -32.5t-102 -81.5t-62 -115t-33 -125.5t-8.5 -120.5zM522 1276q0 104 69 162.5t173 58.5q84 0 132 -42.5t48 -115.5q0 -104 -68.5 -164.5t-173.5 -60.5q-84 0 -132 44t-48 118z M645 1286q0 -61 72 -61q50 0 78 26.5t28 73.5q0 61 -71 61q-107 0 -107 -100z" />
<glyph unicode="&#xe6;" horiz-adv-x="1671" d="M20 231q0 99 34 169t101.5 110t156 58t208.5 18h205l12 55q23 105 -25 160t-161 55q-68 0 -149 -23.5t-146 -60.5l-57 137q173 109 370 109q116 0 197 -39t113 -111q158 150 356 150q89 0 158.5 -27.5t111.5 -75.5t63 -107t21 -126q0 -19 -2 -39.5t-4.5 -37t-7 -36 t-8 -32.5t-10 -31.5t-9 -26.5t-9 -25t-7.5 -20h-660q-24 -134 35.5 -219.5t188.5 -85.5q83 0 147 23t141 67l64 -143q-184 -107 -383 -107q-125 0 -206.5 57t-115.5 154q-178 -211 -442 -211q-123 0 -202 76t-79 186zM205 252q0 -60 38 -90.5t107 -30.5q49 0 101.5 19 t101.5 55t87.5 95.5t53.5 133.5h-157q-102 0 -169 -11.5t-102 -36.5t-48 -56t-13 -78zM903 582h500q16 50 16 92q0 85 -51.5 135.5t-148.5 50.5q-114 0 -198.5 -76.5t-117.5 -201.5z" />
<glyph unicode="&#xe7;" horiz-adv-x="978" d="M74 381q0 134 42 250.5t116.5 202t185 135t241.5 49.5q73 0 150.5 -20.5t136.5 -51.5l-55 -143q-45 21 -112 37t-132 16q-87 0 -161 -41t-121 -106.5t-73 -144.5t-26 -158q0 -117 57 -196t171 -79q130 0 264 53l37 -143q-154 -66 -301 -72l-41 -67q52 -9 83 -44t31 -85 q0 -209 -270 -209q-91 0 -145 28l41 113q55 -22 102 -22q58 0 85.5 20t27.5 66q0 61 -109 61l-8 20l74 132q-140 30 -215.5 137t-75.5 262z" />
<glyph unicode="&#xe8;" horiz-adv-x="1091" d="M72 381q0 120 39 233.5t109.5 203.5t178.5 145t236 55q96 0 169.5 -28.5t117.5 -77.5t66 -109.5t22 -130.5q0 -102 -58 -238h-692q-6 -24 -6 -57q0 -119 63.5 -184.5t184.5 -65.5q90 0 160.5 24.5t144.5 67.5l63 -143q-184 -107 -399 -107q-101 0 -179.5 33t-125.5 90.5 t-70.5 130.5t-23.5 158zM293 582h524q17 53 17 92q0 85 -54 135.5t-157 50.5q-119 0 -207.5 -76.5t-122.5 -201.5zM530 1434l5 20h192l76 -248l-4 -20h-150z" />
<glyph unicode="&#xe9;" horiz-adv-x="1091" d="M72 381q0 120 39 233.5t109.5 203.5t178.5 145t236 55q96 0 169.5 -28.5t117.5 -77.5t66 -109.5t22 -130.5q0 -102 -58 -238h-692q-6 -24 -6 -57q0 -119 63.5 -184.5t184.5 -65.5q90 0 160.5 24.5t144.5 67.5l63 -143q-184 -107 -399 -107q-101 0 -179.5 33t-125.5 90.5 t-70.5 130.5t-23.5 158zM293 582h524q17 53 17 92q0 85 -54 135.5t-157 50.5q-119 0 -207.5 -76.5t-122.5 -201.5zM618 1186l5 20l182 248h209l-4 -20l-226 -248h-166z" />
<glyph unicode="&#xea;" horiz-adv-x="1091" d="M72 381q0 120 39 233.5t109.5 203.5t178.5 145t236 55q96 0 169.5 -28.5t117.5 -77.5t66 -109.5t22 -130.5q0 -102 -58 -238h-692q-6 -24 -6 -57q0 -119 63.5 -184.5t184.5 -65.5q90 0 160.5 24.5t144.5 67.5l63 -143q-184 -107 -399 -107q-101 0 -179.5 33t-125.5 90.5 t-70.5 130.5t-23.5 158zM293 582h524q17 53 17 92q0 85 -54 135.5t-157 50.5q-119 0 -207.5 -76.5t-122.5 -201.5zM412 1186l4 20l241 248h207l137 -248l-4 -20h-159l-95 151l-157 -151h-174z" />
<glyph unicode="&#xeb;" horiz-adv-x="1091" d="M72 381q0 120 39 233.5t109.5 203.5t178.5 145t236 55q96 0 169.5 -28.5t117.5 -77.5t66 -109.5t22 -130.5q0 -102 -58 -238h-692q-6 -24 -6 -57q0 -119 63.5 -184.5t184.5 -65.5q90 0 160.5 24.5t144.5 67.5l63 -143q-184 -107 -399 -107q-101 0 -179.5 33t-125.5 90.5 t-70.5 130.5t-23.5 158zM293 582h524q17 53 17 92q0 85 -54 135.5t-157 50.5q-119 0 -207.5 -76.5t-122.5 -201.5zM406 1272q0 63 40 102t103 39q46 0 72 -23.5t26 -66.5q0 -62 -40.5 -101.5t-106.5 -39.5q-44 0 -69 24t-25 66zM807 1272q0 63 40 102t103 39 q46 0 71.5 -23.5t25.5 -66.5q0 -62 -41 -101.5t-105 -39.5q-44 0 -69 24t-25 66z" />
<glyph unicode="&#xec;" horiz-adv-x="491" d="M31 0l209 987h184l-209 -987h-184zM186 1434l4 20h193l76 -248l-4 -20h-150z" />
<glyph unicode="&#xed;" horiz-adv-x="493" d="M33 0l209 987h184l-209 -987h-184zM287 1186l4 20l182 248h209l-4 -20l-225 -248h-166z" />
<glyph unicode="&#xee;" horiz-adv-x="491" d="M31 0l209 987h184l-209 -987h-184zM78 1186l4 20l242 248h206l138 -248l-4 -20h-160l-94 151l-158 -151h-174z" />
<glyph unicode="&#xef;" horiz-adv-x="491" d="M31 0l209 987h184l-209 -987h-184zM78 1272q0 63 40 102t103 39q46 0 72 -23.5t26 -66.5q0 -62 -40.5 -101.5t-106.5 -39.5q-44 0 -69 24t-25 66zM479 1272q0 63 40.5 102t103.5 39q46 0 71 -23.5t25 -66.5q0 -62 -41 -101.5t-105 -39.5q-44 0 -69 24t-25 66z" />
<glyph unicode="&#xf0;" horiz-adv-x="1189" d="M72 379q0 257 155.5 425.5t384.5 168.5q77 0 145 -22t111 -62l6 4q-39 135 -122 254l-228 -57l-16 120l162 41q-64 95 -131 162l4 21h209q17 -21 48.5 -68t45.5 -66l209 54l16 -123l-151 -37q73 -130 116 -283.5t43 -296.5q0 -182 -70.5 -327.5t-206.5 -231.5t-315 -86 q-131 0 -226.5 55.5t-142 147.5t-46.5 207zM264 401q0 -118 64 -188t176 -70q166 0 275.5 116.5t109.5 295.5q0 116 -65 180t-181 64q-163 0 -271 -109.5t-108 -288.5z" />
<glyph unicode="&#xf1;" horiz-adv-x="1150" d="M33 0l209 987h133l2 -90h4q64 46 158 83.5t188 37.5q169 0 249.5 -102t39.5 -298l-133 -618h-185l129 604q28 128 -11 190t-148 62q-70 0 -153.5 -33t-137.5 -71l-160 -752h-184zM432 1298q47 53 94 85t105 32q45 0 124.5 -41t118.5 -41q75 0 144 72l41 -102 q-53 -58 -100 -87.5t-101 -29.5q-45 0 -124.5 41t-123.5 41q-31 0 -68.5 -20t-68.5 -52z" />
<glyph unicode="&#xf2;" horiz-adv-x="1177" d="M74 373q0 98 20.5 189t66 174.5t112 145.5t165.5 99t219 37q105 0 185.5 -32.5t128.5 -89t72 -128.5t24 -156q0 -98 -21 -189t-68 -174t-114.5 -145t-167.5 -98.5t-221 -36.5q-103 0 -181.5 32t-125.5 88.5t-70.5 128t-23.5 155.5zM264 385q0 -117 54 -185.5t171 -68.5 q82 0 149 28t111 74t73.5 107.5t42 125.5t12.5 132q0 118 -57 188t-177 70q-84 0 -151.5 -29.5t-109 -77t-69 -110.5t-38.5 -126t-11 -128zM535 1434l4 20h192l76 -248l-4 -20h-150z" />
<glyph unicode="&#xf3;" horiz-adv-x="1177" d="M74 373q0 98 20.5 189t66 174.5t112 145.5t165.5 99t219 37q105 0 185.5 -32.5t128.5 -89t72 -128.5t24 -156q0 -98 -21 -189t-68 -174t-114.5 -145t-167.5 -98.5t-221 -36.5q-103 0 -181.5 32t-125.5 88.5t-70.5 128t-23.5 155.5zM264 385q0 -117 54 -185.5t171 -68.5 q82 0 149 28t111 74t73.5 107.5t42 125.5t12.5 132q0 118 -57 188t-177 70q-84 0 -151.5 -29.5t-109 -77t-69 -110.5t-38.5 -126t-11 -128zM629 1186l4 20l182 248h209l-4 -20l-225 -248h-166z" />
<glyph unicode="&#xf4;" horiz-adv-x="1177" d="M74 373q0 98 20.5 189t66 174.5t112 145.5t165.5 99t219 37q105 0 185.5 -32.5t128.5 -89t72 -128.5t24 -156q0 -98 -21 -189t-68 -174t-114.5 -145t-167.5 -98.5t-221 -36.5q-103 0 -181.5 32t-125.5 88.5t-70.5 128t-23.5 155.5zM264 385q0 -117 54 -185.5t171 -68.5 q82 0 149 28t111 74t73.5 107.5t42 125.5t12.5 132q0 118 -57 188t-177 70q-84 0 -151.5 -29.5t-109 -77t-69 -110.5t-38.5 -126t-11 -128zM418 1186l4 20l242 248h206l138 -248l-4 -20h-160l-94 151l-158 -151h-174z" />
<glyph unicode="&#xf5;" horiz-adv-x="1177" d="M74 373q0 98 20.5 189t66 174.5t112 145.5t165.5 99t219 37q105 0 185.5 -32.5t128.5 -89t72 -128.5t24 -156q0 -98 -21 -189t-68 -174t-114.5 -145t-167.5 -98.5t-221 -36.5q-103 0 -181.5 32t-125.5 88.5t-70.5 128t-23.5 155.5zM264 385q0 -117 54 -185.5t171 -68.5 q82 0 149 28t111 74t73.5 107.5t42 125.5t12.5 132q0 118 -57 188t-177 70q-84 0 -151.5 -29.5t-109 -77t-69 -110.5t-38.5 -126t-11 -128zM424 1298q47 53 94 85t105 32q45 0 124.5 -41t118.5 -41q75 0 144 72l41 -102q-53 -58 -100 -87.5t-101 -29.5q-45 0 -124.5 41 t-123.5 41q-31 0 -68.5 -20t-68.5 -52z" />
<glyph unicode="&#xf6;" horiz-adv-x="1177" d="M74 373q0 98 20.5 189t66 174.5t112 145.5t165.5 99t219 37q105 0 185.5 -32.5t128.5 -89t72 -128.5t24 -156q0 -98 -21 -189t-68 -174t-114.5 -145t-167.5 -98.5t-221 -36.5q-103 0 -181.5 32t-125.5 88.5t-70.5 128t-23.5 155.5zM264 385q0 -117 54 -185.5t171 -68.5 q82 0 149 28t111 74t73.5 107.5t42 125.5t12.5 132q0 118 -57 188t-177 70q-84 0 -151.5 -29.5t-109 -77t-69 -110.5t-38.5 -126t-11 -128zM420 1272q0 63 40 102t103 39q46 0 72.5 -24t26.5 -66q0 -62 -41 -101.5t-107 -39.5q-44 0 -69 24t-25 66zM821 1272q0 63 40.5 102 t103.5 39q46 0 71 -23.5t25 -66.5q0 -62 -41 -101.5t-105 -39.5q-44 0 -69 24t-25 66z" />
<glyph unicode="&#xf7;" d="M102 477l33 152h959l-31 -152h-961zM375 115q0 69 46 115t116 46q50 0 78 -28t28 -76q0 -69 -47 -115.5t-117 -46.5q-49 0 -76.5 28.5t-27.5 76.5zM549 934q0 69 46.5 115.5t115.5 46.5q50 0 78 -28.5t28 -76.5q0 -69 -47 -115.5t-117 -46.5q-49 0 -76.5 28.5t-27.5 76.5 z" />
<glyph unicode="&#xf8;" horiz-adv-x="1177" d="M35 33l98 102q-59 98 -59 238q0 98 20.5 189t66 174.5t112 145.5t165.5 99t219 37q157 0 258 -72l99 103l100 -97l-104 -108q57 -99 57 -232q0 -98 -21 -189t-68 -174t-114.5 -145t-167.5 -98.5t-221 -36.5q-152 0 -248 68l-100 -105zM264 385q0 -55 12 -102l512 530 q-59 43 -145 43q-84 0 -151.5 -29.5t-109 -77t-69 -110.5t-38.5 -126t-11 -128zM354 168q49 -37 135 -37q82 0 149 28t111 74t73.5 107.5t42 125.5t12.5 132q0 49 -13 96z" />
<glyph unicode="&#xf9;" horiz-adv-x="1134" d="M96 365l133 622h183l-129 -604q-28 -130 7 -191t146 -61q67 0 146 32t141 73l158 751h184l-209 -987h-131l-4 90h-4q-65 -46 -156 -83.5t-184 -37.5q-168 0 -245.5 101t-35.5 295zM510 1434l4 20h193l75 -248l-4 -20h-149z" />
<glyph unicode="&#xfa;" horiz-adv-x="1134" d="M96 365l133 622h183l-129 -604q-28 -130 7 -191t146 -61q67 0 146 32t141 73l158 751h184l-209 -987h-131l-4 90h-4q-65 -46 -156 -83.5t-184 -37.5q-168 0 -245.5 101t-35.5 295zM608 1186l4 20l183 248h209l-5 -20l-225 -248h-166z" />
<glyph unicode="&#xfb;" horiz-adv-x="1134" d="M96 365l133 622h183l-129 -604q-28 -130 7 -191t146 -61q67 0 146 32t141 73l158 751h184l-209 -987h-131l-4 90h-4q-65 -46 -156 -83.5t-184 -37.5q-168 0 -245.5 101t-35.5 295zM397 1186l4 20l242 248h207l137 -248l-4 -20h-160l-94 151l-158 -151h-174z" />
<glyph unicode="&#xfc;" horiz-adv-x="1134" d="M96 365l133 622h183l-129 -604q-28 -130 7 -191t146 -61q67 0 146 32t141 73l158 751h184l-209 -987h-131l-4 90h-4q-65 -46 -156 -83.5t-184 -37.5q-168 0 -245.5 101t-35.5 295zM397 1272q0 63 40.5 102t103.5 39q46 0 72 -23.5t26 -66.5q0 -62 -40.5 -101.5 t-106.5 -39.5q-44 0 -69.5 24.5t-25.5 65.5zM799 1272q0 63 40 102t103 39q46 0 71 -23.5t25 -66.5q0 -62 -40.5 -101.5t-104.5 -39.5q-44 0 -69 24t-25 66z" />
<glyph unicode="&#xfd;" horiz-adv-x="1017" d="M-133 -416l27 156q91 -14 135 -14q64 0 111.5 36.5t92.5 116.5l74 131l-186 957l4 20h182l123 -756h6l430 756h191l-4 -20l-662 -1137q-77 -133 -165.5 -199.5t-200.5 -66.5q-65 0 -158 20zM563 1186l4 20l183 248h208l-4 -20l-225 -248h-166z" />
<glyph unicode="&#xfe;" horiz-adv-x="1165" d="M-55 -406l391 1840h184l-110 -516h4q71 50 137 75t168 25q85 0 150.5 -31t105.5 -85t60 -123.5t20 -151.5q0 -97 -19.5 -190t-61 -178.5t-101 -149.5t-146 -102t-188.5 -38q-189 0 -306 101h-4l-100 -476h-184zM262 217q92 -86 240 -86q68 0 124.5 21.5t94.5 58.5t67 84 t45 101.5t23.5 106t7.5 103.5q0 113 -50.5 181.5t-158.5 68.5q-68 0 -142.5 -30t-135.5 -76z" />
<glyph unicode="&#xff;" horiz-adv-x="1017" d="M-133 -416l27 156q91 -14 135 -14q64 0 111.5 36.5t92.5 116.5l74 131l-186 957l4 20h182l123 -756h6l430 756h191l-4 -20l-662 -1137q-77 -133 -165.5 -199.5t-200.5 -66.5q-65 0 -158 20zM342 1272q0 63 40 102t103 39q46 0 72.5 -24t26.5 -66q0 -62 -41 -101.5 t-107 -39.5q-44 0 -69 24t-25 66zM743 1272q0 63 40.5 102t103.5 39q46 0 71 -23.5t25 -66.5q0 -62 -40.5 -101.5t-104.5 -39.5q-44 0 -69.5 24.5t-25.5 65.5z" />
<glyph unicode="&#x152;" horiz-adv-x="1949" d="M131 508q0 139 27 268.5t87 248t147.5 206.5t218.5 140t290 52q141 0 227 -30h867l-37 -170h-682l-90 -428h618l-37 -170h-618l-96 -455h688l-37 -170h-873q-102 -31 -198 -31q-128 0 -226 41t-157.5 115t-89 170.5t-29.5 212.5zM328 518q0 -83 17.5 -149t54 -118 t100 -80t149.5 -28q132 0 217 35l219 1034q-75 37 -200 37q-100 0 -183 -28.5t-139.5 -74.5t-100 -110.5t-68.5 -129.5t-40.5 -139.5t-20.5 -133t-5 -115.5z" />
<glyph unicode="&#x153;" horiz-adv-x="1867" d="M74 373q0 98 20.5 189t66 174.5t112 145.5t165.5 99t219 37q261 0 351 -201q70 94 172.5 147.5t230.5 53.5q96 0 169.5 -28.5t117.5 -77.5t66 -109.5t22 -130.5q0 -104 -57 -238h-693q-6 -24 -6 -57q0 -119 63.5 -184.5t184.5 -65.5q90 0 160.5 24.5t144.5 67.5l64 -143 q-184 -107 -400 -107q-249 0 -338 193q-148 -193 -434 -193q-103 0 -181.5 32t-125.5 88.5t-70.5 128t-23.5 155.5zM264 385q0 -117 54 -185.5t171 -68.5q82 0 149 28t111 74t73.5 107.5t42 125.5t12.5 132q0 118 -57 188t-177 70q-84 0 -151.5 -29.5t-109 -77t-69 -110.5 t-38.5 -126t-11 -128zM1069 582h524q17 53 17 92q0 85 -54 135.5t-157 50.5q-119 0 -207.5 -76.5t-122.5 -201.5z" />
<glyph unicode="&#x178;" horiz-adv-x="1124" d="M184 1372l4 21h193l209 -627h4l481 627h209l-4 -21l-623 -784l-125 -588h-188l125 588zM453 1645q0 63 40 102t103 39q46 0 71 -23.5t25 -66.5q0 -62 -40.5 -102t-104.5 -40q-44 0 -69 24.5t-25 66.5zM895 1645q0 63 40 102t103 39q46 0 71.5 -23.5t25.5 -66.5 q0 -62 -41 -102t-105 -40q-44 0 -69 24.5t-25 66.5z" />
<glyph unicode="&#x2c6;" horiz-adv-x="1183" d="M551 1186l4 20l242 248h207l137 -248l-4 -20h-160l-94 151l-158 -151h-174z" />
<glyph unicode="&#x2dc;" horiz-adv-x="1183" d="M551 1298q47 53 94 85t105 32q45 0 124.5 -41t118.5 -41q75 0 144 72l41 -102q-53 -58 -100 -87.5t-101 -29.5q-45 0 -124.5 41t-123.5 41q-31 0 -68.5 -20t-68.5 -52z" />
<glyph unicode="&#x2000;" horiz-adv-x="904" />
<glyph unicode="&#x2001;" horiz-adv-x="1808" />
<glyph unicode="&#x2002;" horiz-adv-x="904" />
<glyph unicode="&#x2003;" horiz-adv-x="1808" />
<glyph unicode="&#x2004;" horiz-adv-x="602" />
<glyph unicode="&#x2005;" horiz-adv-x="452" />
<glyph unicode="&#x2006;" horiz-adv-x="301" />
<glyph unicode="&#x2007;" horiz-adv-x="301" />
<glyph unicode="&#x2008;" horiz-adv-x="226" />
<glyph unicode="&#x2009;" horiz-adv-x="361" />
<glyph unicode="&#x200a;" horiz-adv-x="100" />
<glyph unicode="&#x2010;" horiz-adv-x="827" d="M125 477l33 152h532l-31 -152h-534z" />
<glyph unicode="&#x2011;" horiz-adv-x="827" d="M125 477l33 152h532l-31 -152h-534z" />
<glyph unicode="&#x2012;" horiz-adv-x="827" d="M125 477l33 152h532l-31 -152h-534z" />
<glyph unicode="&#x2013;" horiz-adv-x="1146" d="M125 477l33 152h852l-33 -152h-852z" />
<glyph unicode="&#x2014;" horiz-adv-x="1814" d="M125 477l33 152h1519l-32 -152h-1520z" />
<glyph unicode="&#x2018;" horiz-adv-x="522" d="M172 854l4 20l258 519h146l-5 -21l-194 -518h-209z" />
<glyph unicode="&#x2019;" horiz-adv-x="512" d="M182 854l4 20l195 519h209l-4 -21l-258 -518h-146z" />
<glyph unicode="&#x201a;" horiz-adv-x="520" d="M-104 -330l4 21l194 518h209l-4 -21l-258 -518h-145z" />
<glyph unicode="&#x201c;" horiz-adv-x="880" d="M172 854l4 20l258 519h146l-5 -21l-194 -518h-209zM530 854l5 20l258 519h145l-4 -21l-195 -518h-209z" />
<glyph unicode="&#x201d;" horiz-adv-x="870" d="M182 854l4 20l195 519h209l-4 -21l-258 -518h-146zM541 854l4 20l194 519h209l-4 -21l-258 -518h-145z" />
<glyph unicode="&#x201e;" horiz-adv-x="878" d="M-104 -330l4 21l194 518h209l-4 -21l-258 -518h-145zM254 -330l4 21l195 518h209l-5 -21l-258 -518h-145z" />
<glyph unicode="&#x2022;" horiz-adv-x="700" d="M174 559q0 91 61.5 152t153.5 61q67 0 104 -37.5t37 -101.5q0 -91 -61.5 -152t-153.5 -61q-67 0 -104 37.5t-37 101.5z" />
<glyph unicode="&#x2026;" horiz-adv-x="1409" d="M23 74q0 69 45.5 115.5t115.5 46.5q50 0 77.5 -28.5t27.5 -76.5q0 -69 -46 -115.5t-116 -46.5q-50 0 -77 28.5t-27 76.5zM475 74q0 69 46 115.5t116 46.5q50 0 77 -28.5t27 -76.5q0 -69 -45.5 -115.5t-115.5 -46.5q-50 0 -77.5 28.5t-27.5 76.5zM926 74q0 69 45.5 115.5 t115.5 46.5q50 0 77.5 -28.5t27.5 -76.5q0 -69 -46 -115.5t-116 -46.5q-50 0 -77 28.5t-27 76.5z" />
<glyph unicode="&#x202f;" horiz-adv-x="361" />
<glyph unicode="&#x2039;" horiz-adv-x="620" d="M82 541l6 24l401 428l103 -92l-322 -362l158 -363l-125 -63z" />
<glyph unicode="&#x203a;" horiz-adv-x="620" d="M18 205l322 362l-158 363l125 63l221 -428l-6 -24l-401 -428z" />
<glyph unicode="&#x205f;" horiz-adv-x="452" />
<glyph unicode="&#x20ac;" d="M43 446l78 152h100q14 100 41 188h-147l78 152h122q207 485 629 485q162 0 320 -90l-64 -149q-122 65 -272 65q-281 0 -420 -311h575l-75 -152h-562q-27 -87 -38 -188h516l-74 -152h-447q6 -148 75 -225.5t214 -77.5q155 0 301 66l39 -150q-194 -90 -356 -90 q-222 0 -342.5 126.5t-120.5 350.5h-170z" />
<glyph unicode="&#x2122;" horiz-adv-x="1478" d="M283 1325l22 109h471l-22 -109h-170l-99 -465h-131l99 465h-170zM762 860l123 574h141l94 -283h4l215 283h158l-121 -574h-131l82 381h-2l-176 -244h-102l-70 244h-2l-82 -381h-131z" />
<glyph unicode="&#x25fc;" horiz-adv-x="983" d="M0 0v983h983v-983h-983z" />
<glyph unicode="&#xfb01;" horiz-adv-x="1218" d="M102 0l179 836h-175l25 110l180 41l29 135q36 169 124.5 245.5t240.5 76.5q75 0 149 -17l-35 -159q-68 14 -117 14q-75 0 -115.5 -31.5t-58.5 -113.5l-32 -150h655l-209 -987h-184l178 836h-473l-176 -836h-185zM1001 1251q0 63 40.5 102.5t103.5 39.5q47 0 72.5 -23.5 t25.5 -66.5q0 -62 -41.5 -102t-105.5 -40q-44 0 -69.5 24.5t-25.5 65.5z" />
<glyph unicode="&#xfb02;" horiz-adv-x="1263" d="M102 0l179 836h-175l25 110l180 41l29 135q36 169 124.5 245.5t240.5 76.5q75 0 149 -17l-35 -159q-68 14 -117 14q-75 0 -115.5 -31.5t-58.5 -113.5l-32 -150h264l-33 -151h-264l-176 -836h-185zM807 213l260 1221h182l-264 -1244q-8 -26 -0.5 -39.5t39.5 -13.5h92 l-31 -145q-70 -17 -108 -17q-222 0 -170 238z" />
</font>
</defs>
</svg>
