<?xml version="1.0" standalone="no"?>
<!DOCTYPE svg PUBLIC "-//W3C//DTD SVG 1.1//EN" "http://www.w3.org/Graphics/SVG/1.1/DTD/svg11.dtd" >
<svg xmlns="http://www.w3.org/2000/svg">
<metadata></metadata>
<defs>
<font id="vw_headlight" horiz-adv-x="1208" >
<font-face units-per-em="2048" ascent="1612" descent="-436" />
<missing-glyph horiz-adv-x="542" />
<glyph horiz-adv-x="0" />
<glyph horiz-adv-x="0" />
<glyph horiz-adv-x="682" />
<glyph unicode="&#xd;" horiz-adv-x="555" />
<glyph unicode=" "  horiz-adv-x="542" />
<glyph unicode="&#x09;" horiz-adv-x="542" />
<glyph unicode="&#xa0;" horiz-adv-x="542" />
<glyph unicode="!" horiz-adv-x="475" d="M145 59q0 39 26 65t65 26q38 0 64 -26t26 -65t-25.5 -64.5t-64.5 -25.5t-65 25.5t-26 64.5zM186 1001v392h103v-392l-19 -604h-65z" />
<glyph unicode="&#x22;" horiz-adv-x="714" d="M162 1176v217h98v-217l-16 -353h-66zM455 1176v217h98v-217l-16 -353h-66z" />
<glyph unicode="#" horiz-adv-x="1310" d="M94 383v92h238l119 465h-230v92h254l92 361h92v-11l-90 -350h334l94 361h90v-11l-90 -350h222v-92h-244l-119 -465h231v-92h-256l-96 -383h-94v10l96 373h-334l-98 -383h-92v10l94 373h-213zM426 475h334l121 465h-336z" />
<glyph unicode="$" d="M174 125l53 82q147 -129 342 -139v602l-71 28q-140 52 -216.5 139.5t-76.5 204.5q0 153 97 257.5t267 119.5v158h99v-156q186 -11 331 -114l-47 -86q-135 90 -284 102v-580q186 -71 271 -161t85 -228q0 -152 -98.5 -256.5t-257.5 -124.5v-194h-99v192q-219 9 -395 154z M311 1044q0 -86 54 -146t176 -105l28 -13v541q-122 -13 -190 -89t-68 -188zM668 74q110 18 180 90.5t70 187.5q0 98 -59.5 162.5t-190.5 118.5v-559z" />
<glyph unicode="%" horiz-adv-x="1501" d="M98 1055q0 158 67.5 252t199.5 94t199 -93.5t67 -252.5t-67 -252.5t-199 -93.5t-199.5 94t-67.5 252zM188 1055q0 -264 177 -264q176 0 176 264t-176 264q-177 0 -177 -264zM297 0v10l809 1383h98v-11l-809 -1382h-98zM870 334q0 158 67.5 252t199.5 94t199 -93.5 t67 -252.5t-67 -252.5t-199 -93.5t-199.5 94t-67.5 252zM961 334q0 -264 176 -264t176 264t-176 264t-176 -264z" />
<glyph unicode="&#x26;" horiz-adv-x="1327" d="M123 301q0 126 70 217.5t198 173.5l70 45l-31 35q-92 95 -132 175t-40 161q0 129 91 222t245 93q157 0 250.5 -86.5t93.5 -232.5q0 -168 -217 -313l-111 -74l340 -367q46 71 152 283l92 -43l-29.5 -59t-35.5 -70.5t-30.5 -58t-40 -70t-38.5 -58.5l248 -264v-10h-131 l-179 195q-188 -226 -460 -226q-176 0 -275.5 95t-99.5 237zM229 301q0 -100 74.5 -166.5t194.5 -66.5q232 0 393 200l-363 396l-84 -56q-117 -75 -166 -146.5t-49 -160.5zM365 1108q0 -68 32.5 -132.5t104.5 -141.5l41 -46l119 78q169 109 169 238q0 108 -66 164.5 t-171 56.5q-103 0 -166 -60t-63 -157z" />
<glyph unicode="'" horiz-adv-x="421" d="M162 1176v217h98v-217l-16 -353h-66z" />
<glyph unicode="(" horiz-adv-x="538" d="M131 510q0 280 60.5 500.5t175.5 455.5l79 -41q-208 -425 -208 -915q0 -491 208 -916l-79 -40q-115 235 -175.5 455.5t-60.5 500.5z" />
<glyph unicode=")" horiz-adv-x="538" d="M92 -406q209 427 209 916q0 488 -209 915l80 41q115 -235 175.5 -455.5t60.5 -500.5t-60.5 -500.5t-175.5 -455.5z" />
<glyph unicode="*" horiz-adv-x="839" d="M141 1006l201 110v4l-201 115l41 82l199 -129l2 2l-6 244h86l-6 -244l2 -2l198 129l41 -82l-200 -115v-4l200 -110l-43 -80l-196 129l-2 -2l6 -240h-86l6 240l-2 2l-197 -129z" />
<glyph unicode="+" d="M150 508v88h405v442h98v-442h406v-88h-406v-442h-98v442h-405z" />
<glyph unicode="," horiz-adv-x="452" d="M115 -317l61 444h115v-12l-92 -445h-84v13z" />
<glyph unicode="-" horiz-adv-x="808" d="M160 512v88h489v-88h-489z" />
<glyph unicode="." horiz-adv-x="471" d="M145 59q0 39 26 65t65 26q38 0 64 -26t26 -65t-25.5 -64.5t-64.5 -25.5t-65 25.5t-26 64.5z" />
<glyph unicode="/" horiz-adv-x="743" d="M84 0v10l481 1383h94v-11l-479 -1382h-96z" />
<glyph unicode="0" d="M100 696q0 171 29 302.5t88.5 227.5t157 146.5t229.5 50.5t229.5 -50.5t157 -146.5t88.5 -227.5t29 -302.5t-29 -302.5t-88.5 -227.5t-157 -146.5t-229.5 -50.5t-229.5 50.5t-157 146.5t-88.5 227.5t-29 302.5zM205 696q0 -115 11 -206.5t39 -172.5t72.5 -134.5 t114.5 -84t162 -30.5t162 30.5t115 84t73 134.5t39 172.5t11 206.5t-11 206.5t-39 172.5t-73 134.5t-115 84.5t-162 31t-162 -31t-114.5 -84.5t-72.5 -134.5t-39 -172.5t-11 -206.5z" />
<glyph unicode="1" d="M272 0v96h322v1186h-4l-307 -108h-11v96l338 123h84v-1297h301v-96h-723z" />
<glyph unicode="2" d="M172 0v92l571 578q158 162 158 346q0 135 -87 222t-222 87q-116 0 -200.5 -40t-158.5 -114l-59 74q39 38 74 65t86.5 55t116.5 43t141 15q186 0 301 -113.5t115 -293.5q0 -126 -49.5 -223t-141.5 -189l-504 -504v-4h699v-96h-840z" />
<glyph unicode="3" d="M150 86l43 88q170 -106 362 -106q97 0 178 31t134 99.5t53 163.5q0 62 -16 113t-53.5 96.5t-109 71t-172.5 25.5h-235v96h254q135 0 217 75.5t82 200.5q0 137 -85 211t-229 74q-183 0 -346 -86l-37 86q168 98 385 98q193 0 305.5 -101.5t112.5 -281.5q0 -66 -19 -121 t-51.5 -92.5t-69 -62.5t-79.5 -41v-4q115 -28 183.5 -125t68.5 -232q0 -126 -66 -217t-171 -133.5t-234 -42.5q-227 0 -405 117z" />
<glyph unicode="4" d="M90 293v86l455 1014h104l-442 -1004h608v619h103v-619h200v-96h-200v-293h-103v293h-725z" />
<glyph unicode="5" d="M152 63l34 93q168 -88 344 -88q83 0 151 18.5t123 58.5t85.5 110t30.5 165q0 303 -367 303q-136 0 -287 -23l-12 17l92 676h633v-97h-547l-67 -489q93 14 192 14q219 0 344 -99.5t125 -301.5q0 -115 -39 -203t-108 -141t-157 -80t-192 -27q-199 0 -378 94z" />
<glyph unicode="6" d="M141 424q0 206 176 479l312 490h112v-13l-370 -573l2 -2q98 72 245 72q207 0 332 -124.5t125 -328.5q0 -207 -125 -331t-342 -124q-221 0 -344 123t-123 332zM248 424q0 -164 94.5 -260t265.5 -96t266 96t95 260t-94.5 259t-266.5 95q-171 0 -265.5 -94.5t-94.5 -259.5z " />
<glyph unicode="7" d="M193 1296v97h825v-84l-508 -1309h-104v12l501 1280v4h-714z" />
<glyph unicode="8" d="M123 375q0 126 68 221.5t186 138.5v4q-85 40 -143 116.5t-58 195.5q0 161 109 266.5t319 105.5t319 -105.5t109 -266.5q0 -119 -58 -195.5t-143 -116.5v-4q118 -43 186 -138.5t68 -221.5q0 -86 -28.5 -158t-85.5 -128.5t-151 -88t-216 -31.5t-216 31.5t-151 88 t-85.5 128.5t-28.5 158zM229 377q0 -142 93.5 -225.5t281.5 -83.5q189 0 282 83.5t93 225.5t-93.5 225.5t-281.5 83.5t-281.5 -83.5t-93.5 -225.5zM283 1051q0 -130 81 -198.5t240 -68.5t240.5 68.5t81.5 198.5q0 131 -81.5 202.5t-240.5 71.5t-240 -71.5t-81 -202.5z" />
<glyph unicode="9" d="M131 969q0 207 125 330.5t342 123.5q221 0 344 -122.5t123 -331.5q0 -207 -176 -480l-311 -489h-113v12l371 574l-2 2q-98 -72 -246 -72q-207 0 -332 124.5t-125 328.5zM238 969q0 -165 94.5 -260t265.5 -95t265.5 95t94.5 260q0 164 -94.5 260t-265.5 96t-265.5 -96 t-94.5 -260z" />
<glyph unicode=":" horiz-adv-x="499" d="M160 59q0 39 26 65t64 26t64 -26t26 -65t-25.5 -64.5t-64.5 -25.5t-64.5 25.5t-25.5 64.5zM160 928q0 39 25.5 64.5t64.5 25.5t64.5 -25.5t25.5 -64.5t-25.5 -64.5t-64.5 -25.5t-64.5 25.5t-25.5 64.5z" />
<glyph unicode=";" horiz-adv-x="532" d="M160 -317l61 444h115v-12l-92 -445h-84v13zM186 928q0 39 25.5 64.5t64.5 25.5t65 -25.5t26 -64.5t-26 -64.5t-65 -25.5t-64.5 25.5t-25.5 64.5z" />
<glyph unicode="&#x3c;" d="M127 514v76l897 414h10v-93l-794 -356v-6l794 -356v-93h-10z" />
<glyph unicode="=" d="M150 289v88h909v-88h-909zM150 733v88h909v-88h-909z" />
<glyph unicode="&#x3e;" d="M174 100v93l795 356v6l-795 356v93h10l897 -414v-76l-897 -414h-10z" />
<glyph unicode="?" horiz-adv-x="888" d="M76 1292q73 61 151.5 96t180.5 35q179 0 279.5 -109.5t100.5 -273.5q0 -76 -24 -140t-59 -106.5t-86.5 -78t-94.5 -55t-96 -37.5l-12 -226h-80l-6 291q80 25 136.5 51t109 66.5t79.5 99t27 133.5q0 128 -71 207.5t-203 79.5q-150 0 -281 -111zM285 59q0 39 25.5 65 t64.5 26t64.5 -26t25.5 -65t-25.5 -64.5t-64.5 -25.5t-64.5 25.5t-25.5 64.5z" />
<glyph unicode="@" horiz-adv-x="1839" d="M127 539q0 146 36 282.5t108 253t172 203.5t235.5 136.5t290.5 49.5q141 0 261 -39t206 -108.5t147 -163.5t91 -204.5t30 -231.5q0 -140 -29.5 -251.5t-74 -178.5t-103 -111.5t-112 -61t-105.5 -16.5q-76 0 -120 34t-60 81h-2q-51 -38 -121 -64t-139 -26q-141 0 -222 89 t-81 269q0 154 47 279t140.5 200.5t217.5 75.5q130 0 246 -100h2l29 76h75l-106 -680q-22 -142 102 -142q35 0 72.5 12.5t81 48.5t77 92t56 153t22.5 221q0 132 -38 248t-112.5 208t-197.5 145.5t-280 53.5q-134 0 -252.5 -46t-205.5 -126t-150.5 -185.5t-95.5 -227 t-32 -248.5q0 -322 171.5 -528t433.5 -206q192 0 358 95l39 -86q-188 -101 -397 -101q-149 0 -280 59.5t-226 166t-150 262t-55 338.5zM641 481q0 -130 56.5 -198t166.5 -68q56 0 115.5 25.5t97.5 58.5l88 547q-34 38 -94 68t-125 30q-90 0 -161 -65.5t-107.5 -170.5 t-36.5 -227z" />
<glyph unicode="A" horiz-adv-x="1202" d="M39 0l510 1393h104l510 -1393h-108l-135 377h-637l-136 -377h-108zM317 471h568l-283 786h-2z" />
<glyph unicode="B" horiz-adv-x="1224" d="M203 0v1393h413q203 0 319 -87t116 -274q0 -124 -59 -201.5t-146 -111.5v-4q117 -29 185.5 -116t68.5 -224q0 -96 -34.5 -169t-96.5 -117.5t-141.5 -66.5t-174.5 -22h-450zM305 96h336q75 0 136 14.5t111 46t77.5 88t27.5 134.5q0 77 -26.5 133.5t-75.5 88.5t-109.5 46.5 t-136.5 14.5h-340v-566zM305 758h303q74 0 131 12.5t105 41.5t74 83t26 131q0 78 -26 132.5t-74 83.5t-105 41.5t-131 12.5h-303v-538z" />
<glyph unicode="C" horiz-adv-x="1187" d="M135 696q0 167 35.5 298.5t108 228.5t190.5 148.5t276 51.5q85 0 178.5 -24.5t168.5 -67.5l-39 -86q-143 80 -308 80q-503 0 -503 -629q0 -628 503 -628q167 0 308 79l39 -86q-75 -43 -168.5 -67.5t-178.5 -24.5q-158 0 -276 51.5t-190.5 148.5t-108 228.5t-35.5 298.5z " />
<glyph unicode="D" horiz-adv-x="1366" d="M203 0v1393h327q191 0 326 -45t217.5 -135t120 -217t37.5 -300t-37.5 -299.5t-120 -217t-217.5 -135t-326 -44.5h-327zM305 96h211q175 0 292.5 35t188 111.5t100 185.5t29.5 268t-29.5 268t-100 185.5t-188 111.5t-292.5 35h-211v-1200z" />
<glyph unicode="E" horiz-adv-x="1175" d="M203 0v1393h837v-97h-735v-532h674v-96h-674v-572h742v-96h-844z" />
<glyph unicode="F" horiz-adv-x="1126" d="M203 0v1393h837v-97h-735v-544h674v-97h-674v-655h-102z" />
<glyph unicode="G" horiz-adv-x="1310" d="M133 696q0 156 37 287.5t109 230t185.5 154t258.5 55.5q234 0 426 -123l-47 -83q-166 108 -379 108q-159 0 -269.5 -81t-163 -220.5t-52.5 -327.5q0 -107 16.5 -199.5t53 -172.5t91.5 -136t135.5 -88t180.5 -32q99 0 189.5 25t154.5 67v403l-297 19v77h399v-553 q-89 -63 -205.5 -100t-240.5 -37q-147 0 -259.5 54.5t-182.5 153t-105 229.5t-35 290z" />
<glyph unicode="H" horiz-adv-x="1406" d="M203 0v1393h102v-629h797v629h102v-1393h-102v668h-797v-668h-102z" />
<glyph unicode="I" horiz-adv-x="505" d="M203 0v1393h100v-1393h-100z" />
<glyph unicode="J" horiz-adv-x="927" d="M51 106l55 76q118 -114 269 -114q116 0 186 78t70 241v1006h102v-1012q0 -193 -98 -302.5t-260 -109.5q-92 0 -177.5 39.5t-146.5 97.5z" />
<glyph unicode="K" horiz-adv-x="1138" d="M203 0v1393h102v-691h4l641 691h119v-13l-645 -696l684 -672v-12h-133l-666 651h-4v-651h-102z" />
<glyph unicode="L" horiz-adv-x="1026" d="M203 0v1393h102v-1297h662v-96h-764z" />
<glyph unicode="M" horiz-adv-x="1652" d="M203 0v1393h96l524 -912h6l525 912h96v-1393h-102v1180h-5l-473 -826h-88l-473 826h-4v-1180h-102z" />
<glyph unicode="N" horiz-adv-x="1413" d="M203 0v1393h98l805 -1205h4v1205h100v-1393h-98l-803 1206h-4v-1206h-102z" />
<glyph unicode="O" horiz-adv-x="1425" d="M135 696q0 162 32.5 291.5t100 228.5t180.5 153t265 54t265 -54t180 -153t99.5 -228.5t32.5 -291.5t-32.5 -291.5t-99.5 -228.5t-180 -153t-265 -54t-265 54t-180.5 153t-100 228.5t-32.5 291.5zM242 696q0 -628 471 -628t471 628q0 629 -471 629t-471 -629z" />
<glyph unicode="P" horiz-adv-x="1163" d="M203 0v1393h432q210 0 323 -104.5t113 -303.5q0 -198 -113.5 -301.5t-322.5 -103.5h-330v-580h-102zM305 676h318q342 0 342 309q0 311 -342 311h-318v-620z" />
<glyph unicode="Q" horiz-adv-x="1425" d="M135 696q0 162 32.5 291.5t100 228.5t180.5 153t265 54t265 -54t180 -153t99.5 -228.5t32.5 -291.5q0 -178 -37.5 -316.5t-124 -239.5t-217.5 -142l355 -199l-49 -90l-447 262q-9 0 -28 -1t-29 -1q-152 0 -265 54t-180.5 153t-100 228.5t-32.5 291.5zM242 696 q0 -628 471 -628t471 628q0 629 -471 629t-471 -629z" />
<glyph unicode="R" horiz-adv-x="1249" d="M203 0v1393h473q203 0 313.5 -97.5t110.5 -279.5q0 -170 -98 -266t-269 -111l455 -625v-14h-119l-457 637h-307v-637h-102zM305 733h359q331 0 331 283q0 280 -331 280h-359v-563z" />
<glyph unicode="S" horiz-adv-x="1071" d="M106 125l54 86q166 -143 375 -143q133 0 224 76t91 208q0 104 -66.5 169.5t-214.5 123.5l-139 53q-140 52 -216.5 139.5t-76.5 204.5q0 166 113 273.5t305 107.5q217 0 377 -116l-47 -86q-149 104 -330 104q-145 0 -228 -78.5t-83 -202.5q0 -86 54 -146t175 -105l135 -52 q179 -68 263.5 -158t84.5 -229q0 -168 -118.5 -276.5t-302.5 -108.5q-139 0 -240.5 42.5t-188.5 113.5z" />
<glyph unicode="T" horiz-adv-x="1064" d="M63 1296v97h938v-97h-417v-1296h-103v1296h-418z" />
<glyph unicode="U" horiz-adv-x="1392" d="M193 483v910h102v-899q0 -201 106 -313.5t295 -112.5t295.5 112.5t106.5 313.5v899h102v-910q0 -238 -131.5 -376t-372.5 -138t-372 138t-131 376z" />
<glyph unicode="V" horiz-adv-x="1200" d="M43 1380v13h107l448 -1239h4l449 1239h106v-13l-504 -1380h-106z" />
<glyph unicode="W" horiz-adv-x="1937" d="M57 1380v13h105l368 -1231h5l378 1231h111l379 -1231h4l369 1231h104v-13l-420 -1380h-108l-381 1243h-4l-381 -1243h-109z" />
<glyph unicode="X" horiz-adv-x="1150" d="M66 0v12l442 686l-442 682v13h114l393 -615h5l393 615h114v-13l-442 -682l442 -686v-12h-112l-395 616h-5l-395 -616h-112z" />
<glyph unicode="Y" horiz-adv-x="1093" d="M37 1380v13h113l395 -686h4l395 686h113v-13l-459 -786v-594h-102v594z" />
<glyph unicode="Z" horiz-adv-x="1034" d="M84 0v86l727 1206v4h-694v97h819v-86l-727 -1207v-4h727v-96h-852z" />
<glyph unicode="[" horiz-adv-x="608" d="M174 -406v1840h352v-78l-250 -19v-1650l250 -19v-74h-352z" />
<glyph unicode="\" horiz-adv-x="743" d="M84 1372v21h94l481 -1373v-20h-96z" />
<glyph unicode="]" horiz-adv-x="608" d="M82 -332l250 19v1650l-250 19v78h352v-1840h-352v74z" />
<glyph unicode="^" horiz-adv-x="1040" d="M170 762v10l334 662h71l334 -662v-10h-88l-280 557h-2l-281 -557h-88z" />
<glyph unicode="_" horiz-adv-x="903" d="M127 -41h649v-88h-649v88z" />
<glyph unicode="`" d="M500 1415v10h110l99 -225v-10h-88z" />
<glyph unicode="a" horiz-adv-x="1019" d="M98 266q0 158 119 232.5t356 74.5h168v60q0 293 -268 293q-151 0 -276 -95l-45 74q130 113 321 113q172 0 269.5 -94.5t97.5 -290.5v-494q0 -39 13 -55t52 -16h56v-76q-40 -12 -84 -12q-107 0 -125 106h-4q-61 -50 -147 -83.5t-185 -33.5q-141 0 -229.5 81.5t-88.5 215.5 zM201 268q0 -97 61 -152t162 -55q170 0 317 113v313h-153q-207 0 -297 -53.5t-90 -165.5z" />
<glyph unicode="b" horiz-adv-x="1128" d="M172 0v1434h98v-533h4q67 54 146 85.5t190 31.5q106 0 185.5 -41t125 -114t67.5 -165t22 -204q0 -89 -13 -165t-43.5 -143.5t-76 -114.5t-113.5 -74.5t-154 -27.5q-193 0 -344 121h-4l-12 -90h-78zM270 199q56 -62 145 -100t183 -38q309 0 309 433q0 432 -309 432 q-94 0 -183 -38t-145 -100v-589z" />
<glyph unicode="c" horiz-adv-x="962" d="M117 494q0 153 49 269.5t151.5 185.5t247.5 69q167 0 301 -74l-35 -82q-125 64 -266 64q-88 0 -155.5 -34.5t-108.5 -95t-61.5 -137t-20.5 -165.5t20.5 -165.5t61.5 -137t108.5 -95.5t155.5 -35q141 0 266 64l35 -82q-134 -74 -301 -74q-145 0 -247.5 69t-151.5 186 t-49 270z" />
<glyph unicode="d" horiz-adv-x="1130" d="M121 494q0 112 21.5 203.5t67.5 165t125 114.5t185 41q111 0 190 -31.5t146 -85.5h4v533h98v-1434h-77l-13 90h-4q-151 -121 -344 -121q-106 0 -185 41t-125 114.5t-67.5 165.5t-21.5 204zM223 494q0 -433 309 -433q94 0 183 38t145 100v589q-56 62 -145 100t-183 38 q-309 0 -309 -432z" />
<glyph unicode="e" horiz-adv-x="1079" d="M117 498q0 227 123 373.5t323 146.5q100 0 180 -33.5t129 -90.5t75 -129.5t26 -154.5q0 -62 -15 -135h-741q5 -189 97 -301.5t272 -112.5q91 0 159.5 26t135.5 73l45 -78q-74 -53 -153 -83t-189 -30q-120 0 -211 40t-146 112.5t-82.5 167t-27.5 209.5zM219 563h649 q2 20 2 53q0 139 -78.5 224.5t-228.5 85.5q-143 0 -235 -96.5t-109 -266.5z" />
<glyph unicode="f" horiz-adv-x="663" d="M57 899v72l176 16v168q0 148 68.5 218.5t210.5 70.5q66 0 119 -12v-93q-57 13 -117 13q-97 0 -139.5 -42t-42.5 -145v-178h291v-88h-291v-899h-99v899h-176z" />
<glyph unicode="g" horiz-adv-x="1130" d="M119 494q0 111 22.5 203.5t68.5 165.5t125 114t185 41q193 0 344 -121h4l11 90h79v-991q0 -200 -109 -316t-296 -116q-175 0 -332 92l37 84q136 -80 295 -80q137 0 222 80.5t85 234.5v113h-4q-142 -117 -336 -117q-85 0 -153 27t-114 74t-76.5 114t-44 143.5t-13.5 164.5 zM221 494q0 -94 16.5 -169.5t51.5 -136.5t96.5 -94t146.5 -33q93 0 182.5 38t145.5 100v589q-56 62 -145.5 100t-182.5 38q-85 0 -146.5 -33t-96.5 -93.5t-51.5 -136t-16.5 -169.5z" />
<glyph unicode="h" horiz-adv-x="1136" d="M172 0v1434h98v-531h4q58 44 148 79.5t194 35.5q175 0 266 -99.5t91 -289.5v-629h-99v612q0 160 -66.5 237t-199.5 77q-174 0 -338 -121v-805h-98z" />
<glyph unicode="i" horiz-adv-x="442" d="M141 1282q0 35 23 58.5t57 23.5q33 0 55.5 -23.5t22.5 -58.5t-22.5 -57.5t-55.5 -22.5q-34 0 -57 22.5t-23 57.5zM172 0v987h98v-987h-98z" />
<glyph unicode="j" horiz-adv-x="442" d="M-72 -332q53 -12 113 -12q67 0 99 44t32 138v1149h98v-1114q0 -166 -54.5 -237.5t-172.5 -71.5q-59 0 -115 16v88zM141 1282q0 35 23 58.5t57 23.5q33 0 55.5 -23.5t22.5 -58.5t-22.5 -57.5t-55.5 -22.5q-34 0 -57 22.5t-23 57.5z" />
<glyph unicode="k" horiz-adv-x="911" d="M172 0v1434h98v-918h4l465 471h121v-10l-485 -483l502 -484v-10h-129l-474 461h-4v-461h-98z" />
<glyph unicode="l" horiz-adv-x="475" d="M176 180v1254h98v-1270q0 -51 15.5 -73.5t60.5 -22.5h72v-76q-38 -12 -86 -12q-86 0 -123 48.5t-37 151.5z" />
<glyph unicode="m" horiz-adv-x="1773" d="M172 0v987h78l10 -88h4q154 119 338 119q103 0 176.5 -34.5t110.5 -96.5h4q67 58 166.5 94.5t204.5 36.5q178 0 262 -97t84 -292v-629h-99v612q0 162 -60 238t-196 76q-85 0 -177.5 -33t-155.5 -90q18 -74 18 -174v-629h-98v612q0 78 -9 129.5t-34 96.5t-76 66.5 t-129 21.5q-176 0 -324 -121v-805h-98z" />
<glyph unicode="n" horiz-adv-x="1136" d="M172 0v987h80l10 -90h4q58 46 150 83.5t200 37.5q175 0 266 -99.5t91 -289.5v-629h-99v612q0 160 -66 237t-200 77q-174 0 -338 -121v-805h-98z" />
<glyph unicode="o" horiz-adv-x="1150" d="M117 494q0 85 13.5 158.5t47 142t84.5 117t131 77.5t182 29t182 -29t131 -77.5t84.5 -117t47.5 -142t14 -158.5t-14 -159t-47.5 -142.5t-84.5 -117t-131 -77.5t-182 -29t-182 29t-131 77.5t-84.5 117.5t-47 142.5t-13.5 158.5zM219 494q0 -68 9 -127t34 -117t63.5 -98.5 t102.5 -65.5t147 -25t147 25t103 65.5t63.5 98.5t34 117t9.5 127t-9.5 127t-34 116.5t-63.5 98t-103 65.5t-147 25t-147 -25t-102.5 -65.5t-63.5 -98t-34 -116.5t-9 -127z" />
<glyph unicode="p" horiz-adv-x="1130" d="M172 -406v1393h80l10 -90h4q151 121 346 121q106 0 185.5 -41t125 -114t67.5 -165t22 -204q0 -89 -13 -165t-43.5 -143.5t-76 -114.5t-113.5 -74.5t-154 -27.5q-111 0 -189.5 31.5t-148.5 85.5h-4v-492h-98zM270 199q56 -62 145 -100t185 -38q309 0 309 433 q0 432 -309 432q-96 0 -185 -38t-145 -100v-589z" />
<glyph unicode="q" horiz-adv-x="1130" d="M119 494q0 112 21.5 203.5t67.5 165t125 114.5t185 41q195 0 346 -121h4l11 90h79v-1393h-98v492h-4q-70 -54 -148.5 -85.5t-189.5 -31.5q-106 0 -185 41t-125 114.5t-67.5 165.5t-21.5 204zM221 494q0 -433 309 -433q96 0 185 38t145 100v589q-56 62 -145 100t-185 38 q-309 0 -309 -432z" />
<glyph unicode="r" horiz-adv-x="671" d="M172 0v987h78l12 -100h4q94 131 254 131q55 0 109 -14l-17 -93q-52 15 -96 15q-152 0 -246 -158v-768h-98z" />
<glyph unicode="s" horiz-adv-x="890" d="M98 63l45 82q114 -84 287 -84q122 0 188 50.5t66 140.5q0 64 -46 108.5t-157 77.5l-123 37q-117 35 -176 96.5t-59 161.5q0 127 90 206t252 79q154 0 301 -70l-37 -88q-121 66 -262 66q-120 0 -181 -51t-61 -140q0 -59 36.5 -100t123.5 -66l123 -37q146 -43 212 -106 t66 -172q0 -124 -93.5 -204.5t-260.5 -80.5q-187 0 -334 94z" />
<glyph unicode="t" horiz-adv-x="628" d="M51 899v72l176 16v230h99v-230h239v-88h-239v-713q0 -125 108 -125q62 0 133 23v-90q-81 -25 -141 -25q-98 0 -148.5 57.5t-50.5 163.5v709h-176z" />
<glyph unicode="u" horiz-adv-x="1120" d="M164 358v629h98v-612q0 -162 62.5 -238t195.5 -76q166 0 330 121v805h98v-987h-80l-10 90h-4q-152 -121 -340 -121q-350 0 -350 389z" />
<glyph unicode="v" horiz-adv-x="962" d="M55 975v12h101l323 -862h4l324 862h100v-12l-375 -975h-102z" />
<glyph unicode="w" horiz-adv-x="1642" d="M59 975v12h99l305 -850h4l303 850h102l304 -850h4l305 850h98v-12l-354 -975h-103l-303 864h-4l-303 -864h-102z" />
<glyph unicode="x" horiz-adv-x="933" d="M74 0v12l327 482l-327 481v12h108l283 -424h4l283 424h108v-12l-328 -481l328 -482v-12h-108l-283 420h-4l-283 -420h-108z" />
<glyph unicode="y" horiz-adv-x="970" d="M51 975v12h105l340 -852h6l311 852h100v-12l-421 -1143q-52 -135 -122.5 -201.5t-176.5 -66.5q-57 0 -127 18v90q66 -16 124 -16q67 0 118 51.5t81 132.5l62 164z" />
<glyph unicode="z" horiz-adv-x="870" d="M86 0v66l561 829v4h-536v88h663v-69l-559 -826v-4h559v-88h-688z" />
<glyph unicode="{" horiz-adv-x="620" d="M96 467v94q81 0 110.5 38t29.5 116v448q0 146 61 208.5t225 62.5h10v-78q-110 0 -152 -44.5t-42 -148.5v-430q0 -89 -26.5 -140.5t-82.5 -76.5v-4q56 -25 82.5 -76.5t26.5 -140.5v-430q0 -104 42 -148.5t152 -44.5v-78h-10q-164 0 -225 62.5t-61 208.5v448 q0 78 -29.5 116t-110.5 38z" />
<glyph unicode="|" horiz-adv-x="446" d="M174 -406v1840h98v-1840h-98z" />
<glyph unicode="}" horiz-adv-x="620" d="M88 -328q110 0 152.5 44.5t42.5 148.5v430q0 90 26 141t82 76v4q-56 25 -82 76t-26 141v430q0 104 -42.5 148.5t-152.5 44.5v78h10q165 0 226 -63t61 -208v-448q0 -79 29 -116.5t110 -37.5v-94q-81 0 -110 -37.5t-29 -116.5v-448q0 -145 -61 -208t-226 -63h-10v78z" />
<glyph unicode="~" horiz-adv-x="1011" d="M156 532q94 117 211 117q54 0 147.5 -46t128.5 -46q47 0 80 19t84 75l47 -65q-94 -117 -211 -117q-55 0 -147.5 45t-128.5 45q-47 0 -79.5 -18.5t-84.5 -73.5z" />
<glyph unicode="&#xa1;" horiz-adv-x="454" d="M139 928q0 39 25.5 64.5t64.5 25.5t64.5 -25.5t25.5 -64.5t-25.5 -64.5t-64.5 -25.5t-64.5 25.5t-25.5 64.5zM176 -14l19 604h65l19 -604v-392h-103v392z" />
<glyph unicode="&#xa2;" d="M236 494q0 219 103.5 361t295.5 159v170h98v-168q139 -10 252 -72l-35 -82q-106 53 -217 62v-861q118 10 217 62l35 -82q-113 -62 -252 -72v-168h-98v170q-193 17 -296 158.5t-103 362.5zM338 494q0 -111 30 -201.5t98.5 -153.5t168.5 -76v859q-100 -12 -168.5 -74.5 t-98.5 -152.5t-30 -201z" />
<glyph unicode="&#xa3;" d="M195 635v86h170q-39 216 -39 342q0 90 30.5 161t81.5 113.5t113.5 64t132.5 21.5q157 0 305 -98l-47 -82q-129 82 -258 82q-109 0 -183.5 -64t-74.5 -198q0 -141 41 -342h407v-86h-389q29 -167 29 -273q-1 -103 -43.5 -171.5t-91.5 -94.5v-4h631v-92h-795v78 q85 35 139 114.5t54 169.5q0 103 -27 273h-186z" />
<glyph unicode="&#xa4;" d="M143 150l160 161q-70 101 -70 242t70 242l-160 161l64 68l160 -162q93 70 229 70q147 0 240 -80l170 172l63 -68l-172 -176q61 -98 61 -227q0 -131 -61 -229l172 -174l-65 -68l-168 170q-91 -78 -240 -78q-140 0 -227 68l-160 -160zM336 553q0 -55 13 -103t41 -91t81 -68 t125 -25t125 25t81 68t41 91t13 103t-13 103t-41 91t-81 68t-125 25t-125 -25t-81 -68t-41 -91t-13 -103z" />
<glyph unicode="&#xa5;" d="M121 1380v13h112l369 -631h4l369 631h112v-13l-378 -632h305v-86h-359v-246h359v-86h-359v-330h-102v330h-358v86h358v246h-358v86h305z" />
<glyph unicode="&#xa6;" horiz-adv-x="475" d="M188 274h99v-680h-99v680zM188 754v680h99v-680h-99z" />
<glyph unicode="&#xa7;" horiz-adv-x="1087" d="M123 -233l51 83q154 -118 367 -118q132 0 218.5 58t86.5 169q0 89 -64 145t-209 105l-135 45q-153 48 -219.5 119t-66.5 174q0 82 42.5 162.5t120.5 130.5v6q-163 97 -163 254q0 140 110.5 231.5t296.5 91.5q211 0 369 -98l-45 -88q-146 88 -324 88q-143 0 -222 -60 t-79 -163q0 -73 51.5 -124.5t169.5 -90.5l133 -43q180 -61 260 -132.5t80 -197.5q0 -86 -45.5 -158.5t-124.5 -119.5v-7q87 -52 128.5 -115.5t41.5 -152.5q0 -143 -115.5 -235.5t-295.5 -92.5q-136 0 -233.5 36.5t-184.5 97.5zM258 549q0 -71 49.5 -115t171.5 -86l215 -74 q67 39 109.5 99.5t42.5 138.5q0 88 -62 137.5t-211 98.5l-167 55q-71 -37 -109.5 -106t-38.5 -148z" />
<glyph unicode="&#xa8;" d="M340 1282q0 35 23 58.5t57 23.5q33 0 55.5 -23.5t22.5 -58.5t-22.5 -57.5t-55.5 -22.5q-34 0 -57 22.5t-23 57.5zM705 1282q0 35 22.5 58.5t56.5 23.5q33 0 55.5 -23.5t22.5 -58.5t-22.5 -57.5t-55.5 -22.5q-34 0 -56.5 22.5t-22.5 57.5z" />
<glyph unicode="&#xa9;" horiz-adv-x="1712" d="M129 696q0 152 56 287t152.5 231.5t231.5 152.5t287 56t287 -56t231.5 -152.5t152.5 -231.5t56 -287t-56 -287t-152.5 -231.5t-231.5 -152.5t-287 -56t-287 56t-231.5 152.5t-152.5 231.5t-56 287zM225 696q0 -278 176.5 -457.5t454.5 -179.5t454.5 179.5t176.5 457.5 t-176.5 457.5t-454.5 179.5t-454.5 -179.5t-176.5 -457.5zM506 696q0 185 92 292.5t268 107.5q106 0 213 -49l-30 -78q-82 35 -183 35q-132 0 -197 -81.5t-65 -226.5t65 -226t197 -81q101 0 183 35l30 -78q-107 -49 -213 -49q-176 0 -268 107t-92 292z" />
<glyph unicode="&#xaa;" horiz-adv-x="757" d="M121 891q0 56 23 95t66 60t96 30t122 9h109v35q0 45 -15 76.5t-41 46.5t-50.5 21t-51.5 6q-44 0 -93.5 -15t-82.5 -41l-47 70q95 74 223 74q135 0 192.5 -68t57.5 -198v-379h-74l-10 57q-98 -70 -215 -70q-90 0 -149.5 48.5t-59.5 142.5zM129 467v88h506v-88h-506z M217 891q0 -46 35.5 -74.5t95.5 -28.5q92 0 189 64v152h-88q-132 0 -182 -25.5t-50 -87.5z" />
<glyph unicode="&#xab;" horiz-adv-x="946" d="M98 551v4l305 418l70 -51l-270 -369l266 -369l-66 -51zM453 551v4l305 418l69 -51l-270 -369l266 -369l-65 -51z" />
<glyph unicode="&#xac;" d="M150 508v88h911v-360h-98v272h-813z" />
<glyph unicode="&#xad;" horiz-adv-x="808" d="M160 512v88h489v-88h-489z" />
<glyph unicode="&#xae;" horiz-adv-x="1163" d="M115 1149q0 199 134.5 334t332.5 135t332.5 -135t134.5 -334t-134.5 -334t-332.5 -135t-332.5 135t-134.5 334zM195 1149q0 -166 111 -278.5t276 -112.5t276 112.5t111 278.5t-111 278.5t-276 112.5t-276 -112.5t-111 -278.5zM414 932v446h178q71 0 110 -32.5t39 -98.5 q0 -104 -100 -125l133 -184v-6h-88l-125 184h-67v-184h-80zM494 1186h75q53 0 73 13t20 48t-20 48.5t-73 13.5h-75v-123z" />
<glyph unicode="&#xaf;" d="M356 1221v88h490v-88h-490z" />
<glyph unicode="&#xb0;" horiz-adv-x="831" d="M119 1133q0 127 83 208.5t214 81.5t214 -81.5t83 -208.5q0 -128 -83.5 -209.5t-213.5 -81.5t-213.5 81.5t-83.5 209.5zM217 1133q0 -92 55.5 -147.5t143.5 -55.5t143 55.5t55 147.5t-55 147t-143 55t-143.5 -55.5t-55.5 -146.5z" />
<glyph unicode="&#xb1;" d="M150 0v88h909v-88h-909zM150 772v88h405v443h98v-443h406v-88h-406v-442h-98v442h-405z" />
<glyph unicode="&#xb2;" horiz-adv-x="595" d="M70 1563q92 92 206 92q108 0 169 -58.5t61 -152.5q0 -65 -26.5 -112t-78.5 -99l-194 -180v-2h311v-76h-446v65l237 220q51 46 79 87.5t28 90.5q0 62 -37.5 99.5t-102.5 37.5q-77 0 -159 -74z" />
<glyph unicode="&#xb3;" horiz-adv-x="612" d="M66 1008l26 73q88 -43 182 -43q164 0 164 121q0 115 -176 115h-102v76h106q80 0 120 30t40 78q0 58 -37.5 87.5t-107.5 29.5q-94 0 -168 -39l-29 72q83 47 203 47q105 0 167 -48.5t62 -133.5q0 -57 -31 -97t-79 -59v-2q122 -44 122 -160q0 -91 -69 -144t-183 -53 q-116 0 -210 50z" />
<glyph unicode="&#xb4;" d="M492 1190v10l98 225h110v-10l-120 -225h-88z" />
<glyph unicode="&#xb5;" horiz-adv-x="1124" d="M170 -406v1393h98v-612q0 -162 62.5 -238t195.5 -76q166 0 330 121v805h98v-987h-80l-10 90h-4q-166 -121 -340 -121q-178 0 -252 105v-480h-98z" />
<glyph unicode="&#xb6;" horiz-adv-x="1013" d="M72 1169q0 109 67 166.5t168 57.5h641v-93h-205v-1706h-98v1706h-239v-1706h-99v1358q-100 0 -167.5 57t-67.5 160z" />
<glyph unicode="&#xb7;" horiz-adv-x="503" d="M162 592q0 39 25.5 64.5t64.5 25.5t64.5 -25.5t25.5 -64.5t-25.5 -64.5t-64.5 -25.5t-64.5 25.5t-25.5 64.5z" />
<glyph unicode="&#xb8;" d="M432 -395l29 82q61 -37 135 -37q102 0 102 98q0 45 -33.5 61.5t-107.5 16.5l-8 10l45 178h92l-35 -116q65 -7 107.5 -44t42.5 -106q0 -90 -57.5 -137t-147.5 -47q-97 0 -164 41z" />
<glyph unicode="&#xb9;" horiz-adv-x="448" d="M51 1448v80l225 110h70v-663h-86v567h-2l-197 -94h-10z" />
<glyph unicode="&#xba;" horiz-adv-x="776" d="M88 1028q0 145 74.5 237.5t224.5 92.5q101 0 170 -46t99 -118.5t30 -165.5q0 -145 -74.5 -237.5t-224.5 -92.5t-224.5 92.5t-74.5 237.5zM137 467v88h506v-88h-506zM184 1028q0 -108 50.5 -175t152.5 -67t152.5 67t50.5 175t-50.5 175t-152.5 67t-152.5 -67t-50.5 -175z " />
<glyph unicode="&#xbb;" horiz-adv-x="946" d="M119 922l69 51l306 -418v-4l-306 -418l-65 51l266 369zM473 922l70 51l305 -418v-4l-305 -418l-66 51l266 369z" />
<glyph unicode="&#xbc;" horiz-adv-x="1310" d="M86 1202v80l225 111h70v-664h-86v567h-2l-197 -94h-10zM172 0v10l809 1383h98v-11l-809 -1382h-98zM686 147v60l184 457h91l-175 -439v-2h248v279h86v-279h105v-76h-105v-147h-86v147h-348z" />
<glyph unicode="&#xbd;" horiz-adv-x="1351" d="M86 1202v80l225 111h70v-664h-86v567h-2l-197 -94h-10zM172 0v10l809 1383h98v-11l-809 -1382h-98zM799 588q92 92 207 92q108 0 168.5 -58t60.5 -153q0 -65 -26.5 -112t-78.5 -99l-194 -180v-2h311v-76h-446v66l237 219q51 46 79 87.5t28 90.5q0 62 -37 99.5t-102 37.5 q-78 0 -160 -74z" />
<glyph unicode="&#xbe;" horiz-adv-x="1447" d="M102 756l27 73q88 -43 182 -43q164 0 164 121q0 115 -176 115h-102v76h106q80 0 120 30t40 78q0 58 -38 87.5t-108 29.5q-93 0 -167 -39l-29 72q83 47 203 47q105 0 167 -48.5t62 -133.5q0 -57 -31.5 -97t-79.5 -59v-2q123 -44 123 -160q0 -91 -69 -143.5t-183 -52.5 q-118 0 -211 49zM309 0v10l809 1383h99v-11l-809 -1382h-99zM823 147v60l185 457h90l-174 -439v-2h247v279h86v-279h105v-76h-105v-147h-86v147h-348z" />
<glyph unicode="&#xbf;" horiz-adv-x="872" d="M92 -53q0 76 24 140t59 106.5t87 78.5t95.5 55.5t95.5 37.5l12 225h80l6 -291q-80 -25 -136.5 -51t-109 -66.5t-79.5 -99t-27 -133.5q0 -128 71 -207.5t203 -79.5q150 0 281 111l51 -78q-73 -61 -151.5 -96t-180.5 -35q-179 0 -280 109.5t-101 273.5zM416 928 q0 39 25.5 64.5t64.5 25.5t64.5 -25.5t25.5 -64.5t-25.5 -64.5t-64.5 -25.5t-64.5 25.5t-25.5 64.5z" />
<glyph unicode="&#xc0;" horiz-adv-x="1202" d="M39 0l510 1393h104l510 -1393h-108l-135 377h-637l-136 -377h-108zM317 471h568l-283 786h-2zM428 1749v10h115l98 -225v-10h-92z" />
<glyph unicode="&#xc1;" horiz-adv-x="1202" d="M39 0l510 1393h104l510 -1393h-108l-135 377h-637l-136 -377h-108zM317 471h568l-283 786h-2zM557 1524v10l98 225h115v-10l-121 -225h-92z" />
<glyph unicode="&#xc2;" horiz-adv-x="1202" d="M39 0l510 1393h104l510 -1393h-108l-135 377h-637l-136 -377h-108zM317 471h568l-283 786h-2zM356 1524v10l209 225h74l209 -225v-10h-107l-139 149l-139 -149h-107z" />
<glyph unicode="&#xc3;" horiz-adv-x="1202" d="M39 0l510 1393h104l510 -1393h-108l-135 377h-637l-136 -377h-108zM317 471h568l-283 786h-2zM340 1626q67 100 160 100q41 0 112.5 -39.5t92.5 -39.5q33 0 57.5 16t54.5 55l47 -59q-67 -100 -159 -100q-42 0 -112.5 39.5t-92.5 39.5q-33 0 -58 -16t-55 -55z" />
<glyph unicode="&#xc4;" horiz-adv-x="1202" d="M39 0l510 1393h104l510 -1393h-108l-135 377h-637l-136 -377h-108zM317 471h568l-283 786h-2zM340 1640q0 35 23 58.5t57 23.5q33 0 55.5 -23.5t22.5 -58.5t-22.5 -57t-55.5 -22q-34 0 -57 22t-23 57zM705 1640q0 35 22.5 58.5t56.5 23.5q33 0 55.5 -23.5t22.5 -58.5 t-22.5 -57t-55.5 -22q-34 0 -56.5 22t-22.5 57z" />
<glyph unicode="&#xc5;" horiz-adv-x="1202" d="M39 0l489 1335q-44 19 -69 58t-25 92q0 73 47 117.5t121 44.5t121 -44.5t47 -117.5q0 -53 -26 -92.5t-70 -57.5l489 -1335h-108l-135 377h-637l-136 -377h-108zM317 471h568l-283 786h-2zM508 1485q0 -42 25.5 -66t68.5 -24t68.5 24t25.5 66t-25.5 66t-68.5 24t-68.5 -24 t-25.5 -66z" />
<glyph unicode="&#xc6;" horiz-adv-x="1773" d="M-23 0v10l785 1383h876v-97h-735v-532h674v-96h-674v-572h742v-96h-844v406h-486l-225 -406h-113zM369 500h432v770h-4z" />
<glyph unicode="&#xc7;" horiz-adv-x="1187" d="M135 696q0 167 35.5 298.5t108 228.5t190.5 148.5t276 51.5q85 0 178.5 -24.5t168.5 -67.5l-39 -86q-143 80 -308 80q-503 0 -503 -629q0 -628 503 -628q167 0 308 79l39 -86q-75 -43 -168.5 -67.5t-178.5 -24.5l-20 -71q64 -7 106.5 -44t42.5 -106q0 -90 -57 -137 t-147 -47q-97 0 -164 41l29 82q61 -37 135 -37q102 0 102 98q0 45 -33.5 61.5t-107.5 16.5l-8 10l34 139q-135 14 -236 70.5t-163 151.5t-92.5 219t-30.5 280z" />
<glyph unicode="&#xc8;" horiz-adv-x="1175" d="M203 0v1393h837v-97h-735v-532h674v-96h-674v-572h742v-96h-844zM471 1749v10h115l98 -225v-10h-92z" />
<glyph unicode="&#xc9;" horiz-adv-x="1175" d="M203 0v1393h837v-97h-735v-532h674v-96h-674v-572h742v-96h-844zM580 1524v10l98 225h115v-10l-121 -225h-92z" />
<glyph unicode="&#xca;" horiz-adv-x="1175" d="M203 0v1393h837v-97h-735v-532h674v-96h-674v-572h742v-96h-844zM385 1524v10l209 225h74l209 -225v-10h-107l-139 149l-139 -149h-107z" />
<glyph unicode="&#xcb;" horiz-adv-x="1175" d="M203 0v1393h837v-97h-735v-532h674v-96h-674v-572h742v-96h-844zM369 1640q0 35 23 58.5t57 23.5q32 0 54.5 -23.5t22.5 -58.5t-22 -57t-55 -22q-34 0 -57 22t-23 57zM733 1640q0 35 23 58.5t57 23.5q33 0 55.5 -23.5t22.5 -58.5t-22.5 -57t-55.5 -22q-34 0 -57 22 t-23 57z" />
<glyph unicode="&#xcc;" horiz-adv-x="505" d="M80 1749v10h115l98 -225v-10h-92zM203 0v1393h100v-1393h-100z" />
<glyph unicode="&#xcd;" horiz-adv-x="505" d="M203 0v1393h100v-1393h-100zM211 1524v10l98 225h115v-10l-121 -225h-92z" />
<glyph unicode="&#xce;" horiz-adv-x="505" d="M6 1524v10l209 225h74l209 -225v-10h-107l-139 149l-139 -149h-107zM203 0v1393h100v-1393h-100z" />
<glyph unicode="&#xcf;" horiz-adv-x="505" d="M-10 1640q0 35 23 58.5t57 23.5q32 0 54.5 -23.5t22.5 -58.5t-22 -57t-55 -22q-34 0 -57 22t-23 57zM203 0v1393h100v-1393h-100zM354 1640q0 35 23 58.5t57 23.5q33 0 55.5 -23.5t22.5 -58.5t-22.5 -57t-55.5 -22q-34 0 -57 22t-23 57z" />
<glyph unicode="&#xd0;" horiz-adv-x="1368" d="M96 639v96h109v658h327q191 0 326 -45t217.5 -135t120 -217t37.5 -300t-37.5 -299.5t-120 -217t-217.5 -135t-326 -44.5h-327v639h-109zM307 96h211q175 0 292.5 35t188 111.5t100 185.5t29.5 268t-29.5 268t-100 185.5t-188 111.5t-292.5 35h-211v-561h365v-96h-365 v-543z" />
<glyph unicode="&#xd1;" horiz-adv-x="1413" d="M203 0v1393h98l805 -1205h4v1205h100v-1393h-98l-803 1206h-4v-1206h-102zM449 1626q67 100 159 100q41 0 112.5 -39.5t92.5 -39.5q33 0 58 16t55 55l47 -59q-67 -100 -160 -100q-42 0 -112.5 39.5t-92.5 39.5q-33 0 -57.5 -16t-54.5 -55z" />
<glyph unicode="&#xd2;" horiz-adv-x="1425" d="M135 696q0 162 32.5 291.5t100 228.5t180.5 153t265 54t265 -54t180 -153t99.5 -228.5t32.5 -291.5t-32.5 -291.5t-99.5 -228.5t-180 -153t-265 -54t-265 54t-180.5 153t-100 228.5t-32.5 291.5zM242 696q0 -628 471 -628t471 628q0 629 -471 629t-471 -629zM565 1749v10 h115l98 -225v-10h-92z" />
<glyph unicode="&#xd3;" horiz-adv-x="1425" d="M135 696q0 162 32.5 291.5t100 228.5t180.5 153t265 54t265 -54t180 -153t99.5 -228.5t32.5 -291.5t-32.5 -291.5t-99.5 -228.5t-180 -153t-265 -54t-265 54t-180.5 153t-100 228.5t-32.5 291.5zM242 696q0 -628 471 -628t471 628q0 629 -471 629t-471 -629zM657 1524v10 l99 225h114v-10l-120 -225h-93z" />
<glyph unicode="&#xd4;" horiz-adv-x="1425" d="M135 696q0 162 32.5 291.5t100 228.5t180.5 153t265 54t265 -54t180 -153t99.5 -228.5t32.5 -291.5t-32.5 -291.5t-99.5 -228.5t-180 -153t-265 -54t-265 54t-180.5 153t-100 228.5t-32.5 291.5zM242 696q0 -628 471 -628t471 628q0 629 -471 629t-471 -629zM467 1524v10 l209 225h74l208 -225v-10h-106l-139 149l-140 -149h-106z" />
<glyph unicode="&#xd5;" horiz-adv-x="1425" d="M135 696q0 162 32.5 291.5t100 228.5t180.5 153t265 54t265 -54t180 -153t99.5 -228.5t32.5 -291.5t-32.5 -291.5t-99.5 -228.5t-180 -153t-265 -54t-265 54t-180.5 153t-100 228.5t-32.5 291.5zM242 696q0 -628 471 -628t471 628q0 629 -471 629t-471 -629zM451 1626 q67 100 159 100q41 0 112.5 -39.5t92.5 -39.5q33 0 58 16t55 55l47 -59q-67 -100 -160 -100q-42 0 -112.5 39.5t-92.5 39.5q-33 0 -57.5 -16t-54.5 -55z" />
<glyph unicode="&#xd6;" horiz-adv-x="1425" d="M135 696q0 162 32.5 291.5t100 228.5t180.5 153t265 54t265 -54t180 -153t99.5 -228.5t32.5 -291.5t-32.5 -291.5t-99.5 -228.5t-180 -153t-265 -54t-265 54t-180.5 153t-100 228.5t-32.5 291.5zM242 696q0 -628 471 -628t471 628q0 629 -471 629t-471 -629zM451 1640 q0 35 22.5 58.5t56.5 23.5q33 0 55.5 -23.5t22.5 -58.5t-22.5 -57t-55.5 -22q-34 0 -56.5 22t-22.5 57zM815 1640q0 35 23 58.5t57 23.5q33 0 55.5 -23.5t22.5 -58.5t-22.5 -57t-55.5 -22q-34 0 -57 22t-23 57z" />
<glyph unicode="&#xd7;" d="M199 203l342 342l-342 342l61 65l344 -344l344 344l62 -65l-342 -342l342 -342l-66 -62l-340 340l-340 -340z" />
<glyph unicode="&#xd8;" horiz-adv-x="1425" d="M135 696q0 162 32.5 291.5t100 228.5t180.5 153t265 54q219 0 358 -114l84 129l78 -54l-94 -143q151 -190 151 -545q0 -162 -32.5 -291.5t-99.5 -228.5t-180 -153t-265 -54q-210 0 -344 103l-78 -119l-78 51l86 131q-164 181 -164 561zM242 696q0 -319 116 -471l656 998 q-111 102 -301 102q-471 0 -471 -629zM424 158q114 -90 289 -90q471 0 471 628q0 295 -107 453z" />
<glyph unicode="&#xd9;" horiz-adv-x="1392" d="M193 483v910h102v-899q0 -201 106 -313.5t295 -112.5t295.5 112.5t106.5 313.5v899h102v-910q0 -238 -131.5 -376t-372.5 -138t-372 138t-131 376zM541 1749v10h114l99 -225v-10h-92z" />
<glyph unicode="&#xda;" horiz-adv-x="1392" d="M193 483v910h102v-899q0 -201 106 -313.5t295 -112.5t295.5 112.5t106.5 313.5v899h102v-910q0 -238 -131.5 -376t-372.5 -138t-372 138t-131 376zM641 1524v10l98 225h115v-10l-121 -225h-92z" />
<glyph unicode="&#xdb;" horiz-adv-x="1392" d="M193 483v910h102v-899q0 -201 106 -313.5t295 -112.5t295.5 112.5t106.5 313.5v899h102v-910q0 -238 -131.5 -376t-372.5 -138t-372 138t-131 376zM451 1524v10l208 225h74l209 -225v-10h-106l-140 149l-139 -149h-106z" />
<glyph unicode="&#xdc;" horiz-adv-x="1392" d="M193 483v910h102v-899q0 -201 106 -313.5t295 -112.5t295.5 112.5t106.5 313.5v899h102v-910q0 -238 -131.5 -376t-372.5 -138t-372 138t-131 376zM434 1640q0 35 23 58.5t57 23.5q33 0 55.5 -23.5t22.5 -58.5t-22.5 -57t-55.5 -22q-34 0 -57 22t-23 57zM799 1640 q0 35 23 58.5t57 23.5q32 0 54.5 -23.5t22.5 -58.5t-22 -57t-55 -22q-34 0 -57 22t-23 57z" />
<glyph unicode="&#xdd;" horiz-adv-x="1093" d="M37 1380v13h113l395 -686h4l395 686h113v-13l-459 -786v-594h-102v594zM498 1524v10l98 225h115v-10l-121 -225h-92z" />
<glyph unicode="&#xde;" horiz-adv-x="1175" d="M203 0v1393h102v-265h330q213 0 324.5 -104t111.5 -303t-112 -302.5t-324 -103.5h-330v-315h-102zM305 412h318q342 0 342 309q0 311 -342 311h-318v-620z" />
<glyph unicode="&#xdf;" horiz-adv-x="1159" d="M172 0v975q0 469 387 469q110 0 193.5 -51.5t124.5 -132.5t41 -177q0 -214 -156 -295v-4q132 -30 208.5 -126t76.5 -267q0 -204 -119 -313t-320 -109q-60 0 -102 11v90q41 -9 102 -9q160 0 248 82t88 248q0 72 -18.5 131.5t-57.5 107t-106 74.5t-156 27h-61v86h59 q99 0 155 69.5t56 196.5q0 108 -67.5 188.5t-188.5 80.5q-154 0 -221.5 -93t-67.5 -284v-975h-98z" />
<glyph unicode="&#xe0;" horiz-adv-x="1019" d="M98 266q0 158 119 232.5t356 74.5h168v60q0 293 -268 293q-151 0 -276 -95l-45 74q130 113 321 113q172 0 269.5 -94.5t97.5 -290.5v-494q0 -39 13 -55t52 -16h56v-76q-40 -12 -84 -12q-107 0 -125 106h-4q-61 -50 -147 -83.5t-185 -33.5q-141 0 -229.5 81.5t-88.5 215.5 zM201 268q0 -97 61 -152t162 -55q170 0 317 113v313h-153q-207 0 -297 -53.5t-90 -165.5zM342 1415v10h111l98 -225v-10h-88z" />
<glyph unicode="&#xe1;" horiz-adv-x="1019" d="M98 266q0 158 119 232.5t356 74.5h168v60q0 293 -268 293q-151 0 -276 -95l-45 74q130 113 321 113q172 0 269.5 -94.5t97.5 -290.5v-494q0 -39 13 -55t52 -16h56v-76q-40 -12 -84 -12q-107 0 -125 106h-4q-61 -50 -147 -83.5t-185 -33.5q-141 0 -229.5 81.5t-88.5 215.5 zM201 268q0 -97 61 -152t162 -55q170 0 317 113v313h-153q-207 0 -297 -53.5t-90 -165.5zM475 1190v10l98 225h111v-10l-121 -225h-88z" />
<glyph unicode="&#xe2;" horiz-adv-x="1019" d="M98 266q0 158 119 232.5t356 74.5h168v60q0 293 -268 293q-151 0 -276 -95l-45 74q130 113 321 113q172 0 269.5 -94.5t97.5 -290.5v-494q0 -39 13 -55t52 -16h56v-76q-40 -12 -84 -12q-107 0 -125 106h-4q-61 -50 -147 -83.5t-185 -33.5q-141 0 -229.5 81.5t-88.5 215.5 zM201 268q0 -97 61 -152t162 -55q170 0 317 113v313h-153q-207 0 -297 -53.5t-90 -165.5zM258 1190v10l209 225h74l209 -225v-10h-105l-141 149l-142 -149h-104z" />
<glyph unicode="&#xe3;" horiz-adv-x="1019" d="M98 266q0 158 119 232.5t356 74.5h168v60q0 293 -268 293q-151 0 -276 -95l-45 74q130 113 321 113q172 0 269.5 -94.5t97.5 -290.5v-494q0 -39 13 -55t52 -16h56v-76q-40 -12 -84 -12q-107 0 -125 106h-4q-61 -50 -147 -83.5t-185 -33.5q-141 0 -229.5 81.5t-88.5 215.5 zM201 268q0 -97 61 -152t162 -55q170 0 317 113v313h-153q-207 0 -297 -53.5t-90 -165.5zM244 1255q67 99 159 99q41 0 112 -40t93 -40q33 0 57.5 17t55.5 57l47 -60q-66 -98 -160 -98q-42 0 -112.5 40t-92.5 40q-32 0 -56.5 -17t-55.5 -57z" />
<glyph unicode="&#xe4;" horiz-adv-x="1019" d="M98 266q0 158 119 232.5t356 74.5h168v60q0 293 -268 293q-151 0 -276 -95l-45 74q130 113 321 113q172 0 269.5 -94.5t97.5 -290.5v-494q0 -39 13 -55t52 -16h56v-76q-40 -12 -84 -12q-107 0 -125 106h-4q-61 -50 -147 -83.5t-185 -33.5q-141 0 -229.5 81.5t-88.5 215.5 zM201 268q0 -97 61 -152t162 -55q170 0 317 113v313h-153q-207 0 -297 -53.5t-90 -165.5zM246 1282q0 35 23 58.5t57 23.5q32 0 54.5 -23.5t22.5 -58.5t-22 -57.5t-55 -22.5q-34 0 -57 22.5t-23 57.5zM610 1282q0 35 23 58.5t57 23.5q33 0 55.5 -23.5t22.5 -58.5 t-22.5 -57.5t-55.5 -22.5q-34 0 -57 22.5t-23 57.5z" />
<glyph unicode="&#xe5;" horiz-adv-x="1019" d="M98 266q0 158 119 232.5t356 74.5h168v60q0 293 -268 293q-151 0 -276 -95l-45 74q130 113 321 113q172 0 269.5 -94.5t97.5 -290.5v-494q0 -39 13 -55t52 -16h56v-76q-40 -12 -84 -12q-107 0 -125 106h-4q-61 -50 -147 -83.5t-185 -33.5q-141 0 -229.5 81.5t-88.5 215.5 zM201 268q0 -97 61 -152t162 -55q170 0 317 113v313h-153q-207 0 -297 -53.5t-90 -165.5zM338 1274q0 73 47 117.5t121 44.5t121 -44.5t47 -117.5t-47 -117.5t-121 -44.5t-121 44.5t-47 117.5zM412 1274q0 -42 25.5 -66t68.5 -24t68.5 24t25.5 66t-25.5 66t-68.5 24 t-68.5 -24t-25.5 -66z" />
<glyph unicode="&#xe6;" horiz-adv-x="1685" d="M98 266q0 157 118.5 229t356.5 72h175v66q0 293 -275 293q-151 0 -276 -95l-45 74q130 113 321 113q270 0 342 -223q111 223 361 223q103 0 181.5 -32.5t125.5 -89.5t70.5 -128t23.5 -154q0 -67 -14 -135h-715q2 -93 22.5 -167t60.5 -131.5t108 -88.5t159 -31 q90 0 153.5 25.5t133.5 73.5l45 -78q-76 -54 -150 -83.5t-184 -29.5q-282 0 -393 244q-109 -244 -387 -244q-141 0 -229.5 81.5t-88.5 215.5zM201 268q0 -97 61 -152t162 -55q140 0 232 89.5t92 267.5v63h-160q-209 0 -298 -51t-89 -162zM850 567h623q2 20 2 54 q0 140 -74.5 222.5t-224.5 82.5q-141 0 -225 -93.5t-101 -265.5z" />
<glyph unicode="&#xe7;" horiz-adv-x="962" d="M117 494q0 153 49 269.5t151.5 185.5t247.5 69q167 0 301 -74l-35 -82q-125 64 -266 64q-88 0 -155.5 -34.5t-108.5 -95t-61.5 -137t-20.5 -165.5t20.5 -165.5t61.5 -137t108.5 -95.5t155.5 -35q141 0 266 64l35 -82q-124 -67 -280 -74l-21 -71q65 -7 107.5 -44 t42.5 -106q0 -90 -57.5 -137t-147.5 -47q-97 0 -164 41l29 82q61 -37 135 -37q102 0 102 98q0 45 -33.5 61.5t-107.5 16.5l-8 10l35 137q-185 23 -283 164t-98 357z" />
<glyph unicode="&#xe8;" horiz-adv-x="1079" d="M117 498q0 227 123 373.5t323 146.5q100 0 180 -33.5t129 -90.5t75 -129.5t26 -154.5q0 -62 -15 -135h-741q5 -189 97 -301.5t272 -112.5q91 0 159.5 26t135.5 73l45 -78q-74 -53 -153 -83t-189 -30q-120 0 -211 40t-146 112.5t-82.5 167t-27.5 209.5zM219 563h649 q2 20 2 53q0 139 -78.5 224.5t-228.5 85.5q-143 0 -235 -96.5t-109 -266.5zM408 1415v10h110l98 -225v-10h-88z" />
<glyph unicode="&#xe9;" horiz-adv-x="1079" d="M117 498q0 227 123 373.5t323 146.5q100 0 180 -33.5t129 -90.5t75 -129.5t26 -154.5q0 -62 -15 -135h-741q5 -189 97 -301.5t272 -112.5q91 0 159.5 26t135.5 73l45 -78q-74 -53 -153 -83t-189 -30q-120 0 -211 40t-146 112.5t-82.5 167t-27.5 209.5zM219 563h649 q2 20 2 53q0 139 -78.5 224.5t-228.5 85.5q-143 0 -235 -96.5t-109 -266.5zM510 1190v10l98 225h111v-10l-121 -225h-88z" />
<glyph unicode="&#xea;" horiz-adv-x="1079" d="M117 498q0 227 123 373.5t323 146.5q100 0 180 -33.5t129 -90.5t75 -129.5t26 -154.5q0 -62 -15 -135h-741q5 -189 97 -301.5t272 -112.5q91 0 159.5 26t135.5 73l45 -78q-74 -53 -153 -83t-189 -30q-120 0 -211 40t-146 112.5t-82.5 167t-27.5 209.5zM219 563h649 q2 20 2 53q0 139 -78.5 224.5t-228.5 85.5q-143 0 -235 -96.5t-109 -266.5zM317 1190v10l209 225h74l209 -225v-10h-104l-142 149l-141 -149h-105z" />
<glyph unicode="&#xeb;" horiz-adv-x="1079" d="M117 498q0 227 123 373.5t323 146.5q100 0 180 -33.5t129 -90.5t75 -129.5t26 -154.5q0 -62 -15 -135h-741q5 -189 97 -301.5t272 -112.5q91 0 159.5 26t135.5 73l45 -78q-74 -53 -153 -83t-189 -30q-120 0 -211 40t-146 112.5t-82.5 167t-27.5 209.5zM219 563h649 q2 20 2 53q0 139 -78.5 224.5t-228.5 85.5q-143 0 -235 -96.5t-109 -266.5zM303 1282q0 35 23 58.5t57 23.5q33 0 55.5 -23.5t22.5 -58.5t-22.5 -57.5t-55.5 -22.5q-34 0 -57 22.5t-23 57.5zM668 1282q0 35 23 58.5t57 23.5q32 0 54.5 -23.5t22.5 -58.5t-22 -57.5t-55 -22.5 q-34 0 -57 22.5t-23 57.5z" />
<glyph unicode="&#xec;" horiz-adv-x="444" d="M51 1415v10h111l98 -225v-10h-88zM174 0v987h98v-987h-98z" />
<glyph unicode="&#xed;" horiz-adv-x="444" d="M172 0v987h98v-987h-98zM178 1190v10l98 225h111v-10l-121 -225h-88z" />
<glyph unicode="&#xee;" horiz-adv-x="446" d="M-25 1190v10l209 225h74l209 -225v-10h-105l-141 149l-141 -149h-105zM174 0v987h98v-987h-98z" />
<glyph unicode="&#xef;" horiz-adv-x="446" d="M-39 1282q0 35 23 58.5t57 23.5q33 0 55.5 -23.5t22.5 -58.5t-22.5 -57.5t-55.5 -22.5q-34 0 -57 22.5t-23 57.5zM174 0v987h98v-987h-98zM326 1282q0 35 23 58.5t57 23.5q32 0 54.5 -23.5t22.5 -58.5t-22 -57.5t-55 -22.5q-34 0 -57 22.5t-23 57.5z" />
<glyph unicode="&#xf0;" horiz-adv-x="1177" d="M115 459q0 220 126 354.5t328 134.5q96 0 180 -31t132 -88l4 5q-67 167 -252 362l-221 -76l-33 78l188 66q-83 77 -192 159v11h131q83 -70 153 -140l183 64l32 -76l-151 -53q338 -373 338 -770q0 -215 -130 -352.5t-343 -137.5q-215 0 -344 136.5t-129 353.5zM217 459 q0 -179 103 -288.5t268 -109.5t267.5 109.5t102.5 288.5t-102.5 288t-267.5 109t-268 -109t-103 -288z" />
<glyph unicode="&#xf1;" horiz-adv-x="1136" d="M172 0v987h80l10 -90h4q58 46 150 83.5t200 37.5q175 0 266 -99.5t91 -289.5v-629h-99v612q0 160 -66 237t-200 77q-174 0 -338 -121v-805h-98zM324 1255q67 99 159 99q41 0 112 -40t93 -40q33 0 57.5 17t55.5 57l47 -60q-66 -98 -160 -98q-42 0 -112.5 40t-92.5 40 q-32 0 -56.5 -17t-55.5 -57z" />
<glyph unicode="&#xf2;" horiz-adv-x="1150" d="M117 494q0 85 13.5 158.5t47 142t84.5 117t131 77.5t182 29t182 -29t131 -77.5t84.5 -117t47.5 -142t14 -158.5t-14 -159t-47.5 -142.5t-84.5 -117t-131 -77.5t-182 -29t-182 29t-131 77.5t-84.5 117.5t-47 142.5t-13.5 158.5zM219 494q0 -68 9 -127t34 -117t63.5 -98.5 t102.5 -65.5t147 -25t147 25t103 65.5t63.5 98.5t34 117t9.5 127t-9.5 127t-34 116.5t-63.5 98t-103 65.5t-147 25t-147 -25t-102.5 -65.5t-63.5 -98t-34 -116.5t-9 -127zM420 1415v10h110l99 -225v-10h-88z" />
<glyph unicode="&#xf3;" horiz-adv-x="1150" d="M117 494q0 85 13.5 158.5t47 142t84.5 117t131 77.5t182 29t182 -29t131 -77.5t84.5 -117t47.5 -142t14 -158.5t-14 -159t-47.5 -142.5t-84.5 -117t-131 -77.5t-182 -29t-182 29t-131 77.5t-84.5 117.5t-47 142.5t-13.5 158.5zM219 494q0 -68 9 -127t34 -117t63.5 -98.5 t102.5 -65.5t147 -25t147 25t103 65.5t63.5 98.5t34 117t9.5 127t-9.5 127t-34 116.5t-63.5 98t-103 65.5t-147 25t-147 -25t-102.5 -65.5t-63.5 -98t-34 -116.5t-9 -127zM522 1190v10l99 225h110v-10l-121 -225h-88z" />
<glyph unicode="&#xf4;" horiz-adv-x="1150" d="M117 494q0 85 13.5 158.5t47 142t84.5 117t131 77.5t182 29t182 -29t131 -77.5t84.5 -117t47.5 -142t14 -158.5t-14 -159t-47.5 -142.5t-84.5 -117t-131 -77.5t-182 -29t-182 29t-131 77.5t-84.5 117.5t-47 142.5t-13.5 158.5zM219 494q0 -68 9 -127t34 -117t63.5 -98.5 t102.5 -65.5t147 -25t147 25t103 65.5t63.5 98.5t34 117t9.5 127t-9.5 127t-34 116.5t-63.5 98t-103 65.5t-147 25t-147 -25t-102.5 -65.5t-63.5 -98t-34 -116.5t-9 -127zM330 1190v10l209 225h73l209 -225v-10h-104l-142 149l-141 -149h-104z" />
<glyph unicode="&#xf5;" horiz-adv-x="1150" d="M117 494q0 85 13.5 158.5t47 142t84.5 117t131 77.5t182 29t182 -29t131 -77.5t84.5 -117t47.5 -142t14 -158.5t-14 -159t-47.5 -142.5t-84.5 -117t-131 -77.5t-182 -29t-182 29t-131 77.5t-84.5 117.5t-47 142.5t-13.5 158.5zM219 494q0 -68 9 -127t34 -117t63.5 -98.5 t102.5 -65.5t147 -25t147 25t103 65.5t63.5 98.5t34 117t9.5 127t-9.5 127t-34 116.5t-63.5 98t-103 65.5t-147 25t-147 -25t-102.5 -65.5t-63.5 -98t-34 -116.5t-9 -127zM313 1255q67 99 160 99q41 0 112 -40t93 -40q33 0 57.5 17t55.5 57l47 -60q-66 -98 -160 -98 q-42 0 -112.5 40t-92.5 40q-33 0 -57.5 -17t-55.5 -57z" />
<glyph unicode="&#xf6;" horiz-adv-x="1150" d="M117 494q0 85 13.5 158.5t47 142t84.5 117t131 77.5t182 29t182 -29t131 -77.5t84.5 -117t47.5 -142t14 -158.5t-14 -159t-47.5 -142.5t-84.5 -117t-131 -77.5t-182 -29t-182 29t-131 77.5t-84.5 117.5t-47 142.5t-13.5 158.5zM219 494q0 -68 9 -127t34 -117t63.5 -98.5 t102.5 -65.5t147 -25t147 25t103 65.5t63.5 98.5t34 117t9.5 127t-9.5 127t-34 116.5t-63.5 98t-103 65.5t-147 25t-147 -25t-102.5 -65.5t-63.5 -98t-34 -116.5t-9 -127zM315 1282q0 35 23 58.5t57 23.5q33 0 55.5 -23.5t22.5 -58.5t-22.5 -57.5t-55.5 -22.5 q-34 0 -57 22.5t-23 57.5zM680 1282q0 35 23 58.5t57 23.5q33 0 55.5 -23.5t22.5 -58.5t-22.5 -57.5t-55.5 -22.5q-34 0 -57 22.5t-23 57.5z" />
<glyph unicode="&#xf7;" d="M150 508v88h907v-88h-907zM512 141q0 39 25.5 64.5t64.5 25.5t64.5 -25.5t25.5 -64.5t-25.5 -64.5t-64.5 -25.5t-64.5 25.5t-25.5 64.5zM512 948q0 42 24 66t66 24t66 -24t24 -66t-24 -66t-66 -24t-66 24t-24 66z" />
<glyph unicode="&#xf8;" horiz-adv-x="1150" d="M117 494q0 85 13.5 158.5t47 142t84.5 117t131 77.5t182 29q161 0 277 -78l66 90l75 -55l-73 -98q114 -136 114 -383q0 -85 -14 -159t-47.5 -142.5t-84.5 -117t-131 -77.5t-182 -29q-158 0 -270 74l-67 -92l-66 51l70 96q-125 133 -125 396zM219 494q0 -201 82 -314 l494 680q-85 66 -220 66q-83 0 -147 -25t-102.5 -65.5t-63.5 -98t-34 -116.5t-9 -127zM362 121q83 -60 213 -60q83 0 147 25t103 65.5t63.5 98.5t34 117t9.5 127q0 189 -74 299z" />
<glyph unicode="&#xf9;" horiz-adv-x="1120" d="M164 358v629h98v-612q0 -162 62.5 -238t195.5 -76q166 0 330 121v805h98v-987h-80l-10 90h-4q-152 -121 -340 -121q-350 0 -350 389zM399 1415v10h111l98 -225v-10h-88z" />
<glyph unicode="&#xfa;" horiz-adv-x="1120" d="M164 358v629h98v-612q0 -162 62.5 -238t195.5 -76q166 0 330 121v805h98v-987h-80l-10 90h-4q-152 -121 -340 -121q-350 0 -350 389zM502 1190v10l98 225h111v-10l-121 -225h-88z" />
<glyph unicode="&#xfb;" horiz-adv-x="1120" d="M164 358v629h98v-612q0 -162 62.5 -238t195.5 -76q166 0 330 121v805h98v-987h-80l-10 90h-4q-152 -121 -340 -121q-350 0 -350 389zM307 1190v10l209 225h74l209 -225v-10h-105l-141 149l-141 -149h-105z" />
<glyph unicode="&#xfc;" horiz-adv-x="1120" d="M164 358v629h98v-612q0 -162 62.5 -238t195.5 -76q166 0 330 121v805h98v-987h-80l-10 90h-4q-152 -121 -340 -121q-350 0 -350 389zM293 1282q0 35 23 58.5t57 23.5q33 0 55.5 -23.5t22.5 -58.5t-22.5 -57.5t-55.5 -22.5q-34 0 -57 22.5t-23 57.5zM657 1282 q0 35 23 58.5t57 23.5q33 0 55.5 -23.5t22.5 -58.5t-22.5 -57.5t-55.5 -22.5q-34 0 -57 22.5t-23 57.5z" />
<glyph unicode="&#xfd;" horiz-adv-x="970" d="M51 975v12h105l340 -852h6l311 852h100v-12l-421 -1143q-52 -135 -122.5 -201.5t-176.5 -66.5q-57 0 -127 18v90q66 -16 124 -16q67 0 118 51.5t81 132.5l62 164zM442 1190v10l99 225h110v-10l-121 -225h-88z" />
<glyph unicode="&#xfe;" horiz-adv-x="1130" d="M172 -406v1840h98v-533h4q69 54 148.5 85.5t189.5 31.5q106 0 185.5 -41t125 -114t67.5 -165t22 -204q0 -89 -13 -165t-43.5 -143.5t-76 -114.5t-113.5 -74.5t-154 -27.5q-111 0 -189.5 31.5t-148.5 85.5h-4v-492h-98zM270 199q56 -62 145 -100t185 -38q309 0 309 433 q0 432 -309 432q-96 0 -185 -38t-145 -100v-589z" />
<glyph unicode="&#xff;" horiz-adv-x="970" d="M51 975v12h105l340 -852h6l311 852h100v-12l-421 -1143q-52 -135 -122.5 -201.5t-176.5 -66.5q-57 0 -127 18v90q66 -16 124 -16q67 0 118 51.5t81 132.5l62 164zM236 1282q0 35 22.5 58.5t56.5 23.5q33 0 55.5 -23.5t22.5 -58.5t-22.5 -57.5t-55.5 -22.5 q-34 0 -56.5 22.5t-22.5 57.5zM600 1282q0 35 23 58.5t57 23.5q33 0 55.5 -23.5t22.5 -58.5t-22.5 -57.5t-55.5 -22.5q-34 0 -57 22.5t-23 57.5z" />
<glyph unicode="&#x152;" horiz-adv-x="1890" d="M135 696q0 162 32.5 291.5t100 228.5t180.5 153t265 54q117 0 209 -30h833v-97h-735v-532h674v-96h-674v-572h741v-96h-843q-105 -31 -205 -31q-152 0 -265 54t-180.5 153t-100 228.5t-32.5 291.5zM242 696q0 -628 471 -628q123 0 205 36v1182q-89 39 -205 39 q-471 0 -471 -629z" />
<glyph unicode="&#x153;" horiz-adv-x="1896" d="M117 494q0 85 13.5 158.5t47 142t84.5 117t131 77.5t182 29q318 0 410 -277q52 129 154 203t241 74q100 0 180 -33.5t129 -90.5t75 -129.5t26 -154.5q0 -67 -14 -135h-744q5 -189 98 -301.5t273 -112.5q91 0 159.5 26t135.5 73l45 -78q-74 -53 -153 -83t-189 -30 q-161 0 -265.5 71t-152.5 198q-91 -269 -408 -269q-102 0 -182 29t-131 77.5t-84.5 117.5t-47 142.5t-13.5 158.5zM219 494q0 -68 9 -127t34 -117t63.5 -98.5t102.5 -65.5t147 -25t147 25t103 65.5t63.5 98.5t34 117t9.5 127t-9.5 127t-34 116.5t-63.5 98t-103 65.5t-147 25 t-147 -25t-102.5 -65.5t-63.5 -98t-34 -116.5t-9 -127zM1034 563h652q2 20 2 53q0 139 -79 224.5t-229 85.5q-143 0 -236 -96.5t-110 -266.5z" />
<glyph unicode="&#x178;" horiz-adv-x="1093" d="M37 1380v13h113l395 -686h4l395 686h113v-13l-459 -786v-594h-102v594zM285 1640q0 35 23 58.5t57 23.5q32 0 54.5 -23.5t22.5 -58.5t-22 -57t-55 -22q-34 0 -57 22t-23 57zM649 1640q0 35 23 58.5t57 23.5q33 0 55.5 -23.5t22.5 -58.5t-22.5 -57t-55.5 -22q-34 0 -57 22 t-23 57z" />
<glyph unicode="&#x2c6;" d="M358 1190v10l209 225h74l209 -225v-10h-105l-141 149l-141 -149h-105z" />
<glyph unicode="&#x2dc;" d="M342 1255q67 99 160 99q41 0 112 -40t93 -40q32 0 56.5 17t55.5 57l47 -60q-66 -98 -159 -98q-42 0 -112.5 40t-92.5 40q-33 0 -57.5 -17t-55.5 -57z" />
<glyph unicode="&#x2000;" horiz-adv-x="879" />
<glyph unicode="&#x2001;" horiz-adv-x="1759" />
<glyph unicode="&#x2002;" horiz-adv-x="879" />
<glyph unicode="&#x2003;" horiz-adv-x="1759" />
<glyph unicode="&#x2004;" horiz-adv-x="586" />
<glyph unicode="&#x2005;" horiz-adv-x="439" />
<glyph unicode="&#x2006;" horiz-adv-x="293" />
<glyph unicode="&#x2007;" horiz-adv-x="293" />
<glyph unicode="&#x2008;" horiz-adv-x="219" />
<glyph unicode="&#x2009;" horiz-adv-x="351" />
<glyph unicode="&#x200a;" horiz-adv-x="97" />
<glyph unicode="&#x2010;" horiz-adv-x="808" d="M160 512v88h489v-88h-489z" />
<glyph unicode="&#x2011;" horiz-adv-x="808" d="M160 512v88h489v-88h-489z" />
<glyph unicode="&#x2012;" horiz-adv-x="808" d="M160 512v88h489v-88h-489z" />
<glyph unicode="&#x2013;" horiz-adv-x="1107" d="M160 508v88h788v-88h-788z" />
<glyph unicode="&#x2014;" horiz-adv-x="1785" d="M160 508v88h1466v-88h-1466z" />
<glyph unicode="&#x2018;" horiz-adv-x="442" d="M133 936v12l92 445h84v-13l-61 -444h-115z" />
<glyph unicode="&#x2019;" horiz-adv-x="436" d="M141 936v12l62 445h114v-13l-92 -444h-84z" />
<glyph unicode="&#x201a;" horiz-adv-x="452" d="M115 -317l61 444h115v-12l-92 -445h-84v13z" />
<glyph unicode="&#x201c;" horiz-adv-x="739" d="M133 936v12l92 445h84v-13l-61 -444h-115zM430 936v12l92 445h84v-13l-61 -444h-115z" />
<glyph unicode="&#x201d;" horiz-adv-x="729" d="M141 936v12l62 445h114v-13l-92 -444h-84zM434 936v12l62 445h114v-13l-92 -444h-84z" />
<glyph unicode="&#x201e;" horiz-adv-x="745" d="M115 -317l61 444h115v-12l-92 -445h-84v13zM408 -317l61 444h115v-12l-92 -445h-84v13z" />
<glyph unicode="&#x2022;" horiz-adv-x="651" d="M207 596q0 51 33.5 84t83.5 33t83 -33t33 -84q0 -52 -33 -84.5t-83 -32.5t-83.5 32.5t-33.5 84.5z" />
<glyph unicode="&#x2026;" horiz-adv-x="1273" d="M145 59q0 39 26 65t65 26q38 0 64 -26t26 -65t-25.5 -64.5t-64.5 -25.5t-65 25.5t-26 64.5zM547 59q0 39 25.5 65t64.5 26t64.5 -26t25.5 -65t-25.5 -64.5t-64.5 -25.5t-64.5 25.5t-25.5 64.5zM948 59q0 39 26 65t64 26t64 -26t26 -65t-25.5 -64.5t-64.5 -25.5 t-64.5 25.5t-25.5 64.5z" />
<glyph unicode="&#x202f;" horiz-adv-x="351" />
<glyph unicode="&#x2039;" horiz-adv-x="591" d="M98 551v4l305 418l70 -51l-270 -369l266 -369l-66 -51z" />
<glyph unicode="&#x203a;" horiz-adv-x="591" d="M119 922l69 51l306 -418v-4l-306 -418l-65 51l266 369z" />
<glyph unicode="&#x205f;" horiz-adv-x="439" />
<glyph unicode="&#x20ac;" d="M80 479l26 86h132q-5 103 -5 131q0 67 5 113h-158l26 86h140q35 252 167 390t371 138q80 0 169.5 -23.5t154.5 -64.5l-29 -92q-65 40 -145.5 61t-149.5 21q-197 0 -301 -110t-133 -320h631l-25 -88l-616 2q-2 -37 -2 -113q0 -90 4 -131h545l-25 -86h-510 q30 -201 134.5 -306t297.5 -105q158 0 279 75l35 -86q-66 -42 -150.5 -65t-163.5 -23q-456 0 -536 510h-168z" />
<glyph unicode="&#x2122;" horiz-adv-x="1484" d="M137 1356v78h461v-78h-186v-496h-88v496h-187zM723 860v574h106l185 -322h4l184 322h107v-574h-88v447h-2l-166 -289h-74l-166 289h-2v-447h-88z" />
<glyph unicode="&#x25fc;" horiz-adv-x="983" d="M0 0v983h983v-983h-983z" />
<glyph unicode="&#xfb01;" horiz-adv-x="1138" d="M57 899v72l176 16v168q0 148 68.5 218.5t210.5 70.5q66 0 119 -12v-93q-57 13 -117 13q-97 0 -139.5 -42t-42.5 -145v-178h635v-987h-99v899h-536v-899h-99v899h-176zM838 1284q0 38 22 59t58 21t56.5 -21t20.5 -59q0 -39 -20.5 -60.5t-56.5 -21.5t-58 21.5t-22 60.5z " />
<glyph unicode="&#xfb02;" horiz-adv-x="1175" d="M57 899v72l176 16v168q0 148 68.5 218.5t210.5 70.5q66 0 119 -12v-93q-57 13 -117 13q-97 0 -139.5 -42t-42.5 -145v-178h291v-88h-291v-899h-99v899h-176zM877 180v1254h98v-1270q0 -51 15.5 -73.5t60.5 -22.5h71v-76q-38 -12 -86 -12q-86 0 -122.5 48t-36.5 152z" />
</font>
</defs>
</svg>
